M48
; DRILL file KiCad 10.0.6 date 2026-10-08T16:55:36
; FORMAT={-:-/ absolute / metric / decimal}
; #@! TF.CreationDate,2026-10-08T16:55:36+02:00
; #@! TF.GenerationSoftware,Kicad,Pcbnew,10.0.6
; #@! TF.FileFunction,Plated,1,2,PTH
FMAT,2
METRIC
; #@! TA.AperFunction,Plated,PTH,ComponentDrill
T1C1.000
; #@! TA.AperFunction,Plated,PTH,ComponentDrill
T2C1.016
; #@! TA.AperFunction,Plated,PTH,ComponentDrill
T3C1.500
%
G90
G05
T1
X104.61Y-67.37
X104.61Y-69.91
X104.61Y-72.45
X104.61Y-74.99
X104.61Y-77.53
X104.61Y-80.07
X104.61Y-82.61
X104.61Y-85.15
X104.61Y-87.69
X104.61Y-90.23
X104.61Y-92.77
X104.61Y-95.31
X104.61Y-97.85
X104.61Y-100.39
X104.61Y-102.93
X104.61Y-105.47
X104.61Y-108.01
X104.61Y-110.55
X104.61Y-113.09
X104.61Y-115.63
X122.39Y-67.37
X122.39Y-69.91
X122.39Y-72.45
X122.39Y-74.99
X122.39Y-77.53
X122.39Y-80.07
X122.39Y-82.61
X122.39Y-85.15
X122.39Y-87.69
X122.39Y-90.23
X122.39Y-92.77
X122.39Y-95.31
X122.39Y-97.85
X122.39Y-100.39
X122.39Y-102.93
X122.39Y-105.47
X122.39Y-108.01
X122.39Y-110.55
X122.39Y-113.09
X122.39Y-115.63
T2
X143.846Y-130.5
X146.386Y-130.5
X148.926Y-130.5
X151.466Y-130.5
X154.006Y-130.5
T3
X145.19Y-72.96
X145.19Y-92.46
X145.19Y-112.46
X151.54Y-70.42
X151.54Y-89.92
X151.54Y-109.92
M30
