%TF.GenerationSoftware,KiCad,Pcbnew,10.0.6*%
%TF.CreationDate,2026-10-07T18:38:22+02:00*%
%TF.ProjectId,mainPCB,6d61696e-5043-4422-9e6b-696361645f70,rev?*%
%TF.SameCoordinates,Original*%
%TF.FileFunction,Copper,L1,Top*%
%TF.FilePolarity,Positive*%
%FSLAX46Y46*%
G04 Gerber Fmt 4.6, Leading zero omitted, Abs format (unit mm)*
G04 Created by KiCad (PCBNEW 10.0.6) date 2026-10-07 18:38:22*
%MOMM*%
%LPD*%
G01*
G04 APERTURE LIST*
G04 Aperture macros list*
%AMRoundRect*
0 Rectangle with rounded corners*
0 $1 Rounding radius*
0 $2 $3 $4 $5 $6 $7 $8 $9 X,Y pos of 4 corners*
0 Add a 4 corners polygon primitive as box body*
4,1,4,$2,$3,$4,$5,$6,$7,$8,$9,$2,$3,0*
0 Add four circle primitives for the rounded corners*
1,1,$1+$1,$2,$3*
1,1,$1+$1,$4,$5*
1,1,$1+$1,$6,$7*
1,1,$1+$1,$8,$9*
0 Add four rect primitives between the rounded corners*
20,1,$1+$1,$2,$3,$4,$5,0*
20,1,$1+$1,$4,$5,$6,$7,0*
20,1,$1+$1,$6,$7,$8,$9,0*
20,1,$1+$1,$8,$9,$2,$3,0*%
%AMFreePoly0*
4,1,37,0.800000,0.796148,0.878414,0.796148,1.032228,0.765552,1.177117,0.705537,1.307515,0.618408,1.418408,0.507515,1.505537,0.377117,1.565552,0.232228,1.596148,0.078414,1.596148,-0.078414,1.565552,-0.232228,1.505537,-0.377117,1.418408,-0.507515,1.307515,-0.618408,1.177117,-0.705537,1.032228,-0.765552,0.878414,-0.796148,0.800000,-0.796148,0.800000,-0.800000,-1.400000,-0.800000,
-1.403843,-0.796157,-1.439018,-0.796157,-1.511114,-0.766294,-1.566294,-0.711114,-1.596157,-0.639018,-1.596157,-0.603843,-1.600000,-0.600000,-1.600000,0.600000,-1.596157,0.603843,-1.596157,0.639018,-1.566294,0.711114,-1.511114,0.766294,-1.439018,0.796157,-1.403843,0.796157,-1.400000,0.800000,0.800000,0.800000,0.800000,0.796148,0.800000,0.796148,$1*%
%AMFreePoly1*
4,1,37,1.403843,0.796157,1.439018,0.796157,1.511114,0.766294,1.566294,0.711114,1.596157,0.639018,1.596157,0.603843,1.600000,0.600000,1.600000,-0.600000,1.596157,-0.603843,1.596157,-0.639018,1.566294,-0.711114,1.511114,-0.766294,1.439018,-0.796157,1.403843,-0.796157,1.400000,-0.800000,-0.800000,-0.800000,-0.800000,-0.796148,-0.878414,-0.796148,-1.032228,-0.765552,-1.177117,-0.705537,
-1.307515,-0.618408,-1.418408,-0.507515,-1.505537,-0.377117,-1.565552,-0.232228,-1.596148,-0.078414,-1.596148,0.078414,-1.565552,0.232228,-1.505537,0.377117,-1.418408,0.507515,-1.307515,0.618408,-1.177117,0.705537,-1.032228,0.765552,-0.878414,0.796148,-0.800000,0.796148,-0.800000,0.800000,1.400000,0.800000,1.403843,0.796157,1.403843,0.796157,$1*%
%AMFreePoly2*
4,1,37,0.603843,0.796157,0.639018,0.796157,0.711114,0.766294,0.766294,0.711114,0.796157,0.639018,0.796157,0.603843,0.800000,0.600000,0.800000,-0.600000,0.796157,-0.603843,0.796157,-0.639018,0.766294,-0.711114,0.711114,-0.766294,0.639018,-0.796157,0.603843,-0.796157,0.600000,-0.800000,0.000000,-0.800000,0.000000,-0.796148,-0.078414,-0.796148,-0.232228,-0.765552,-0.377117,-0.705537,
-0.507515,-0.618408,-0.618408,-0.507515,-0.705537,-0.377117,-0.765552,-0.232228,-0.796148,-0.078414,-0.796148,0.078414,-0.765552,0.232228,-0.705537,0.377117,-0.618408,0.507515,-0.507515,0.618408,-0.377117,0.705537,-0.232228,0.765552,-0.078414,0.796148,0.000000,0.796148,0.000000,0.800000,0.600000,0.800000,0.603843,0.796157,0.603843,0.796157,$1*%
%AMFreePoly3*
4,1,37,0.000000,0.796148,0.078414,0.796148,0.232228,0.765552,0.377117,0.705537,0.507515,0.618408,0.618408,0.507515,0.705537,0.377117,0.765552,0.232228,0.796148,0.078414,0.796148,-0.078414,0.765552,-0.232228,0.705537,-0.377117,0.618408,-0.507515,0.507515,-0.618408,0.377117,-0.705537,0.232228,-0.765552,0.078414,-0.796148,0.000000,-0.796148,0.000000,-0.800000,-0.600000,-0.800000,
-0.603843,-0.796157,-0.639018,-0.796157,-0.711114,-0.766294,-0.766294,-0.711114,-0.796157,-0.639018,-0.796157,-0.603843,-0.800000,-0.600000,-0.800000,0.600000,-0.796157,0.603843,-0.796157,0.639018,-0.766294,0.711114,-0.711114,0.766294,-0.639018,0.796157,-0.603843,0.796157,-0.600000,0.800000,0.000000,0.800000,0.000000,0.796148,0.000000,0.796148,$1*%
G04 Aperture macros list end*
%TA.AperFunction,ComponentPad*%
%ADD10C,2.200000*%
%TD*%
%TA.AperFunction,SMDPad,CuDef*%
%ADD11FreePoly0,0.000000*%
%TD*%
%TA.AperFunction,ComponentPad*%
%ADD12RoundRect,0.200000X-0.600000X-0.600000X0.600000X-0.600000X0.600000X0.600000X-0.600000X0.600000X0*%
%TD*%
%TA.AperFunction,SMDPad,CuDef*%
%ADD13RoundRect,0.800000X-0.800000X-0.000010X0.800000X-0.000010X0.800000X0.000010X-0.800000X0.000010X0*%
%TD*%
%TA.AperFunction,ComponentPad*%
%ADD14C,1.600000*%
%TD*%
%TA.AperFunction,SMDPad,CuDef*%
%ADD15FreePoly1,0.000000*%
%TD*%
%TA.AperFunction,ComponentPad*%
%ADD16FreePoly2,0.000000*%
%TD*%
%TA.AperFunction,ComponentPad*%
%ADD17FreePoly3,0.000000*%
%TD*%
%TA.AperFunction,ComponentPad*%
%ADD18R,2.000000X2.000000*%
%TD*%
%TA.AperFunction,ComponentPad*%
%ADD19C,2.000000*%
%TD*%
%TA.AperFunction,ComponentPad*%
%ADD20C,3.200000*%
%TD*%
%TA.AperFunction,Conductor*%
%ADD21C,0.200000*%
%TD*%
G04 APERTURE END LIST*
D10*
%TO.P,SW2,1,1_1*%
%TO.N,Net-(A1-GPIO21)*%
X151540000Y-70420000D03*
%TO.P,SW2,2,2_2*%
%TO.N,Net-(A1-GND-Pad13)*%
X145190000Y-72960000D03*
%TD*%
%TO.P,SW4,1,1_1*%
%TO.N,Net-(A1-GPIO19)*%
X151540000Y-109920000D03*
%TO.P,SW4,2,2_2*%
%TO.N,Net-(A1-GND-Pad13)*%
X145190000Y-112460000D03*
%TD*%
D11*
%TO.P,A1,1,GPIO0_1*%
%TO.N,unconnected-(A1-GPIO0-Pad1)*%
X103810000Y-67370000D03*
D12*
X104610000Y-67370000D03*
D13*
%TO.P,A1,2,GPIO1_2*%
%TO.N,unconnected-(A1-GPIO1-Pad2)*%
X103810000Y-69910000D03*
D14*
X104610000Y-69910000D03*
D15*
%TO.P,A1,3,GND_3*%
%TO.N,Net-(A1-GND-Pad13)*%
X103810000Y-72450000D03*
D16*
X104610000Y-72450000D03*
D13*
%TO.P,A1,4,GPIO2_4*%
%TO.N,unconnected-(A1-GPIO2-Pad4)*%
X103810000Y-74990000D03*
D14*
X104610000Y-74990000D03*
D13*
%TO.P,A1,5,GPIO3_5*%
%TO.N,unconnected-(A1-GPIO3-Pad5)*%
X103810000Y-77530000D03*
D14*
X104610000Y-77530000D03*
D13*
%TO.P,A1,6,GPIO4_6*%
%TO.N,unconnected-(A1-GPIO4-Pad6)*%
X103810000Y-80070000D03*
D14*
X104610000Y-80070000D03*
D13*
%TO.P,A1,7,GPIO5_7*%
%TO.N,unconnected-(A1-GPIO5-Pad7)*%
X103810000Y-82610000D03*
D14*
X104610000Y-82610000D03*
D15*
%TO.P,A1,8,GND_8*%
%TO.N,Net-(A1-GND-Pad13)*%
X103810000Y-85150000D03*
D16*
X104610000Y-85150000D03*
D13*
%TO.P,A1,9,GPIO6_9*%
%TO.N,unconnected-(A1-GPIO6-Pad9)*%
X103810000Y-87690000D03*
D14*
X104610000Y-87690000D03*
D13*
%TO.P,A1,10,GPIO7_10*%
%TO.N,unconnected-(A1-GPIO7-Pad10)*%
X103810000Y-90230000D03*
D14*
X104610000Y-90230000D03*
D13*
%TO.P,A1,11,GPIO8_11*%
%TO.N,unconnected-(A1-GPIO8-Pad11)*%
X103810000Y-92770000D03*
D14*
X104610000Y-92770000D03*
D13*
%TO.P,A1,12,GPIO9_12*%
%TO.N,unconnected-(A1-GPIO9-Pad12)*%
X103810000Y-95310000D03*
D14*
X104610000Y-95310000D03*
D15*
%TO.P,A1,13,GND_13*%
%TO.N,Net-(A1-GND-Pad13)*%
X103810000Y-97850000D03*
D16*
X104610000Y-97850000D03*
D13*
%TO.P,A1,14,GPIO10_14*%
%TO.N,unconnected-(A1-GPIO10-Pad14)*%
X103810000Y-100390000D03*
D14*
X104610000Y-100390000D03*
D13*
%TO.P,A1,15,GPIO11_15*%
%TO.N,unconnected-(A1-GPIO11-Pad15)*%
X103810000Y-102930000D03*
D14*
X104610000Y-102930000D03*
D13*
%TO.P,A1,16,GPIO12_16*%
%TO.N,unconnected-(A1-GPIO12-Pad16)*%
X103810000Y-105470000D03*
D14*
X104610000Y-105470000D03*
D13*
%TO.P,A1,17,GPIO13_17*%
%TO.N,unconnected-(A1-GPIO13-Pad17)*%
X103810000Y-108010000D03*
D14*
X104610000Y-108010000D03*
D15*
%TO.P,A1,18,GND_18*%
%TO.N,Net-(A1-GND-Pad13)*%
X103810000Y-110550000D03*
D16*
X104610000Y-110550000D03*
D13*
%TO.P,A1,19,GPIO14_19*%
%TO.N,unconnected-(A1-GPIO14-Pad19)*%
X103810000Y-113090000D03*
D14*
X104610000Y-113090000D03*
D13*
%TO.P,A1,20,GPIO15_20*%
%TO.N,unconnected-(A1-GPIO15-Pad20)*%
X103810000Y-115630000D03*
D14*
X104610000Y-115630000D03*
%TO.P,A1,21,GPIO16_21*%
%TO.N,Net-(A1-GPIO16)*%
X122390000Y-115630000D03*
D13*
X123190000Y-115630000D03*
D14*
%TO.P,A1,22,GPIO17_22*%
%TO.N,Net-(A1-GPIO17)*%
X122390000Y-113090000D03*
D13*
X123190000Y-113090000D03*
D17*
%TO.P,A1,23,GND_23*%
%TO.N,Net-(A1-GND-Pad13)*%
X122390000Y-110550000D03*
D11*
X123190000Y-110550000D03*
D14*
%TO.P,A1,24,GPIO18_24*%
%TO.N,Net-(A1-GPIO18)*%
X122390000Y-108010000D03*
D13*
X123190000Y-108010000D03*
D14*
%TO.P,A1,25,GPIO19_25*%
%TO.N,Net-(A1-GPIO19)*%
X122390000Y-105470000D03*
D13*
X123190000Y-105470000D03*
D14*
%TO.P,A1,26,GPIO20_26*%
%TO.N,Net-(A1-GPIO20)*%
X122390000Y-102930000D03*
D13*
X123190000Y-102930000D03*
D14*
%TO.P,A1,27,GPIO21_27*%
%TO.N,Net-(A1-GPIO21)*%
X122390000Y-100390000D03*
D13*
X123190000Y-100390000D03*
D17*
%TO.P,A1,28,GND_28*%
%TO.N,Net-(A1-GND-Pad13)*%
X122390000Y-97850000D03*
D11*
X123190000Y-97850000D03*
D14*
%TO.P,A1,29,GPIO22_29*%
%TO.N,unconnected-(A1-GPIO22-Pad29)*%
X122390000Y-95310000D03*
D13*
X123190000Y-95310000D03*
D14*
%TO.P,A1,30,RUN_30*%
%TO.N,unconnected-(A1-RUN-Pad30)*%
X122390000Y-92770000D03*
D13*
X123190000Y-92770000D03*
D14*
%TO.P,A1,31,GPIO26_ADC0_31*%
%TO.N,unconnected-(A1-GPIO26_ADC0-Pad31)*%
X122390000Y-90230000D03*
D13*
X123190000Y-90230000D03*
D14*
%TO.P,A1,32,GPIO27_ADC1_32*%
%TO.N,unconnected-(A1-GPIO27_ADC1-Pad32)*%
X122390000Y-87690000D03*
D13*
X123190000Y-87690000D03*
D17*
%TO.P,A1,33,AGND_33*%
%TO.N,unconnected-(A1-AGND-Pad33)*%
X122390000Y-85150000D03*
D11*
X123190000Y-85150000D03*
D14*
%TO.P,A1,34,GPIO28_ADC2_34*%
%TO.N,unconnected-(A1-GPIO28_ADC2-Pad34)*%
X122390000Y-82610000D03*
D13*
X123190000Y-82610000D03*
D14*
%TO.P,A1,35,ADC_VREF_35*%
%TO.N,unconnected-(A1-ADC_VREF-Pad35)*%
X122390000Y-80070000D03*
D13*
X123190000Y-80070000D03*
D14*
%TO.P,A1,36,3V3_36*%
%TO.N,unconnected-(A1-3V3-Pad36)*%
X122390000Y-77530000D03*
D13*
X123190000Y-77530000D03*
D14*
%TO.P,A1,37,3V3_EN_37*%
%TO.N,unconnected-(A1-3V3_EN-Pad37)*%
X122390000Y-74990000D03*
D13*
X123190000Y-74990000D03*
D17*
%TO.P,A1,38,GND_38*%
%TO.N,Net-(A1-GND-Pad13)*%
X122390000Y-72450000D03*
D11*
X123190000Y-72450000D03*
D14*
%TO.P,A1,39,VSYS_39*%
%TO.N,unconnected-(A1-VSYS-Pad39)*%
X122390000Y-69910000D03*
D13*
X123190000Y-69910000D03*
D14*
%TO.P,A1,40,VBUS_40*%
%TO.N,unconnected-(A1-VBUS-Pad40)*%
X122390000Y-67370000D03*
D13*
X123190000Y-67370000D03*
%TD*%
D10*
%TO.P,SW3,1,1_1*%
%TO.N,Net-(A1-GPIO20)*%
X151540000Y-89920000D03*
%TO.P,SW3,2,2_2*%
%TO.N,Net-(A1-GND-Pad13)*%
X145190000Y-92460000D03*
%TD*%
D18*
%TO.P,SW1,A,A_A*%
%TO.N,Net-(A1-GPIO17)*%
X141500000Y-137500000D03*
D19*
%TO.P,SW1,B,B_B*%
%TO.N,Net-(A1-GPIO16)*%
X141500000Y-142500000D03*
%TO.P,SW1,C,C_C*%
%TO.N,Net-(A1-GND-Pad13)*%
X141500000Y-140000000D03*
D20*
%TO.P,SW1,MP*%
%TO.N,N/C*%
X149000000Y-134400000D03*
X149000000Y-145600000D03*
D19*
%TO.P,SW1,S1,S1_S1*%
%TO.N,Net-(A1-GPIO18)*%
X156000000Y-142500000D03*
%TO.P,SW1,S2,S2_S2*%
%TO.N,Net-(A1-GND-Pad13)*%
X156000000Y-137500000D03*
%TD*%
%TO.N,Net-(A1-GND-Pad13)*%
D21*
X142230000Y-109500000D02*
X142000000Y-109500000D01*
%TO.N,Net-(A1-GPIO18)*%
X157500000Y-130000000D02*
X143000000Y-130000000D01*
X135000000Y-111000000D02*
X132010000Y-108010000D01*
X159500000Y-139000000D02*
X159500000Y-132000000D01*
X143000000Y-130000000D02*
X135000000Y-122000000D01*
X159500000Y-132000000D02*
X157500000Y-130000000D01*
X132010000Y-108010000D02*
X123190000Y-108010000D01*
X156000000Y-142500000D02*
X159500000Y-139000000D01*
X135000000Y-122000000D02*
X135000000Y-111000000D01*
%TO.N,Net-(A1-GPIO21)*%
X137080000Y-70420000D02*
X136000000Y-71500000D01*
X151540000Y-70420000D02*
X137080000Y-70420000D01*
X127610000Y-100390000D02*
X123190000Y-100390000D01*
X136000000Y-92000000D02*
X127610000Y-100390000D01*
X136000000Y-71500000D02*
X136000000Y-92000000D01*
%TO.N,Net-(A1-GPIO17)*%
X141500000Y-137500000D02*
X141500000Y-132500000D01*
X127090000Y-113090000D02*
X122390000Y-113090000D01*
X131000000Y-117000000D02*
X127090000Y-113090000D01*
X141500000Y-132500000D02*
X131000000Y-122000000D01*
X131000000Y-122000000D02*
X131000000Y-117000000D01*
%TO.N,Net-(A1-GPIO20)*%
X128570000Y-102930000D02*
X123190000Y-102930000D01*
X141580000Y-89920000D02*
X128570000Y-102930000D01*
X151540000Y-89920000D02*
X141580000Y-89920000D01*
%TO.N,Net-(A1-GPIO16)*%
X126500000Y-118940000D02*
X123190000Y-115630000D01*
X141500000Y-142500000D02*
X126500000Y-127500000D01*
X126500000Y-127500000D02*
X126500000Y-118940000D01*
%TO.N,Net-(A1-GPIO19)*%
X147090000Y-105470000D02*
X123190000Y-105470000D01*
X151540000Y-109920000D02*
X147090000Y-105470000D01*
%TD*%
%TA.AperFunction,Conductor*%
%TO.N,Net-(A1-GND-Pad13)*%
G36*
X164943039Y-56019685D02*
G01*
X164988794Y-56072489D01*
X165000000Y-56124000D01*
X165000000Y-153876000D01*
X164980315Y-153943039D01*
X164927511Y-153988794D01*
X164876000Y-154000000D01*
X88123369Y-154000000D01*
X88056330Y-153980315D01*
X88010575Y-153927511D01*
X87999371Y-153876633D01*
X87981524Y-150378711D01*
X91149500Y-150378711D01*
X91149500Y-150621288D01*
X91181161Y-150861785D01*
X91243947Y-151096104D01*
X91336773Y-151320205D01*
X91336776Y-151320212D01*
X91458064Y-151530289D01*
X91458066Y-151530292D01*
X91458067Y-151530293D01*
X91605733Y-151722736D01*
X91605739Y-151722743D01*
X91777256Y-151894260D01*
X91777262Y-151894265D01*
X91969711Y-152041936D01*
X92179788Y-152163224D01*
X92403900Y-152256054D01*
X92638211Y-152318838D01*
X92818586Y-152342584D01*
X92878711Y-152350500D01*
X92878712Y-152350500D01*
X93121289Y-152350500D01*
X93169388Y-152344167D01*
X93361789Y-152318838D01*
X93596100Y-152256054D01*
X93820212Y-152163224D01*
X94030289Y-152041936D01*
X94222738Y-151894265D01*
X94394265Y-151722738D01*
X94541936Y-151530289D01*
X94663224Y-151320212D01*
X94756054Y-151096100D01*
X94818838Y-150861789D01*
X94850500Y-150621288D01*
X94850500Y-150378712D01*
X94850500Y-150378711D01*
X158649500Y-150378711D01*
X158649500Y-150621288D01*
X158681161Y-150861785D01*
X158743947Y-151096104D01*
X158836773Y-151320205D01*
X158836776Y-151320212D01*
X158958064Y-151530289D01*
X158958066Y-151530292D01*
X158958067Y-151530293D01*
X159105733Y-151722736D01*
X159105739Y-151722743D01*
X159277256Y-151894260D01*
X159277262Y-151894265D01*
X159469711Y-152041936D01*
X159679788Y-152163224D01*
X159903900Y-152256054D01*
X160138211Y-152318838D01*
X160318586Y-152342584D01*
X160378711Y-152350500D01*
X160378712Y-152350500D01*
X160621289Y-152350500D01*
X160669388Y-152344167D01*
X160861789Y-152318838D01*
X161096100Y-152256054D01*
X161320212Y-152163224D01*
X161530289Y-152041936D01*
X161722738Y-151894265D01*
X161894265Y-151722738D01*
X162041936Y-151530289D01*
X162163224Y-151320212D01*
X162256054Y-151096100D01*
X162318838Y-150861789D01*
X162350500Y-150621288D01*
X162350500Y-150378712D01*
X162318838Y-150138211D01*
X162256054Y-149903900D01*
X162163224Y-149679788D01*
X162041936Y-149469711D01*
X161894265Y-149277262D01*
X161894260Y-149277256D01*
X161722743Y-149105739D01*
X161722736Y-149105733D01*
X161530293Y-148958067D01*
X161530292Y-148958066D01*
X161530289Y-148958064D01*
X161320212Y-148836776D01*
X161320205Y-148836773D01*
X161096104Y-148743947D01*
X160861785Y-148681161D01*
X160621289Y-148649500D01*
X160621288Y-148649500D01*
X160378712Y-148649500D01*
X160378711Y-148649500D01*
X160138214Y-148681161D01*
X159903895Y-148743947D01*
X159679794Y-148836773D01*
X159679785Y-148836777D01*
X159469706Y-148958067D01*
X159277263Y-149105733D01*
X159277256Y-149105739D01*
X159105739Y-149277256D01*
X159105733Y-149277263D01*
X158958067Y-149469706D01*
X158836777Y-149679785D01*
X158836773Y-149679794D01*
X158743947Y-149903895D01*
X158681161Y-150138214D01*
X158649500Y-150378711D01*
X94850500Y-150378711D01*
X94818838Y-150138211D01*
X94756054Y-149903900D01*
X94663224Y-149679788D01*
X94541936Y-149469711D01*
X94394265Y-149277262D01*
X94394260Y-149277256D01*
X94222743Y-149105739D01*
X94222736Y-149105733D01*
X94030293Y-148958067D01*
X94030292Y-148958066D01*
X94030289Y-148958064D01*
X93820212Y-148836776D01*
X93820205Y-148836773D01*
X93596104Y-148743947D01*
X93361785Y-148681161D01*
X93121289Y-148649500D01*
X93121288Y-148649500D01*
X92878712Y-148649500D01*
X92878711Y-148649500D01*
X92638214Y-148681161D01*
X92403895Y-148743947D01*
X92179794Y-148836773D01*
X92179785Y-148836777D01*
X91969706Y-148958067D01*
X91777263Y-149105733D01*
X91777256Y-149105739D01*
X91605739Y-149277256D01*
X91605733Y-149277263D01*
X91458067Y-149469706D01*
X91336777Y-149679785D01*
X91336773Y-149679794D01*
X91243947Y-149903895D01*
X91181161Y-150138214D01*
X91149500Y-150378711D01*
X87981524Y-150378711D01*
X87981507Y-150375286D01*
X87956441Y-145462332D01*
X146899500Y-145462332D01*
X146899500Y-145737667D01*
X146899501Y-145737684D01*
X146935438Y-146010655D01*
X146935439Y-146010660D01*
X146935440Y-146010666D01*
X146935441Y-146010668D01*
X147006704Y-146276630D01*
X147112075Y-146531017D01*
X147112080Y-146531028D01*
X147194861Y-146674407D01*
X147249751Y-146769479D01*
X147249753Y-146769482D01*
X147249754Y-146769483D01*
X147417370Y-146987926D01*
X147417376Y-146987933D01*
X147612066Y-147182623D01*
X147612072Y-147182628D01*
X147830521Y-147350249D01*
X147983778Y-147438732D01*
X148068971Y-147487919D01*
X148068976Y-147487921D01*
X148068979Y-147487923D01*
X148323368Y-147593295D01*
X148589334Y-147664560D01*
X148862326Y-147700500D01*
X148862333Y-147700500D01*
X149137667Y-147700500D01*
X149137674Y-147700500D01*
X149410666Y-147664560D01*
X149676632Y-147593295D01*
X149931021Y-147487923D01*
X150169479Y-147350249D01*
X150387928Y-147182628D01*
X150582628Y-146987928D01*
X150750249Y-146769479D01*
X150887923Y-146531021D01*
X150993295Y-146276632D01*
X151064560Y-146010666D01*
X151100500Y-145737674D01*
X151100500Y-145462326D01*
X151064560Y-145189334D01*
X150993295Y-144923368D01*
X150887923Y-144668979D01*
X150887921Y-144668976D01*
X150887919Y-144668971D01*
X150838732Y-144583778D01*
X150750249Y-144430521D01*
X150582628Y-144212072D01*
X150582623Y-144212066D01*
X150387933Y-144017376D01*
X150387926Y-144017370D01*
X150169483Y-143849754D01*
X150169482Y-143849753D01*
X150169479Y-143849751D01*
X150054457Y-143783343D01*
X149931028Y-143712080D01*
X149931017Y-143712075D01*
X149676630Y-143606704D01*
X149543649Y-143571072D01*
X149410666Y-143535440D01*
X149410660Y-143535439D01*
X149410655Y-143535438D01*
X149137684Y-143499501D01*
X149137679Y-143499500D01*
X149137674Y-143499500D01*
X148862326Y-143499500D01*
X148862320Y-143499500D01*
X148862315Y-143499501D01*
X148589344Y-143535438D01*
X148589337Y-143535439D01*
X148589334Y-143535440D01*
X148533125Y-143550500D01*
X148323369Y-143606704D01*
X148068982Y-143712075D01*
X148068971Y-143712080D01*
X147830516Y-143849754D01*
X147612073Y-144017370D01*
X147612066Y-144017376D01*
X147417376Y-144212066D01*
X147417370Y-144212073D01*
X147249754Y-144430516D01*
X147112080Y-144668971D01*
X147112075Y-144668982D01*
X147006704Y-144923369D01*
X146935441Y-145189331D01*
X146935438Y-145189344D01*
X146899501Y-145462315D01*
X146899500Y-145462332D01*
X87956441Y-145462332D01*
X87956423Y-145458900D01*
X87790976Y-113031143D01*
X87596588Y-74931143D01*
X87554746Y-66730219D01*
X101704500Y-66730219D01*
X101704500Y-68009784D01*
X101707395Y-68063814D01*
X101707396Y-68063818D01*
X101742976Y-68203221D01*
X101742980Y-68203233D01*
X101773419Y-68276719D01*
X101773431Y-68276747D01*
X101796779Y-68325548D01*
X101796782Y-68325553D01*
X101837381Y-68379786D01*
X101883006Y-68440733D01*
X101883010Y-68440737D01*
X101883015Y-68440743D01*
X101939252Y-68496980D01*
X101939261Y-68496988D01*
X101939267Y-68496994D01*
X101970970Y-68525472D01*
X101979524Y-68533156D01*
X101979532Y-68533162D01*
X102103263Y-68606573D01*
X102103262Y-68606573D01*
X102117615Y-68612518D01*
X102176774Y-68637022D01*
X102204662Y-68646860D01*
X102261332Y-68687725D01*
X102286913Y-68752743D01*
X102273283Y-68821271D01*
X102234531Y-68865371D01*
X102170856Y-68909956D01*
X102009954Y-69070858D01*
X101879432Y-69257265D01*
X101879431Y-69257267D01*
X101783261Y-69463502D01*
X101783258Y-69463511D01*
X101724366Y-69683302D01*
X101724364Y-69683312D01*
X101709500Y-69853214D01*
X101709500Y-69966785D01*
X101724364Y-70136687D01*
X101724366Y-70136697D01*
X101783258Y-70356488D01*
X101783261Y-70356497D01*
X101879431Y-70562732D01*
X101879432Y-70562734D01*
X102009954Y-70749141D01*
X102170858Y-70910045D01*
X102170861Y-70910047D01*
X102357266Y-71040568D01*
X102409219Y-71064794D01*
X102461659Y-71110966D01*
X102480811Y-71178159D01*
X102460596Y-71245041D01*
X102415269Y-71286534D01*
X102350499Y-71321155D01*
X102350478Y-71321167D01*
X102219469Y-71408704D01*
X102219463Y-71408708D01*
X102142935Y-71471514D01*
X102031514Y-71582935D01*
X101968708Y-71659463D01*
X101968704Y-71659469D01*
X101881167Y-71790478D01*
X101881155Y-71790498D01*
X101834490Y-71877801D01*
X101774185Y-72023387D01*
X101745443Y-72118139D01*
X101745440Y-72118150D01*
X101729160Y-72199999D01*
X101729161Y-72200000D01*
X104176988Y-72200000D01*
X104144075Y-72257007D01*
X104110000Y-72384174D01*
X104110000Y-72515826D01*
X104144075Y-72642993D01*
X104176988Y-72700000D01*
X101729160Y-72700000D01*
X101745440Y-72781849D01*
X101745443Y-72781860D01*
X101774185Y-72876612D01*
X101834490Y-73022198D01*
X101881155Y-73109501D01*
X101881167Y-73109521D01*
X101968704Y-73240530D01*
X101968708Y-73240536D01*
X102031514Y-73317064D01*
X102142935Y-73428485D01*
X102219463Y-73491291D01*
X102219469Y-73491295D01*
X102350478Y-73578832D01*
X102350506Y-73578849D01*
X102415268Y-73613465D01*
X102465112Y-73662427D01*
X102480573Y-73730565D01*
X102456741Y-73796244D01*
X102409221Y-73835205D01*
X102357264Y-73859433D01*
X102170858Y-73989954D01*
X102009954Y-74150858D01*
X101879432Y-74337265D01*
X101879431Y-74337267D01*
X101783261Y-74543502D01*
X101783258Y-74543511D01*
X101724366Y-74763302D01*
X101724364Y-74763312D01*
X101709500Y-74933214D01*
X101709500Y-75046785D01*
X101724364Y-75216687D01*
X101724366Y-75216697D01*
X101783258Y-75436488D01*
X101783261Y-75436497D01*
X101879431Y-75642732D01*
X101879432Y-75642734D01*
X102009954Y-75829141D01*
X102170858Y-75990045D01*
X102170861Y-75990047D01*
X102357266Y-76120568D01*
X102415275Y-76147618D01*
X102467714Y-76193791D01*
X102486866Y-76260984D01*
X102466650Y-76327865D01*
X102415275Y-76372382D01*
X102357267Y-76399431D01*
X102357265Y-76399432D01*
X102170858Y-76529954D01*
X102009954Y-76690858D01*
X101879432Y-76877265D01*
X101879431Y-76877267D01*
X101783261Y-77083502D01*
X101783258Y-77083511D01*
X101724366Y-77303302D01*
X101724364Y-77303312D01*
X101709500Y-77473214D01*
X101709500Y-77586785D01*
X101724364Y-77756687D01*
X101724366Y-77756697D01*
X101783258Y-77976488D01*
X101783261Y-77976497D01*
X101879431Y-78182732D01*
X101879432Y-78182734D01*
X102009954Y-78369141D01*
X102170858Y-78530045D01*
X102170861Y-78530047D01*
X102357266Y-78660568D01*
X102415275Y-78687618D01*
X102467714Y-78733791D01*
X102486866Y-78800984D01*
X102466650Y-78867865D01*
X102415275Y-78912382D01*
X102357267Y-78939431D01*
X102357265Y-78939432D01*
X102170858Y-79069954D01*
X102009954Y-79230858D01*
X101879432Y-79417265D01*
X101879431Y-79417267D01*
X101783261Y-79623502D01*
X101783258Y-79623511D01*
X101724366Y-79843302D01*
X101724364Y-79843312D01*
X101709500Y-80013214D01*
X101709500Y-80126785D01*
X101724364Y-80296687D01*
X101724366Y-80296697D01*
X101783258Y-80516488D01*
X101783261Y-80516497D01*
X101879431Y-80722732D01*
X101879432Y-80722734D01*
X102009954Y-80909141D01*
X102170858Y-81070045D01*
X102170861Y-81070047D01*
X102357266Y-81200568D01*
X102415275Y-81227618D01*
X102467714Y-81273791D01*
X102486866Y-81340984D01*
X102466650Y-81407865D01*
X102415275Y-81452382D01*
X102357267Y-81479431D01*
X102357265Y-81479432D01*
X102170858Y-81609954D01*
X102009954Y-81770858D01*
X101879432Y-81957265D01*
X101879431Y-81957267D01*
X101783261Y-82163502D01*
X101783258Y-82163511D01*
X101724366Y-82383302D01*
X101724364Y-82383312D01*
X101709500Y-82553214D01*
X101709500Y-82666785D01*
X101724364Y-82836687D01*
X101724366Y-82836697D01*
X101783258Y-83056488D01*
X101783261Y-83056497D01*
X101879431Y-83262732D01*
X101879432Y-83262734D01*
X102009954Y-83449141D01*
X102170858Y-83610045D01*
X102170861Y-83610047D01*
X102357266Y-83740568D01*
X102409219Y-83764794D01*
X102461659Y-83810966D01*
X102480811Y-83878159D01*
X102460596Y-83945041D01*
X102415269Y-83986534D01*
X102350499Y-84021155D01*
X102350478Y-84021167D01*
X102219469Y-84108704D01*
X102219463Y-84108708D01*
X102142935Y-84171514D01*
X102031514Y-84282935D01*
X101968708Y-84359463D01*
X101968704Y-84359469D01*
X101881167Y-84490478D01*
X101881155Y-84490498D01*
X101834490Y-84577801D01*
X101774185Y-84723387D01*
X101745443Y-84818139D01*
X101745440Y-84818150D01*
X101729160Y-84899999D01*
X101729161Y-84900000D01*
X104176988Y-84900000D01*
X104144075Y-84957007D01*
X104110000Y-85084174D01*
X104110000Y-85215826D01*
X104144075Y-85342993D01*
X104176988Y-85400000D01*
X101729160Y-85400000D01*
X101745440Y-85481849D01*
X101745443Y-85481860D01*
X101774185Y-85576612D01*
X101834490Y-85722198D01*
X101881155Y-85809501D01*
X101881167Y-85809521D01*
X101968704Y-85940530D01*
X101968708Y-85940536D01*
X102031514Y-86017064D01*
X102142935Y-86128485D01*
X102219463Y-86191291D01*
X102219469Y-86191295D01*
X102350478Y-86278832D01*
X102350506Y-86278849D01*
X102415268Y-86313465D01*
X102465112Y-86362427D01*
X102480573Y-86430565D01*
X102456741Y-86496244D01*
X102409221Y-86535205D01*
X102357264Y-86559433D01*
X102170858Y-86689954D01*
X102009954Y-86850858D01*
X101879432Y-87037265D01*
X101879431Y-87037267D01*
X101783261Y-87243502D01*
X101783258Y-87243511D01*
X101724366Y-87463302D01*
X101724364Y-87463312D01*
X101709500Y-87633214D01*
X101709500Y-87746785D01*
X101724364Y-87916687D01*
X101724366Y-87916697D01*
X101783258Y-88136488D01*
X101783261Y-88136497D01*
X101879431Y-88342732D01*
X101879432Y-88342734D01*
X102009954Y-88529141D01*
X102170858Y-88690045D01*
X102170861Y-88690047D01*
X102357266Y-88820568D01*
X102415275Y-88847618D01*
X102467714Y-88893791D01*
X102486866Y-88960984D01*
X102466650Y-89027865D01*
X102415275Y-89072382D01*
X102357267Y-89099431D01*
X102357265Y-89099432D01*
X102170858Y-89229954D01*
X102009954Y-89390858D01*
X101879432Y-89577265D01*
X101879431Y-89577267D01*
X101783261Y-89783502D01*
X101783258Y-89783511D01*
X101724366Y-90003302D01*
X101724364Y-90003312D01*
X101709500Y-90173214D01*
X101709500Y-90286785D01*
X101724364Y-90456687D01*
X101724366Y-90456697D01*
X101783258Y-90676488D01*
X101783261Y-90676497D01*
X101879431Y-90882732D01*
X101879432Y-90882734D01*
X102009954Y-91069141D01*
X102170858Y-91230045D01*
X102170861Y-91230047D01*
X102357266Y-91360568D01*
X102415275Y-91387618D01*
X102467714Y-91433791D01*
X102486866Y-91500984D01*
X102466650Y-91567865D01*
X102415275Y-91612382D01*
X102357267Y-91639431D01*
X102357265Y-91639432D01*
X102170858Y-91769954D01*
X102009954Y-91930858D01*
X101879432Y-92117265D01*
X101879431Y-92117267D01*
X101783261Y-92323502D01*
X101783258Y-92323511D01*
X101724366Y-92543302D01*
X101724364Y-92543312D01*
X101709500Y-92713214D01*
X101709500Y-92826785D01*
X101724364Y-92996687D01*
X101724366Y-92996697D01*
X101783258Y-93216488D01*
X101783261Y-93216497D01*
X101879431Y-93422732D01*
X101879432Y-93422734D01*
X102009954Y-93609141D01*
X102170858Y-93770045D01*
X102170861Y-93770047D01*
X102357266Y-93900568D01*
X102415275Y-93927618D01*
X102467714Y-93973791D01*
X102486866Y-94040984D01*
X102466650Y-94107865D01*
X102415275Y-94152382D01*
X102357267Y-94179431D01*
X102357265Y-94179432D01*
X102170858Y-94309954D01*
X102009954Y-94470858D01*
X101879432Y-94657265D01*
X101879431Y-94657267D01*
X101783261Y-94863502D01*
X101783258Y-94863511D01*
X101724366Y-95083302D01*
X101724364Y-95083312D01*
X101709500Y-95253214D01*
X101709500Y-95366785D01*
X101724364Y-95536687D01*
X101724366Y-95536697D01*
X101783258Y-95756488D01*
X101783261Y-95756497D01*
X101879431Y-95962732D01*
X101879432Y-95962734D01*
X102009954Y-96149141D01*
X102170858Y-96310045D01*
X102170861Y-96310047D01*
X102357266Y-96440568D01*
X102409219Y-96464794D01*
X102461659Y-96510966D01*
X102480811Y-96578159D01*
X102460596Y-96645041D01*
X102415269Y-96686534D01*
X102350499Y-96721155D01*
X102350478Y-96721167D01*
X102219469Y-96808704D01*
X102219463Y-96808708D01*
X102142935Y-96871514D01*
X102031514Y-96982935D01*
X101968708Y-97059463D01*
X101968704Y-97059469D01*
X101881167Y-97190478D01*
X101881155Y-97190498D01*
X101834490Y-97277801D01*
X101774185Y-97423387D01*
X101745443Y-97518139D01*
X101745440Y-97518150D01*
X101729160Y-97599999D01*
X101729161Y-97600000D01*
X104176988Y-97600000D01*
X104144075Y-97657007D01*
X104110000Y-97784174D01*
X104110000Y-97915826D01*
X104144075Y-98042993D01*
X104176988Y-98100000D01*
X101729160Y-98100000D01*
X101745440Y-98181849D01*
X101745443Y-98181860D01*
X101774185Y-98276612D01*
X101834490Y-98422198D01*
X101881155Y-98509501D01*
X101881167Y-98509521D01*
X101968704Y-98640530D01*
X101968708Y-98640536D01*
X102031514Y-98717064D01*
X102142935Y-98828485D01*
X102219463Y-98891291D01*
X102219469Y-98891295D01*
X102350478Y-98978832D01*
X102350506Y-98978849D01*
X102415268Y-99013465D01*
X102465112Y-99062427D01*
X102480573Y-99130565D01*
X102456741Y-99196244D01*
X102409221Y-99235205D01*
X102357264Y-99259433D01*
X102170858Y-99389954D01*
X102009954Y-99550858D01*
X101879432Y-99737265D01*
X101879431Y-99737267D01*
X101783261Y-99943502D01*
X101783258Y-99943511D01*
X101724366Y-100163302D01*
X101724364Y-100163312D01*
X101709500Y-100333214D01*
X101709500Y-100446785D01*
X101724364Y-100616687D01*
X101724366Y-100616697D01*
X101783258Y-100836488D01*
X101783261Y-100836497D01*
X101879431Y-101042732D01*
X101879432Y-101042734D01*
X102009954Y-101229141D01*
X102170858Y-101390045D01*
X102170861Y-101390047D01*
X102357266Y-101520568D01*
X102415275Y-101547618D01*
X102467714Y-101593791D01*
X102486866Y-101660984D01*
X102466650Y-101727865D01*
X102415275Y-101772382D01*
X102357267Y-101799431D01*
X102357265Y-101799432D01*
X102170858Y-101929954D01*
X102009954Y-102090858D01*
X101879432Y-102277265D01*
X101879431Y-102277267D01*
X101783261Y-102483502D01*
X101783258Y-102483511D01*
X101724366Y-102703302D01*
X101724364Y-102703312D01*
X101709500Y-102873214D01*
X101709500Y-102986785D01*
X101724364Y-103156687D01*
X101724366Y-103156697D01*
X101783258Y-103376488D01*
X101783261Y-103376497D01*
X101879431Y-103582732D01*
X101879432Y-103582734D01*
X102009954Y-103769141D01*
X102170858Y-103930045D01*
X102170861Y-103930047D01*
X102357266Y-104060568D01*
X102415275Y-104087618D01*
X102467714Y-104133791D01*
X102486866Y-104200984D01*
X102466650Y-104267865D01*
X102415275Y-104312382D01*
X102357267Y-104339431D01*
X102357265Y-104339432D01*
X102170858Y-104469954D01*
X102009954Y-104630858D01*
X101879432Y-104817265D01*
X101879431Y-104817267D01*
X101783261Y-105023502D01*
X101783258Y-105023511D01*
X101724366Y-105243302D01*
X101724364Y-105243312D01*
X101709500Y-105413214D01*
X101709500Y-105526785D01*
X101724364Y-105696687D01*
X101724366Y-105696697D01*
X101783258Y-105916488D01*
X101783261Y-105916497D01*
X101879431Y-106122732D01*
X101879432Y-106122734D01*
X102009954Y-106309141D01*
X102170858Y-106470045D01*
X102170861Y-106470047D01*
X102357266Y-106600568D01*
X102415275Y-106627618D01*
X102467714Y-106673791D01*
X102486866Y-106740984D01*
X102466650Y-106807865D01*
X102415275Y-106852382D01*
X102357267Y-106879431D01*
X102357265Y-106879432D01*
X102170858Y-107009954D01*
X102009954Y-107170858D01*
X101879432Y-107357265D01*
X101879431Y-107357267D01*
X101783261Y-107563502D01*
X101783258Y-107563511D01*
X101724366Y-107783302D01*
X101724364Y-107783312D01*
X101709500Y-107953214D01*
X101709500Y-108066785D01*
X101724364Y-108236687D01*
X101724366Y-108236697D01*
X101783258Y-108456488D01*
X101783261Y-108456497D01*
X101879431Y-108662732D01*
X101879432Y-108662734D01*
X102009954Y-108849141D01*
X102170858Y-109010045D01*
X102170861Y-109010047D01*
X102357266Y-109140568D01*
X102409219Y-109164794D01*
X102461659Y-109210966D01*
X102480811Y-109278159D01*
X102460596Y-109345041D01*
X102415269Y-109386534D01*
X102350499Y-109421155D01*
X102350478Y-109421167D01*
X102219469Y-109508704D01*
X102219463Y-109508708D01*
X102142935Y-109571514D01*
X102031514Y-109682935D01*
X101968708Y-109759463D01*
X101968704Y-109759469D01*
X101881167Y-109890478D01*
X101881155Y-109890498D01*
X101834490Y-109977801D01*
X101774185Y-110123387D01*
X101745443Y-110218139D01*
X101745440Y-110218150D01*
X101729160Y-110299999D01*
X101729161Y-110300000D01*
X104176988Y-110300000D01*
X104144075Y-110357007D01*
X104110000Y-110484174D01*
X104110000Y-110615826D01*
X104144075Y-110742993D01*
X104176988Y-110800000D01*
X101729160Y-110800000D01*
X101745440Y-110881849D01*
X101745443Y-110881860D01*
X101774185Y-110976612D01*
X101834490Y-111122198D01*
X101881155Y-111209501D01*
X101881167Y-111209521D01*
X101968704Y-111340530D01*
X101968708Y-111340536D01*
X102031514Y-111417064D01*
X102142935Y-111528485D01*
X102219463Y-111591291D01*
X102219469Y-111591295D01*
X102350478Y-111678832D01*
X102350506Y-111678849D01*
X102415268Y-111713465D01*
X102465112Y-111762427D01*
X102480573Y-111830565D01*
X102456741Y-111896244D01*
X102409221Y-111935205D01*
X102357264Y-111959433D01*
X102170858Y-112089954D01*
X102009954Y-112250858D01*
X101879432Y-112437265D01*
X101879431Y-112437267D01*
X101783261Y-112643502D01*
X101783258Y-112643511D01*
X101724366Y-112863302D01*
X101724364Y-112863312D01*
X101709500Y-113033214D01*
X101709500Y-113146785D01*
X101724364Y-113316687D01*
X101724366Y-113316697D01*
X101783258Y-113536488D01*
X101783261Y-113536497D01*
X101879431Y-113742732D01*
X101879432Y-113742734D01*
X102009954Y-113929141D01*
X102170858Y-114090045D01*
X102170861Y-114090047D01*
X102357266Y-114220568D01*
X102415275Y-114247618D01*
X102467714Y-114293791D01*
X102486866Y-114360984D01*
X102466650Y-114427865D01*
X102415275Y-114472382D01*
X102357267Y-114499431D01*
X102357265Y-114499432D01*
X102170858Y-114629954D01*
X102009954Y-114790858D01*
X101879432Y-114977265D01*
X101879431Y-114977267D01*
X101783261Y-115183502D01*
X101783258Y-115183511D01*
X101724366Y-115403302D01*
X101724364Y-115403312D01*
X101709500Y-115573214D01*
X101709500Y-115686785D01*
X101724364Y-115856687D01*
X101724366Y-115856697D01*
X101783258Y-116076488D01*
X101783261Y-116076497D01*
X101879431Y-116282732D01*
X101879432Y-116282734D01*
X102009954Y-116469141D01*
X102170858Y-116630045D01*
X102172630Y-116631286D01*
X102357266Y-116760568D01*
X102563504Y-116856739D01*
X102783308Y-116915635D01*
X102953214Y-116930499D01*
X102953215Y-116930500D01*
X102953216Y-116930500D01*
X104712350Y-116930500D01*
X104712352Y-116930500D01*
X104764315Y-116922268D01*
X104772892Y-116921215D01*
X104836692Y-116915635D01*
X104874496Y-116905505D01*
X104887171Y-116902810D01*
X104914534Y-116898477D01*
X104976404Y-116878373D01*
X104982617Y-116876534D01*
X105056490Y-116856741D01*
X105056492Y-116856739D01*
X105056496Y-116856739D01*
X105080659Y-116845470D01*
X105094736Y-116839925D01*
X105109219Y-116835220D01*
X105178308Y-116800016D01*
X105182077Y-116798178D01*
X105262734Y-116760568D01*
X105274347Y-116752436D01*
X105289180Y-116743524D01*
X105291610Y-116742287D01*
X105364358Y-116689432D01*
X105366047Y-116688227D01*
X105449139Y-116630047D01*
X105610047Y-116469139D01*
X105668227Y-116386047D01*
X105669452Y-116384330D01*
X105669463Y-116384316D01*
X105722287Y-116311610D01*
X105723524Y-116309180D01*
X105732437Y-116294345D01*
X105740568Y-116282734D01*
X105778178Y-116202077D01*
X105780016Y-116198308D01*
X105815220Y-116129219D01*
X105819925Y-116114736D01*
X105825473Y-116100654D01*
X105836739Y-116076496D01*
X105836742Y-116076488D01*
X105856534Y-116002617D01*
X105858378Y-115996389D01*
X105858382Y-115996378D01*
X105878477Y-115934534D01*
X105882810Y-115907171D01*
X105885507Y-115894488D01*
X105895635Y-115856692D01*
X105901216Y-115792891D01*
X105902270Y-115784306D01*
X105910500Y-115732350D01*
X105910500Y-115527649D01*
X105902270Y-115475691D01*
X105901215Y-115467098D01*
X105898843Y-115439984D01*
X105895635Y-115403308D01*
X105885503Y-115365498D01*
X105882809Y-115352822D01*
X105878477Y-115325466D01*
X105858378Y-115263609D01*
X105856535Y-115257386D01*
X105836742Y-115183513D01*
X105836740Y-115183510D01*
X105836739Y-115183504D01*
X105825463Y-115159323D01*
X105819924Y-115145261D01*
X105815220Y-115130781D01*
X105780046Y-115061748D01*
X105778149Y-115057858D01*
X105740568Y-114977266D01*
X105732436Y-114965652D01*
X105723524Y-114950818D01*
X105722288Y-114948391D01*
X105722286Y-114948388D01*
X105669462Y-114875682D01*
X105668205Y-114873920D01*
X105610045Y-114790858D01*
X105449140Y-114629953D01*
X105366078Y-114571793D01*
X105365312Y-114570964D01*
X105364316Y-114570536D01*
X105291612Y-114517714D01*
X105289169Y-114516469D01*
X105288409Y-114515751D01*
X105287462Y-114515171D01*
X105287583Y-114514971D01*
X105283254Y-114510882D01*
X105274347Y-114507563D01*
X105262736Y-114499433D01*
X105262727Y-114499429D01*
X105204723Y-114472380D01*
X105152285Y-114426208D01*
X105133134Y-114359014D01*
X105153350Y-114292133D01*
X105204724Y-114247617D01*
X105262734Y-114220568D01*
X105274347Y-114212436D01*
X105289180Y-114203524D01*
X105291610Y-114202287D01*
X105364358Y-114149432D01*
X105366047Y-114148227D01*
X105449139Y-114090047D01*
X105610047Y-113929139D01*
X105668227Y-113846047D01*
X105669452Y-113844330D01*
X105669463Y-113844316D01*
X105722287Y-113771610D01*
X105723524Y-113769180D01*
X105732437Y-113754345D01*
X105740568Y-113742734D01*
X105778178Y-113662077D01*
X105780016Y-113658308D01*
X105815220Y-113589219D01*
X105819925Y-113574736D01*
X105825473Y-113560654D01*
X105836739Y-113536496D01*
X105836742Y-113536488D01*
X105856534Y-113462617D01*
X105858378Y-113456389D01*
X105858382Y-113456378D01*
X105878477Y-113394534D01*
X105882810Y-113367171D01*
X105885507Y-113354488D01*
X105895635Y-113316692D01*
X105901216Y-113252891D01*
X105902270Y-113244306D01*
X105907705Y-113210000D01*
X105910500Y-113192352D01*
X105910500Y-112987648D01*
X105902269Y-112935690D01*
X105901215Y-112927098D01*
X105895635Y-112863308D01*
X105889361Y-112839895D01*
X106400000Y-112839895D01*
X109912057Y-115567343D01*
X109952931Y-115624007D01*
X109960000Y-115665277D01*
X109960000Y-116999966D01*
X109960476Y-117043635D01*
X109960476Y-117043641D01*
X109968083Y-117130590D01*
X109983238Y-117216537D01*
X109983241Y-117216550D01*
X110005824Y-117300834D01*
X110005825Y-117300837D01*
X110035674Y-117382851D01*
X110035675Y-117382854D01*
X110035680Y-117382866D01*
X110072567Y-117461969D01*
X110116207Y-117537556D01*
X110116211Y-117537562D01*
X110116218Y-117537573D01*
X110166269Y-117609053D01*
X110206820Y-117657379D01*
X110222371Y-117675912D01*
X110284088Y-117737629D01*
X110311886Y-117760954D01*
X110350946Y-117793730D01*
X110422426Y-117843781D01*
X110422433Y-117843785D01*
X110422444Y-117843793D01*
X110498031Y-117887433D01*
X110577134Y-117924320D01*
X110659151Y-117954171D01*
X110659161Y-117954173D01*
X110659162Y-117954174D01*
X110659165Y-117954175D01*
X110678131Y-117959256D01*
X110743457Y-117976761D01*
X110829412Y-117991917D01*
X110916360Y-117999524D01*
X110960000Y-118000000D01*
X111003640Y-117999524D01*
X111090588Y-117991917D01*
X111176543Y-117976761D01*
X111260849Y-117954171D01*
X111342866Y-117924320D01*
X111421969Y-117887433D01*
X111497556Y-117843793D01*
X111569052Y-117793731D01*
X111635912Y-117737629D01*
X111697629Y-117675912D01*
X111753731Y-117609052D01*
X111793065Y-117552876D01*
X111847641Y-117509252D01*
X111894640Y-117500000D01*
X112565360Y-117500000D01*
X112632399Y-117519685D01*
X112666935Y-117552877D01*
X112706269Y-117609053D01*
X112746820Y-117657379D01*
X112762371Y-117675912D01*
X112824088Y-117737629D01*
X112851886Y-117760954D01*
X112890946Y-117793730D01*
X112962426Y-117843781D01*
X112962433Y-117843785D01*
X112962444Y-117843793D01*
X113038031Y-117887433D01*
X113117134Y-117924320D01*
X113199151Y-117954171D01*
X113199161Y-117954173D01*
X113199162Y-117954174D01*
X113199165Y-117954175D01*
X113218131Y-117959256D01*
X113283457Y-117976761D01*
X113369412Y-117991917D01*
X113456360Y-117999524D01*
X113500000Y-118000000D01*
X113543640Y-117999524D01*
X113630588Y-117991917D01*
X113716543Y-117976761D01*
X113800849Y-117954171D01*
X113882866Y-117924320D01*
X113961969Y-117887433D01*
X114037556Y-117843793D01*
X114109052Y-117793731D01*
X114175912Y-117737629D01*
X114237629Y-117675912D01*
X114293731Y-117609052D01*
X114333065Y-117552876D01*
X114387641Y-117509252D01*
X114434640Y-117500000D01*
X115105562Y-117500000D01*
X115172601Y-117519685D01*
X115207132Y-117552870D01*
X115246409Y-117608958D01*
X115246416Y-117608968D01*
X115302509Y-117675813D01*
X115302513Y-117675817D01*
X115302514Y-117675818D01*
X115364231Y-117737531D01*
X115431092Y-117793630D01*
X115502589Y-117843689D01*
X115578176Y-117887326D01*
X115657279Y-117924209D01*
X115657289Y-117924212D01*
X115657292Y-117924214D01*
X115739278Y-117954051D01*
X115739281Y-117954052D01*
X115739295Y-117954057D01*
X115823601Y-117976643D01*
X115909555Y-117991795D01*
X115909558Y-117991795D01*
X115909561Y-117991796D01*
X115996477Y-117999397D01*
X115996487Y-117999397D01*
X115996502Y-117999399D01*
X116040141Y-117999925D01*
X116083780Y-117999448D01*
X116170727Y-117991837D01*
X116256679Y-117976679D01*
X116340983Y-117954087D01*
X116422998Y-117924233D01*
X116502099Y-117887346D01*
X116577684Y-117843705D01*
X116618648Y-117815020D01*
X116649155Y-117793659D01*
X116649162Y-117793653D01*
X116649177Y-117793643D01*
X116716036Y-117737540D01*
X116777751Y-117675824D01*
X116833853Y-117608965D01*
X116883914Y-117537470D01*
X116927553Y-117461884D01*
X116964440Y-117382783D01*
X116994292Y-117300768D01*
X117016882Y-117216464D01*
X117032040Y-117130511D01*
X117039648Y-117043564D01*
X117040141Y-116999925D01*
X117040141Y-115665168D01*
X117059826Y-115598129D01*
X117088082Y-115567235D01*
X120600000Y-112839895D01*
X120600000Y-111189785D01*
X121085000Y-111189785D01*
X121087893Y-111243762D01*
X121087893Y-111243764D01*
X121123438Y-111383030D01*
X121123440Y-111383037D01*
X121146863Y-111439583D01*
X121786447Y-110800000D01*
X121085000Y-110800000D01*
X121085000Y-111189785D01*
X120600000Y-111189785D01*
X120600000Y-109910219D01*
X121085000Y-109910219D01*
X121085000Y-110300000D01*
X121786447Y-110300000D01*
X121786447Y-110299999D01*
X121146862Y-109660415D01*
X121123449Y-109716940D01*
X121105455Y-109767946D01*
X121085000Y-109910219D01*
X120600000Y-109910219D01*
X120600000Y-108500000D01*
X106400000Y-108500000D01*
X106400000Y-112839895D01*
X105889361Y-112839895D01*
X105885503Y-112825498D01*
X105882809Y-112812822D01*
X105878477Y-112785466D01*
X105858378Y-112723609D01*
X105856535Y-112717386D01*
X105836742Y-112643513D01*
X105836740Y-112643510D01*
X105836739Y-112643504D01*
X105825463Y-112619323D01*
X105819924Y-112605261D01*
X105815220Y-112590781D01*
X105780046Y-112521748D01*
X105778149Y-112517858D01*
X105740568Y-112437266D01*
X105732436Y-112425652D01*
X105723524Y-112410818D01*
X105722288Y-112408391D01*
X105722286Y-112408388D01*
X105669462Y-112335682D01*
X105668205Y-112333920D01*
X105610045Y-112250858D01*
X105449143Y-112089956D01*
X105442536Y-112085330D01*
X105382620Y-112043376D01*
X105338996Y-111988799D01*
X105331803Y-111919300D01*
X105363325Y-111856946D01*
X105423082Y-111821652D01*
X105443025Y-111816562D01*
X105443035Y-111816559D01*
X105499582Y-111793135D01*
X104739409Y-111032962D01*
X104802993Y-111015925D01*
X104917007Y-110950099D01*
X105010099Y-110857007D01*
X105043012Y-110800000D01*
X105213552Y-110800000D01*
X105853135Y-111439582D01*
X105853137Y-111439582D01*
X105876552Y-111383053D01*
X105894544Y-111332053D01*
X105914999Y-111189780D01*
X105915000Y-111189779D01*
X105915000Y-110800000D01*
X105213552Y-110800000D01*
X105043012Y-110800000D01*
X105075925Y-110742993D01*
X105110000Y-110615826D01*
X105110000Y-110484174D01*
X105075925Y-110357007D01*
X105043011Y-110299999D01*
X105213552Y-110299999D01*
X105213553Y-110300000D01*
X105915000Y-110300000D01*
X105915000Y-109910214D01*
X105912106Y-109856237D01*
X105912106Y-109856235D01*
X105876558Y-109716960D01*
X105853136Y-109660415D01*
X105853135Y-109660415D01*
X105213552Y-110299999D01*
X105043011Y-110299999D01*
X105010099Y-110242993D01*
X104917007Y-110149901D01*
X104802993Y-110084075D01*
X104739409Y-110067037D01*
X105499583Y-109306863D01*
X105499583Y-109306862D01*
X105443052Y-109283447D01*
X105443024Y-109283436D01*
X105414834Y-109273491D01*
X105358163Y-109232624D01*
X105332582Y-109167605D01*
X105346214Y-109099078D01*
X105384965Y-109054980D01*
X105449139Y-109010047D01*
X105610047Y-108849139D01*
X105668227Y-108766047D01*
X105669452Y-108764330D01*
X105669463Y-108764316D01*
X105722287Y-108691610D01*
X105723524Y-108689180D01*
X105732437Y-108674345D01*
X105740568Y-108662734D01*
X105779067Y-108580172D01*
X105815220Y-108509219D01*
X105822266Y-108487532D01*
X105836739Y-108456496D01*
X105856539Y-108382600D01*
X105858378Y-108376389D01*
X105858382Y-108376378D01*
X105878477Y-108314534D01*
X105882810Y-108287171D01*
X105885507Y-108274488D01*
X105895635Y-108236692D01*
X105901216Y-108172891D01*
X105902270Y-108164306D01*
X105910500Y-108112350D01*
X105910500Y-107907649D01*
X105902270Y-107855691D01*
X105901215Y-107847098D01*
X105895635Y-107783308D01*
X105885503Y-107745498D01*
X105882809Y-107732822D01*
X105878477Y-107705466D01*
X105858378Y-107643609D01*
X105856535Y-107637386D01*
X105836742Y-107563513D01*
X105836740Y-107563510D01*
X105836739Y-107563504D01*
X105825463Y-107539323D01*
X105819924Y-107525261D01*
X105815220Y-107510781D01*
X105780046Y-107441748D01*
X105778149Y-107437858D01*
X105740568Y-107357266D01*
X105732436Y-107345652D01*
X105723524Y-107330818D01*
X105722288Y-107328391D01*
X105722286Y-107328388D01*
X105669462Y-107255682D01*
X105668205Y-107253920D01*
X105610045Y-107170858D01*
X105449140Y-107009953D01*
X105366078Y-106951793D01*
X105365312Y-106950964D01*
X105364316Y-106950536D01*
X105291612Y-106897714D01*
X105289169Y-106896469D01*
X105288409Y-106895751D01*
X105287462Y-106895171D01*
X105287583Y-106894971D01*
X105283254Y-106890882D01*
X105274347Y-106887563D01*
X105262736Y-106879433D01*
X105262727Y-106879429D01*
X105204723Y-106852380D01*
X105152285Y-106806208D01*
X105133134Y-106739014D01*
X105153350Y-106672133D01*
X105204724Y-106627617D01*
X105262734Y-106600568D01*
X105274347Y-106592436D01*
X105289180Y-106583524D01*
X105291610Y-106582287D01*
X105364358Y-106529432D01*
X105366047Y-106528227D01*
X105449139Y-106470047D01*
X105610047Y-106309139D01*
X105668227Y-106226047D01*
X105669452Y-106224330D01*
X105669463Y-106224316D01*
X105722287Y-106151610D01*
X105723524Y-106149180D01*
X105732437Y-106134345D01*
X105740568Y-106122734D01*
X105778178Y-106042077D01*
X105780016Y-106038308D01*
X105815220Y-105969219D01*
X105819925Y-105954736D01*
X105825473Y-105940654D01*
X105836739Y-105916496D01*
X105836742Y-105916488D01*
X105856534Y-105842617D01*
X105858378Y-105836389D01*
X105858382Y-105836378D01*
X105878477Y-105774534D01*
X105882810Y-105747171D01*
X105885507Y-105734488D01*
X105895635Y-105696692D01*
X105901216Y-105632891D01*
X105902270Y-105624306D01*
X105910500Y-105572350D01*
X105910500Y-105367649D01*
X105902270Y-105315691D01*
X105901215Y-105307098D01*
X105895635Y-105243308D01*
X105885503Y-105205498D01*
X105882809Y-105192822D01*
X105878477Y-105165466D01*
X105858378Y-105103609D01*
X105856535Y-105097386D01*
X105836742Y-105023513D01*
X105836740Y-105023510D01*
X105836739Y-105023504D01*
X105825463Y-104999323D01*
X105819924Y-104985261D01*
X105815220Y-104970781D01*
X105780046Y-104901748D01*
X105778149Y-104897858D01*
X105740568Y-104817266D01*
X105732436Y-104805652D01*
X105723524Y-104790818D01*
X105722288Y-104788391D01*
X105722286Y-104788388D01*
X105669462Y-104715682D01*
X105668205Y-104713920D01*
X105610045Y-104630858D01*
X105449140Y-104469953D01*
X105366078Y-104411793D01*
X105365312Y-104410964D01*
X105364316Y-104410536D01*
X105291612Y-104357714D01*
X105289169Y-104356469D01*
X105288409Y-104355751D01*
X105287462Y-104355171D01*
X105287583Y-104354971D01*
X105283254Y-104350882D01*
X105274347Y-104347563D01*
X105262736Y-104339433D01*
X105262727Y-104339429D01*
X105204723Y-104312380D01*
X105152285Y-104266208D01*
X105133134Y-104199014D01*
X105153350Y-104132133D01*
X105204724Y-104087617D01*
X105262734Y-104060568D01*
X105274347Y-104052436D01*
X105289180Y-104043524D01*
X105291610Y-104042287D01*
X105364358Y-103989432D01*
X105366047Y-103988227D01*
X105449139Y-103930047D01*
X105610047Y-103769139D01*
X105668227Y-103686047D01*
X105669452Y-103684330D01*
X105669463Y-103684316D01*
X105722287Y-103611610D01*
X105723524Y-103609180D01*
X105732437Y-103594345D01*
X105740568Y-103582734D01*
X105778178Y-103502077D01*
X105780016Y-103498308D01*
X105815220Y-103429219D01*
X105819925Y-103414736D01*
X105825473Y-103400654D01*
X105836739Y-103376496D01*
X105836742Y-103376488D01*
X105856534Y-103302617D01*
X105858378Y-103296389D01*
X105858382Y-103296378D01*
X105878477Y-103234534D01*
X105882810Y-103207171D01*
X105885507Y-103194488D01*
X105895635Y-103156692D01*
X105901216Y-103092891D01*
X105902270Y-103084306D01*
X105910500Y-103032350D01*
X105910500Y-102827649D01*
X105902270Y-102775691D01*
X105901215Y-102767098D01*
X105895635Y-102703308D01*
X105885503Y-102665498D01*
X105882809Y-102652822D01*
X105878477Y-102625466D01*
X105858378Y-102563609D01*
X105856535Y-102557386D01*
X105836742Y-102483513D01*
X105836740Y-102483510D01*
X105836739Y-102483504D01*
X105825463Y-102459323D01*
X105819924Y-102445261D01*
X105815220Y-102430781D01*
X105780046Y-102361748D01*
X105778149Y-102357858D01*
X105740568Y-102277266D01*
X105732436Y-102265652D01*
X105723524Y-102250818D01*
X105722288Y-102248391D01*
X105722286Y-102248388D01*
X105669462Y-102175682D01*
X105668205Y-102173920D01*
X105610045Y-102090858D01*
X105449140Y-101929953D01*
X105366078Y-101871793D01*
X105365312Y-101870964D01*
X105364316Y-101870536D01*
X105291612Y-101817714D01*
X105289169Y-101816469D01*
X105288409Y-101815751D01*
X105287462Y-101815171D01*
X105287583Y-101814971D01*
X105283254Y-101810882D01*
X105274347Y-101807563D01*
X105262736Y-101799433D01*
X105262727Y-101799429D01*
X105204723Y-101772380D01*
X105152285Y-101726208D01*
X105133134Y-101659014D01*
X105153350Y-101592133D01*
X105204724Y-101547617D01*
X105262734Y-101520568D01*
X105274347Y-101512436D01*
X105289180Y-101503524D01*
X105291610Y-101502287D01*
X105364358Y-101449432D01*
X105366047Y-101448227D01*
X105449139Y-101390047D01*
X105610047Y-101229139D01*
X105668227Y-101146047D01*
X105669452Y-101144330D01*
X105669463Y-101144316D01*
X105722287Y-101071610D01*
X105723524Y-101069180D01*
X105732437Y-101054345D01*
X105740568Y-101042734D01*
X105778178Y-100962077D01*
X105780016Y-100958308D01*
X105815220Y-100889219D01*
X105819925Y-100874736D01*
X105825473Y-100860654D01*
X105836739Y-100836496D01*
X105836742Y-100836488D01*
X105856534Y-100762617D01*
X105858378Y-100756389D01*
X105858382Y-100756378D01*
X105878477Y-100694534D01*
X105882810Y-100667171D01*
X105885507Y-100654488D01*
X105895635Y-100616692D01*
X105901216Y-100552891D01*
X105902270Y-100544306D01*
X105910500Y-100492350D01*
X105910500Y-100291827D01*
X105910500Y-100287648D01*
X105902155Y-100234967D01*
X105902057Y-100234297D01*
X105902079Y-100234138D01*
X105901215Y-100227098D01*
X105895635Y-100163308D01*
X105885503Y-100125498D01*
X105882809Y-100112822D01*
X105878477Y-100085466D01*
X105858378Y-100023609D01*
X105856535Y-100017386D01*
X105836742Y-99943513D01*
X105836740Y-99943510D01*
X105836739Y-99943504D01*
X105825463Y-99919323D01*
X105819924Y-99905261D01*
X105815220Y-99890781D01*
X105780046Y-99821748D01*
X105778149Y-99817858D01*
X105740568Y-99737266D01*
X105732436Y-99725652D01*
X105723524Y-99710818D01*
X105722288Y-99708391D01*
X105722286Y-99708388D01*
X105669462Y-99635682D01*
X105668205Y-99633920D01*
X105610045Y-99550858D01*
X105449143Y-99389956D01*
X105382620Y-99343376D01*
X105338996Y-99288799D01*
X105331803Y-99219300D01*
X105363325Y-99156946D01*
X105423082Y-99121652D01*
X105443025Y-99116562D01*
X105443035Y-99116559D01*
X105499582Y-99093135D01*
X104739409Y-98332962D01*
X104802993Y-98315925D01*
X104917007Y-98250099D01*
X105010099Y-98157007D01*
X105043012Y-98100000D01*
X105213552Y-98100000D01*
X105853135Y-98739582D01*
X105853137Y-98739582D01*
X105876552Y-98683053D01*
X105894544Y-98632053D01*
X105914998Y-98489785D01*
X121085000Y-98489785D01*
X121087893Y-98543762D01*
X121087893Y-98543764D01*
X121123438Y-98683030D01*
X121123440Y-98683037D01*
X121146863Y-98739583D01*
X121786447Y-98100000D01*
X121085000Y-98100000D01*
X121085000Y-98489785D01*
X105914998Y-98489785D01*
X105914999Y-98489780D01*
X105915000Y-98489779D01*
X105915000Y-98100000D01*
X105213552Y-98100000D01*
X105043012Y-98100000D01*
X105075925Y-98042993D01*
X105110000Y-97915826D01*
X105110000Y-97784174D01*
X105075925Y-97657007D01*
X105043011Y-97599999D01*
X105213552Y-97599999D01*
X105213553Y-97600000D01*
X105915000Y-97600000D01*
X105915000Y-97210214D01*
X105912106Y-97156237D01*
X105912106Y-97156235D01*
X105876558Y-97016960D01*
X105853136Y-96960415D01*
X105853135Y-96960415D01*
X105213552Y-97599999D01*
X105043011Y-97599999D01*
X105010099Y-97542993D01*
X104917007Y-97449901D01*
X104802993Y-97384075D01*
X104739409Y-97367037D01*
X105499583Y-96606863D01*
X105499583Y-96606862D01*
X105443052Y-96583447D01*
X105443024Y-96583436D01*
X105414834Y-96573491D01*
X105404998Y-96566398D01*
X105393237Y-96563446D01*
X105377186Y-96546342D01*
X105358163Y-96532624D01*
X105353723Y-96521339D01*
X105345425Y-96512497D01*
X105341169Y-96489431D01*
X105332582Y-96467605D01*
X105334948Y-96455711D01*
X105332748Y-96443787D01*
X105341637Y-96422083D01*
X105343524Y-96412600D01*
X113096700Y-96412600D01*
X113096700Y-97987400D01*
X113098622Y-98026800D01*
X113113700Y-98063201D01*
X113128778Y-98099603D01*
X113184496Y-98155321D01*
X113184497Y-98155321D01*
X113184498Y-98155322D01*
X113257300Y-98185478D01*
X113296700Y-98187400D01*
X113296715Y-98187400D01*
X114871485Y-98187400D01*
X114871500Y-98187400D01*
X114910900Y-98185478D01*
X114983702Y-98155323D01*
X115039423Y-98099602D01*
X115069578Y-98026800D01*
X115071500Y-97987400D01*
X115071500Y-97186146D01*
X115632019Y-97186146D01*
X115632019Y-97186153D01*
X115648221Y-97379101D01*
X115648222Y-97379107D01*
X115701596Y-97565245D01*
X115790108Y-97737471D01*
X115910387Y-97889225D01*
X116057851Y-98014726D01*
X116057854Y-98014728D01*
X116057857Y-98014730D01*
X116108428Y-98042993D01*
X116226882Y-98109195D01*
X116411044Y-98169033D01*
X116603321Y-98191960D01*
X116796390Y-98177105D01*
X116982896Y-98125031D01*
X117155736Y-98037724D01*
X117308325Y-97918507D01*
X117434853Y-97771923D01*
X117530500Y-97603555D01*
X117591622Y-97419816D01*
X117615891Y-97227703D01*
X117616278Y-97200000D01*
X117614920Y-97186146D01*
X118172019Y-97186146D01*
X118172019Y-97186153D01*
X118188221Y-97379101D01*
X118188222Y-97379107D01*
X118241596Y-97565245D01*
X118330108Y-97737471D01*
X118450387Y-97889225D01*
X118597851Y-98014726D01*
X118597854Y-98014728D01*
X118597857Y-98014730D01*
X118648428Y-98042993D01*
X118766882Y-98109195D01*
X118951044Y-98169033D01*
X119143321Y-98191960D01*
X119336390Y-98177105D01*
X119522896Y-98125031D01*
X119695736Y-98037724D01*
X119848325Y-97918507D01*
X119974853Y-97771923D01*
X120070500Y-97603555D01*
X120131622Y-97419816D01*
X120155891Y-97227703D01*
X120156135Y-97210219D01*
X121085000Y-97210219D01*
X121085000Y-97600000D01*
X121786447Y-97600000D01*
X121786447Y-97599999D01*
X121146862Y-96960415D01*
X121123449Y-97016940D01*
X121105455Y-97067946D01*
X121085000Y-97210219D01*
X120156135Y-97210219D01*
X120156278Y-97200000D01*
X120137382Y-97007285D01*
X120081414Y-96821910D01*
X120081413Y-96821908D01*
X120081413Y-96821907D01*
X120014278Y-96695646D01*
X119990506Y-96650937D01*
X119868120Y-96500877D01*
X119718919Y-96377447D01*
X119548584Y-96285348D01*
X119548583Y-96285347D01*
X119548580Y-96285346D01*
X119363609Y-96228087D01*
X119171029Y-96207846D01*
X119171027Y-96207846D01*
X119097670Y-96214522D01*
X118978182Y-96225396D01*
X118792426Y-96280067D01*
X118792422Y-96280069D01*
X118620831Y-96369773D01*
X118620819Y-96369781D01*
X118469910Y-96491115D01*
X118469909Y-96491116D01*
X118345444Y-96639446D01*
X118345442Y-96639449D01*
X118252154Y-96809139D01*
X118193602Y-96993718D01*
X118193602Y-96993719D01*
X118172019Y-97186146D01*
X117614920Y-97186146D01*
X117597382Y-97007285D01*
X117541414Y-96821910D01*
X117541413Y-96821908D01*
X117541413Y-96821907D01*
X117474278Y-96695646D01*
X117450506Y-96650937D01*
X117328120Y-96500877D01*
X117178919Y-96377447D01*
X117008584Y-96285348D01*
X117008583Y-96285347D01*
X117008580Y-96285346D01*
X116823609Y-96228087D01*
X116631029Y-96207846D01*
X116631027Y-96207846D01*
X116557670Y-96214522D01*
X116438182Y-96225396D01*
X116252426Y-96280067D01*
X116252422Y-96280069D01*
X116080831Y-96369773D01*
X116080819Y-96369781D01*
X115929910Y-96491115D01*
X115929909Y-96491116D01*
X115805444Y-96639446D01*
X115805442Y-96639449D01*
X115712154Y-96809139D01*
X115653602Y-96993718D01*
X115653602Y-96993719D01*
X115632019Y-97186146D01*
X115071500Y-97186146D01*
X115071500Y-96412600D01*
X115069578Y-96373200D01*
X115039423Y-96300398D01*
X114983702Y-96244677D01*
X114983698Y-96244675D01*
X114983696Y-96244674D01*
X114910901Y-96214522D01*
X114910903Y-96214522D01*
X114902457Y-96214110D01*
X114871500Y-96212600D01*
X114084100Y-96212600D01*
X113296700Y-96212600D01*
X113257300Y-96214522D01*
X113184496Y-96244678D01*
X113184495Y-96244680D01*
X113128780Y-96300395D01*
X113128778Y-96300396D01*
X113100038Y-96369781D01*
X113098622Y-96373200D01*
X113096700Y-96412600D01*
X105343524Y-96412600D01*
X105346214Y-96399078D01*
X105355291Y-96388748D01*
X105359231Y-96379130D01*
X105384968Y-96354979D01*
X105449139Y-96310047D01*
X105610044Y-96149142D01*
X105610045Y-96149141D01*
X105610047Y-96149139D01*
X105668227Y-96066047D01*
X105669452Y-96064330D01*
X105669463Y-96064316D01*
X105722287Y-95991610D01*
X105723524Y-95989180D01*
X105732437Y-95974345D01*
X105740568Y-95962734D01*
X105778178Y-95882077D01*
X105780016Y-95878308D01*
X105815220Y-95809219D01*
X105819925Y-95794736D01*
X105825473Y-95780654D01*
X105836739Y-95756496D01*
X105836742Y-95756488D01*
X105856534Y-95682617D01*
X105858378Y-95676389D01*
X105858382Y-95676378D01*
X105878477Y-95614534D01*
X105882810Y-95587171D01*
X105885507Y-95574488D01*
X105895635Y-95536692D01*
X105901216Y-95472891D01*
X105902270Y-95464306D01*
X105906122Y-95439993D01*
X105910500Y-95412352D01*
X105910500Y-95207648D01*
X105902269Y-95155690D01*
X105901215Y-95147098D01*
X105895635Y-95083308D01*
X105885503Y-95045498D01*
X105882809Y-95032822D01*
X105878477Y-95005466D01*
X105858378Y-94943609D01*
X105856535Y-94937386D01*
X105836742Y-94863513D01*
X105836740Y-94863510D01*
X105836739Y-94863504D01*
X105825463Y-94839323D01*
X105819924Y-94825261D01*
X105815220Y-94810781D01*
X105780046Y-94741748D01*
X105778149Y-94737858D01*
X105740568Y-94657266D01*
X105732436Y-94645652D01*
X105723524Y-94630818D01*
X105722288Y-94628391D01*
X105722286Y-94628388D01*
X105669462Y-94555682D01*
X105668205Y-94553920D01*
X105610045Y-94470858D01*
X105449140Y-94309953D01*
X105366078Y-94251793D01*
X105365312Y-94250964D01*
X105364316Y-94250536D01*
X105291612Y-94197714D01*
X105289169Y-94196469D01*
X105288409Y-94195751D01*
X105287462Y-94195171D01*
X105287583Y-94194971D01*
X105283254Y-94190882D01*
X105274347Y-94187563D01*
X105262736Y-94179433D01*
X105262727Y-94179429D01*
X105204723Y-94152380D01*
X105152285Y-94106208D01*
X105133134Y-94039014D01*
X105153350Y-93972133D01*
X105204724Y-93927617D01*
X105262734Y-93900568D01*
X105274347Y-93892436D01*
X105289180Y-93883524D01*
X105291610Y-93882287D01*
X105364358Y-93829432D01*
X105366047Y-93828227D01*
X105449139Y-93770047D01*
X105610047Y-93609139D01*
X105668227Y-93526047D01*
X105669452Y-93524330D01*
X105669463Y-93524316D01*
X105722287Y-93451610D01*
X105723524Y-93449180D01*
X105732437Y-93434345D01*
X105740568Y-93422734D01*
X105778178Y-93342077D01*
X105780016Y-93338308D01*
X105815220Y-93269219D01*
X105819925Y-93254736D01*
X105825473Y-93240654D01*
X105836739Y-93216496D01*
X105836742Y-93216488D01*
X105856534Y-93142617D01*
X105858378Y-93136389D01*
X105862156Y-93124762D01*
X105878477Y-93074534D01*
X105882810Y-93047171D01*
X105885507Y-93034488D01*
X105895635Y-92996692D01*
X105901216Y-92932891D01*
X105902270Y-92924306D01*
X105910500Y-92872350D01*
X105910500Y-92667649D01*
X105902270Y-92615691D01*
X105901215Y-92607098D01*
X105899363Y-92585928D01*
X105895635Y-92543308D01*
X105885503Y-92505498D01*
X105882809Y-92492822D01*
X105878477Y-92465466D01*
X105858378Y-92403609D01*
X105856535Y-92397386D01*
X105836742Y-92323513D01*
X105836740Y-92323510D01*
X105836739Y-92323504D01*
X105825463Y-92299323D01*
X105819924Y-92285261D01*
X105815220Y-92270781D01*
X105815216Y-92270774D01*
X105780046Y-92201748D01*
X105778149Y-92197858D01*
X105740568Y-92117266D01*
X105732436Y-92105652D01*
X105723524Y-92090818D01*
X105722288Y-92088391D01*
X105722286Y-92088388D01*
X105669462Y-92015682D01*
X105668205Y-92013920D01*
X105610045Y-91930858D01*
X105449140Y-91769953D01*
X105366078Y-91711793D01*
X105365312Y-91710964D01*
X105364316Y-91710536D01*
X105291612Y-91657714D01*
X105289169Y-91656469D01*
X105288409Y-91655751D01*
X105287462Y-91655171D01*
X105287583Y-91654971D01*
X105283254Y-91650882D01*
X105274347Y-91647563D01*
X105262736Y-91639433D01*
X105262727Y-91639429D01*
X105204723Y-91612380D01*
X105152285Y-91566208D01*
X105133134Y-91499014D01*
X105153350Y-91432133D01*
X105204724Y-91387617D01*
X105262734Y-91360568D01*
X105274347Y-91352436D01*
X105289180Y-91343524D01*
X105291610Y-91342287D01*
X105364358Y-91289432D01*
X105366047Y-91288227D01*
X105449139Y-91230047D01*
X105610047Y-91069139D01*
X105668227Y-90986047D01*
X105669452Y-90984330D01*
X105669463Y-90984316D01*
X105722287Y-90911610D01*
X105723524Y-90909180D01*
X105732437Y-90894345D01*
X105740568Y-90882734D01*
X105778178Y-90802077D01*
X105780016Y-90798308D01*
X105815220Y-90729219D01*
X105819925Y-90714736D01*
X105825473Y-90700654D01*
X105836739Y-90676496D01*
X105836742Y-90676488D01*
X105856534Y-90602617D01*
X105858378Y-90596389D01*
X105858382Y-90596378D01*
X105878477Y-90534534D01*
X105882810Y-90507171D01*
X105885507Y-90494488D01*
X105895635Y-90456692D01*
X105901216Y-90392891D01*
X105902270Y-90384306D01*
X105910500Y-90332350D01*
X105910500Y-90127649D01*
X105902270Y-90075691D01*
X105901215Y-90067098D01*
X105899366Y-90045961D01*
X105895635Y-90003308D01*
X105885503Y-89965498D01*
X105882809Y-89952822D01*
X105878477Y-89925466D01*
X105858378Y-89863609D01*
X105856535Y-89857386D01*
X105836742Y-89783513D01*
X105836740Y-89783510D01*
X105836739Y-89783504D01*
X105825463Y-89759323D01*
X105819924Y-89745261D01*
X105815220Y-89730781D01*
X105780046Y-89661748D01*
X105778149Y-89657858D01*
X105740568Y-89577266D01*
X105732436Y-89565652D01*
X105723524Y-89550818D01*
X105722288Y-89548391D01*
X105722286Y-89548388D01*
X105669462Y-89475682D01*
X105668205Y-89473920D01*
X105610045Y-89390858D01*
X105449140Y-89229953D01*
X105366078Y-89171793D01*
X105365312Y-89170964D01*
X105364316Y-89170536D01*
X105291612Y-89117714D01*
X105289169Y-89116469D01*
X105288409Y-89115751D01*
X105287462Y-89115171D01*
X105287583Y-89114971D01*
X105283254Y-89110882D01*
X105274347Y-89107563D01*
X105262736Y-89099433D01*
X105262727Y-89099429D01*
X105204723Y-89072380D01*
X105152285Y-89026208D01*
X105133134Y-88959014D01*
X105153350Y-88892133D01*
X105204724Y-88847617D01*
X105262734Y-88820568D01*
X105274347Y-88812436D01*
X105289180Y-88803524D01*
X105291610Y-88802287D01*
X105364358Y-88749432D01*
X105366047Y-88748227D01*
X105449139Y-88690047D01*
X105610047Y-88529139D01*
X105668227Y-88446047D01*
X105669452Y-88444330D01*
X105669463Y-88444316D01*
X105722287Y-88371610D01*
X105723524Y-88369180D01*
X105732437Y-88354345D01*
X105740568Y-88342734D01*
X105778178Y-88262077D01*
X105780016Y-88258308D01*
X105815220Y-88189219D01*
X105819925Y-88174736D01*
X105825473Y-88160654D01*
X105836739Y-88136496D01*
X105836742Y-88136488D01*
X105856534Y-88062617D01*
X105858378Y-88056389D01*
X105858382Y-88056378D01*
X105878477Y-87994534D01*
X105882810Y-87967171D01*
X105885507Y-87954488D01*
X105895635Y-87916692D01*
X105901216Y-87852891D01*
X105902270Y-87844306D01*
X105910500Y-87792350D01*
X105910500Y-87587649D01*
X105902270Y-87535691D01*
X105901215Y-87527098D01*
X105895635Y-87463308D01*
X105885503Y-87425498D01*
X105882809Y-87412822D01*
X105878477Y-87385466D01*
X105858378Y-87323609D01*
X105856535Y-87317386D01*
X105836742Y-87243513D01*
X105836740Y-87243510D01*
X105836739Y-87243504D01*
X105825463Y-87219323D01*
X105819924Y-87205261D01*
X105815220Y-87190781D01*
X105780046Y-87121748D01*
X105778149Y-87117858D01*
X105740568Y-87037266D01*
X105732436Y-87025652D01*
X105723524Y-87010818D01*
X105722288Y-87008391D01*
X105722286Y-87008388D01*
X105669462Y-86935682D01*
X105668205Y-86933920D01*
X105610045Y-86850858D01*
X105449143Y-86689956D01*
X105382620Y-86643376D01*
X105338996Y-86588799D01*
X105331803Y-86519300D01*
X105363325Y-86456946D01*
X105423082Y-86421652D01*
X105443025Y-86416562D01*
X105443035Y-86416559D01*
X105499582Y-86393135D01*
X105156446Y-86049999D01*
X113550000Y-86049999D01*
X113550000Y-86950000D01*
X113552138Y-87015541D01*
X113552138Y-87015544D01*
X113552139Y-87015545D01*
X113586068Y-87142167D01*
X113651612Y-87255694D01*
X113744306Y-87348388D01*
X113857833Y-87413932D01*
X113984455Y-87447861D01*
X114050000Y-87450000D01*
X114950000Y-87450000D01*
X115015545Y-87447861D01*
X115142167Y-87413933D01*
X115255694Y-87348388D01*
X115348388Y-87255694D01*
X115413933Y-87142167D01*
X115447861Y-87015545D01*
X115450000Y-86950000D01*
X115450000Y-86050000D01*
X115447861Y-85984455D01*
X115413933Y-85857833D01*
X115348388Y-85744306D01*
X115255694Y-85651612D01*
X115142167Y-85586067D01*
X115015545Y-85552139D01*
X114950000Y-85550000D01*
X114500000Y-85550000D01*
X114050000Y-85550000D01*
X113984458Y-85552138D01*
X113857832Y-85586068D01*
X113744307Y-85651611D01*
X113744304Y-85651613D01*
X113651613Y-85744304D01*
X113651611Y-85744307D01*
X113586068Y-85857832D01*
X113552138Y-85984458D01*
X113550000Y-86049999D01*
X105156446Y-86049999D01*
X104739409Y-85632962D01*
X104802993Y-85615925D01*
X104917007Y-85550099D01*
X105010099Y-85457007D01*
X105043012Y-85400000D01*
X105213552Y-85400000D01*
X105853135Y-86039582D01*
X105853136Y-86039582D01*
X105869317Y-86000522D01*
X105869317Y-86000521D01*
X105876553Y-85983051D01*
X105894544Y-85932053D01*
X105914999Y-85789780D01*
X105915000Y-85789779D01*
X105915000Y-85400000D01*
X105213552Y-85400000D01*
X105043012Y-85400000D01*
X105075925Y-85342993D01*
X105110000Y-85215826D01*
X105110000Y-85084174D01*
X105075925Y-84957007D01*
X105043011Y-84899999D01*
X105213552Y-84899999D01*
X105213553Y-84900000D01*
X105915000Y-84900000D01*
X105915000Y-84510224D01*
X105915000Y-84510219D01*
X121084500Y-84510219D01*
X121084500Y-85789784D01*
X121087395Y-85843814D01*
X121087396Y-85843818D01*
X121122976Y-85983221D01*
X121122980Y-85983233D01*
X121153419Y-86056719D01*
X121153431Y-86056747D01*
X121176779Y-86105548D01*
X121176781Y-86105551D01*
X121263006Y-86220733D01*
X121263010Y-86220737D01*
X121263015Y-86220743D01*
X121319252Y-86276980D01*
X121319261Y-86276988D01*
X121319267Y-86276994D01*
X121321790Y-86279260D01*
X121359524Y-86313156D01*
X121359532Y-86313162D01*
X121483263Y-86386573D01*
X121483262Y-86386573D01*
X121490329Y-86389500D01*
X121556774Y-86417022D01*
X121569898Y-86421652D01*
X121584660Y-86426860D01*
X121641332Y-86467726D01*
X121666913Y-86532745D01*
X121653281Y-86601272D01*
X121614531Y-86645370D01*
X121550858Y-86689955D01*
X121389954Y-86850859D01*
X121331779Y-86933939D01*
X121330526Y-86935696D01*
X121277710Y-87008394D01*
X121277708Y-87008397D01*
X121276460Y-87010847D01*
X121267563Y-87025651D01*
X121259433Y-87037262D01*
X121221838Y-87117882D01*
X121219942Y-87121769D01*
X121184782Y-87190774D01*
X121180073Y-87205265D01*
X121174529Y-87219338D01*
X121163261Y-87243503D01*
X121163261Y-87243504D01*
X121143459Y-87317404D01*
X121141615Y-87323627D01*
X121121524Y-87385459D01*
X121121523Y-87385463D01*
X121117189Y-87412824D01*
X121114492Y-87425511D01*
X121104366Y-87463304D01*
X121104364Y-87463313D01*
X121098783Y-87527106D01*
X121097728Y-87535697D01*
X121089500Y-87587643D01*
X121089500Y-87792351D01*
X121097728Y-87844301D01*
X121098783Y-87852891D01*
X121104364Y-87916686D01*
X121104364Y-87916689D01*
X121104365Y-87916692D01*
X121104367Y-87916699D01*
X121114492Y-87954488D01*
X121117190Y-87967181D01*
X121121521Y-87994525D01*
X121121522Y-87994530D01*
X121141617Y-88056378D01*
X121143460Y-88062600D01*
X121163260Y-88136494D01*
X121174531Y-88160667D01*
X121180077Y-88174747D01*
X121184777Y-88189212D01*
X121184781Y-88189221D01*
X121219947Y-88258238D01*
X121221844Y-88262128D01*
X121259432Y-88342734D01*
X121267563Y-88354347D01*
X121276469Y-88369169D01*
X121277714Y-88371612D01*
X121277714Y-88371613D01*
X121330536Y-88444316D01*
X121331793Y-88446078D01*
X121389953Y-88529140D01*
X121550858Y-88690045D01*
X121633920Y-88748205D01*
X121634685Y-88749033D01*
X121635682Y-88749462D01*
X121708388Y-88802286D01*
X121708391Y-88802288D01*
X121710818Y-88803524D01*
X121711574Y-88804238D01*
X121712548Y-88804835D01*
X121712422Y-88805039D01*
X121716737Y-88809114D01*
X121725652Y-88812436D01*
X121737266Y-88820568D01*
X121737270Y-88820570D01*
X121795272Y-88847617D01*
X121847712Y-88893789D01*
X121866864Y-88960982D01*
X121846649Y-89027864D01*
X121795276Y-89072380D01*
X121750729Y-89093153D01*
X121737269Y-89099431D01*
X121737260Y-89099435D01*
X121725651Y-89107563D01*
X121710847Y-89116460D01*
X121708397Y-89117708D01*
X121708394Y-89117710D01*
X121635696Y-89170526D01*
X121633939Y-89171779D01*
X121550859Y-89229954D01*
X121389954Y-89390859D01*
X121331779Y-89473939D01*
X121330526Y-89475696D01*
X121277710Y-89548394D01*
X121277708Y-89548397D01*
X121276460Y-89550847D01*
X121267563Y-89565651D01*
X121259433Y-89577262D01*
X121221838Y-89657882D01*
X121219942Y-89661769D01*
X121184782Y-89730774D01*
X121180073Y-89745265D01*
X121174529Y-89759338D01*
X121163261Y-89783503D01*
X121163261Y-89783504D01*
X121143459Y-89857404D01*
X121141615Y-89863627D01*
X121121524Y-89925459D01*
X121121523Y-89925463D01*
X121117189Y-89952824D01*
X121114492Y-89965511D01*
X121104366Y-90003304D01*
X121104364Y-90003313D01*
X121098783Y-90067106D01*
X121097728Y-90075697D01*
X121089500Y-90127643D01*
X121089500Y-90332351D01*
X121097728Y-90384301D01*
X121098783Y-90392891D01*
X121104364Y-90456686D01*
X121104364Y-90456689D01*
X121104365Y-90456692D01*
X121104367Y-90456699D01*
X121114492Y-90494488D01*
X121117190Y-90507181D01*
X121121521Y-90534525D01*
X121121522Y-90534530D01*
X121141617Y-90596378D01*
X121143460Y-90602600D01*
X121163260Y-90676494D01*
X121174531Y-90700667D01*
X121180077Y-90714747D01*
X121184777Y-90729212D01*
X121184781Y-90729221D01*
X121219947Y-90798238D01*
X121221844Y-90802128D01*
X121259432Y-90882734D01*
X121267563Y-90894347D01*
X121276469Y-90909169D01*
X121277714Y-90911612D01*
X121277714Y-90911613D01*
X121330536Y-90984316D01*
X121331793Y-90986078D01*
X121389953Y-91069140D01*
X121550858Y-91230045D01*
X121633920Y-91288205D01*
X121634685Y-91289033D01*
X121635682Y-91289462D01*
X121708388Y-91342286D01*
X121708391Y-91342288D01*
X121710818Y-91343524D01*
X121711574Y-91344238D01*
X121712548Y-91344835D01*
X121712422Y-91345039D01*
X121716737Y-91349114D01*
X121725652Y-91352436D01*
X121737266Y-91360568D01*
X121737270Y-91360570D01*
X121795272Y-91387617D01*
X121847712Y-91433789D01*
X121866864Y-91500982D01*
X121846649Y-91567864D01*
X121795276Y-91612380D01*
X121750729Y-91633153D01*
X121737269Y-91639431D01*
X121737260Y-91639435D01*
X121725651Y-91647563D01*
X121710847Y-91656460D01*
X121708397Y-91657708D01*
X121708394Y-91657710D01*
X121635696Y-91710526D01*
X121633939Y-91711779D01*
X121550859Y-91769954D01*
X121389954Y-91930859D01*
X121331779Y-92013939D01*
X121330526Y-92015696D01*
X121277710Y-92088394D01*
X121277708Y-92088397D01*
X121276460Y-92090847D01*
X121267563Y-92105651D01*
X121259433Y-92117262D01*
X121221838Y-92197882D01*
X121219942Y-92201769D01*
X121184782Y-92270774D01*
X121180073Y-92285265D01*
X121174529Y-92299338D01*
X121163261Y-92323503D01*
X121163261Y-92323504D01*
X121143459Y-92397404D01*
X121141615Y-92403627D01*
X121121524Y-92465459D01*
X121121523Y-92465463D01*
X121117189Y-92492824D01*
X121114492Y-92505511D01*
X121104366Y-92543304D01*
X121104364Y-92543313D01*
X121098783Y-92607106D01*
X121097728Y-92615697D01*
X121089500Y-92667643D01*
X121089500Y-92872351D01*
X121097728Y-92924301D01*
X121098783Y-92932891D01*
X121104364Y-92996686D01*
X121104364Y-92996689D01*
X121104365Y-92996692D01*
X121104367Y-92996699D01*
X121114492Y-93034488D01*
X121117190Y-93047181D01*
X121121521Y-93074525D01*
X121121522Y-93074530D01*
X121141617Y-93136378D01*
X121143460Y-93142600D01*
X121163260Y-93216494D01*
X121174531Y-93240667D01*
X121180077Y-93254747D01*
X121184777Y-93269212D01*
X121184779Y-93269218D01*
X121184780Y-93269219D01*
X121199737Y-93298575D01*
X121219947Y-93338238D01*
X121221844Y-93342128D01*
X121259432Y-93422734D01*
X121267563Y-93434347D01*
X121276469Y-93449169D01*
X121277714Y-93451612D01*
X121277714Y-93451613D01*
X121330536Y-93524316D01*
X121331793Y-93526078D01*
X121389953Y-93609140D01*
X121550858Y-93770045D01*
X121633920Y-93828205D01*
X121634685Y-93829033D01*
X121635682Y-93829462D01*
X121708388Y-93882286D01*
X121708391Y-93882288D01*
X121710818Y-93883524D01*
X121711574Y-93884238D01*
X121712548Y-93884835D01*
X121712422Y-93885039D01*
X121716737Y-93889114D01*
X121725652Y-93892436D01*
X121737266Y-93900568D01*
X121737270Y-93900570D01*
X121795272Y-93927617D01*
X121847712Y-93973789D01*
X121866864Y-94040982D01*
X121846649Y-94107864D01*
X121795276Y-94152380D01*
X121750729Y-94173153D01*
X121737269Y-94179431D01*
X121737260Y-94179435D01*
X121725651Y-94187563D01*
X121710847Y-94196460D01*
X121708397Y-94197708D01*
X121708394Y-94197710D01*
X121635696Y-94250526D01*
X121633939Y-94251779D01*
X121550859Y-94309954D01*
X121389954Y-94470859D01*
X121331779Y-94553939D01*
X121330526Y-94555696D01*
X121277710Y-94628394D01*
X121277708Y-94628397D01*
X121276460Y-94630847D01*
X121267563Y-94645651D01*
X121259433Y-94657262D01*
X121221838Y-94737882D01*
X121219942Y-94741769D01*
X121184782Y-94810774D01*
X121180073Y-94825265D01*
X121174529Y-94839338D01*
X121163261Y-94863503D01*
X121163261Y-94863504D01*
X121143459Y-94937404D01*
X121141615Y-94943627D01*
X121121524Y-95005459D01*
X121121523Y-95005463D01*
X121117189Y-95032824D01*
X121114492Y-95045511D01*
X121104366Y-95083304D01*
X121104364Y-95083313D01*
X121098783Y-95147106D01*
X121097728Y-95155697D01*
X121089500Y-95207643D01*
X121089500Y-95207648D01*
X121089500Y-95412352D01*
X121093878Y-95439993D01*
X121097728Y-95464301D01*
X121098783Y-95472891D01*
X121104364Y-95536686D01*
X121104364Y-95536689D01*
X121104365Y-95536692D01*
X121104367Y-95536699D01*
X121114492Y-95574488D01*
X121117190Y-95587181D01*
X121121521Y-95614525D01*
X121121522Y-95614530D01*
X121141617Y-95676378D01*
X121143460Y-95682600D01*
X121163260Y-95756494D01*
X121174531Y-95780667D01*
X121180077Y-95794747D01*
X121184777Y-95809212D01*
X121184781Y-95809221D01*
X121219947Y-95878238D01*
X121221844Y-95882128D01*
X121259432Y-95962734D01*
X121267563Y-95974347D01*
X121276469Y-95989169D01*
X121277714Y-95991612D01*
X121277714Y-95991613D01*
X121330536Y-96064316D01*
X121331793Y-96066078D01*
X121389953Y-96149140D01*
X121550858Y-96310045D01*
X121617379Y-96356623D01*
X121661004Y-96411199D01*
X121668198Y-96480698D01*
X121636676Y-96543052D01*
X121576922Y-96578346D01*
X121556970Y-96583438D01*
X121556956Y-96583442D01*
X121500415Y-96606862D01*
X122260590Y-97367037D01*
X122197007Y-97384075D01*
X122082993Y-97449901D01*
X121989901Y-97542993D01*
X121924075Y-97657007D01*
X121890000Y-97784174D01*
X121890000Y-97915826D01*
X121924075Y-98042993D01*
X121989901Y-98157007D01*
X122082993Y-98250099D01*
X122197007Y-98315925D01*
X122260589Y-98332962D01*
X121500415Y-99093135D01*
X121500415Y-99093136D01*
X121556947Y-99116553D01*
X121585159Y-99126505D01*
X121641832Y-99167370D01*
X121667415Y-99232388D01*
X121653786Y-99300915D01*
X121615035Y-99345016D01*
X121550859Y-99389954D01*
X121389954Y-99550859D01*
X121331779Y-99633939D01*
X121330526Y-99635696D01*
X121277710Y-99708394D01*
X121277708Y-99708397D01*
X121276460Y-99710847D01*
X121267563Y-99725651D01*
X121259433Y-99737262D01*
X121221838Y-99817882D01*
X121219942Y-99821769D01*
X121184782Y-99890774D01*
X121180073Y-99905265D01*
X121174529Y-99919338D01*
X121163261Y-99943503D01*
X121163261Y-99943504D01*
X121143459Y-100017404D01*
X121141615Y-100023627D01*
X121121524Y-100085459D01*
X121121523Y-100085463D01*
X121117189Y-100112824D01*
X121114492Y-100125511D01*
X121104366Y-100163304D01*
X121104364Y-100163313D01*
X121098783Y-100227106D01*
X121097728Y-100235697D01*
X121089500Y-100287643D01*
X121089500Y-100492351D01*
X121097728Y-100544301D01*
X121098783Y-100552891D01*
X121104364Y-100616686D01*
X121104364Y-100616689D01*
X121104365Y-100616692D01*
X121104367Y-100616699D01*
X121114492Y-100654488D01*
X121117190Y-100667181D01*
X121121521Y-100694525D01*
X121121522Y-100694530D01*
X121141617Y-100756378D01*
X121143460Y-100762600D01*
X121163260Y-100836494D01*
X121174531Y-100860667D01*
X121180077Y-100874747D01*
X121184777Y-100889212D01*
X121184781Y-100889221D01*
X121219947Y-100958238D01*
X121221844Y-100962128D01*
X121259432Y-101042734D01*
X121267563Y-101054347D01*
X121276469Y-101069169D01*
X121277714Y-101071612D01*
X121277714Y-101071613D01*
X121330536Y-101144316D01*
X121331793Y-101146078D01*
X121389953Y-101229140D01*
X121550858Y-101390045D01*
X121633920Y-101448205D01*
X121634685Y-101449033D01*
X121635682Y-101449462D01*
X121708388Y-101502286D01*
X121708391Y-101502288D01*
X121710818Y-101503524D01*
X121711574Y-101504238D01*
X121712548Y-101504835D01*
X121712422Y-101505039D01*
X121716737Y-101509114D01*
X121725652Y-101512436D01*
X121737266Y-101520568D01*
X121737270Y-101520570D01*
X121795272Y-101547617D01*
X121847712Y-101593789D01*
X121866864Y-101660982D01*
X121846649Y-101727864D01*
X121795276Y-101772380D01*
X121750729Y-101793153D01*
X121737269Y-101799431D01*
X121737260Y-101799435D01*
X121725651Y-101807563D01*
X121710847Y-101816460D01*
X121708397Y-101817708D01*
X121708394Y-101817710D01*
X121635696Y-101870526D01*
X121633939Y-101871779D01*
X121550859Y-101929954D01*
X121389954Y-102090859D01*
X121331779Y-102173939D01*
X121330526Y-102175696D01*
X121277710Y-102248394D01*
X121277708Y-102248397D01*
X121276460Y-102250847D01*
X121267563Y-102265651D01*
X121259433Y-102277262D01*
X121221838Y-102357882D01*
X121219942Y-102361769D01*
X121184782Y-102430774D01*
X121180073Y-102445265D01*
X121174529Y-102459338D01*
X121163261Y-102483503D01*
X121163261Y-102483504D01*
X121143459Y-102557404D01*
X121141615Y-102563627D01*
X121121524Y-102625459D01*
X121121523Y-102625463D01*
X121117189Y-102652824D01*
X121114492Y-102665511D01*
X121104366Y-102703304D01*
X121104364Y-102703313D01*
X121098783Y-102767106D01*
X121097728Y-102775697D01*
X121089500Y-102827643D01*
X121089500Y-103032351D01*
X121097728Y-103084301D01*
X121098783Y-103092891D01*
X121104364Y-103156686D01*
X121104364Y-103156689D01*
X121104365Y-103156692D01*
X121104367Y-103156699D01*
X121114492Y-103194488D01*
X121117190Y-103207181D01*
X121121521Y-103234525D01*
X121121522Y-103234530D01*
X121141617Y-103296378D01*
X121143460Y-103302600D01*
X121163260Y-103376494D01*
X121174531Y-103400667D01*
X121180077Y-103414747D01*
X121184777Y-103429212D01*
X121184781Y-103429221D01*
X121219947Y-103498238D01*
X121221844Y-103502128D01*
X121259432Y-103582734D01*
X121267563Y-103594347D01*
X121276469Y-103609169D01*
X121277714Y-103611612D01*
X121277714Y-103611613D01*
X121330536Y-103684316D01*
X121331793Y-103686078D01*
X121389953Y-103769140D01*
X121550858Y-103930045D01*
X121633920Y-103988205D01*
X121634685Y-103989033D01*
X121635682Y-103989462D01*
X121708388Y-104042286D01*
X121708391Y-104042288D01*
X121710818Y-104043524D01*
X121711574Y-104044238D01*
X121712548Y-104044835D01*
X121712422Y-104045039D01*
X121716737Y-104049114D01*
X121725652Y-104052436D01*
X121737266Y-104060568D01*
X121737270Y-104060570D01*
X121795272Y-104087617D01*
X121847712Y-104133789D01*
X121866864Y-104200982D01*
X121846649Y-104267864D01*
X121795276Y-104312380D01*
X121750729Y-104333153D01*
X121737269Y-104339431D01*
X121737260Y-104339435D01*
X121725651Y-104347563D01*
X121710847Y-104356460D01*
X121708397Y-104357708D01*
X121708394Y-104357710D01*
X121635696Y-104410526D01*
X121633939Y-104411779D01*
X121550859Y-104469954D01*
X121389954Y-104630859D01*
X121331779Y-104713939D01*
X121330526Y-104715696D01*
X121277710Y-104788394D01*
X121277708Y-104788397D01*
X121276460Y-104790847D01*
X121267563Y-104805651D01*
X121259433Y-104817262D01*
X121221838Y-104897882D01*
X121219942Y-104901769D01*
X121184782Y-104970774D01*
X121180073Y-104985265D01*
X121174529Y-104999338D01*
X121163261Y-105023503D01*
X121163261Y-105023504D01*
X121143459Y-105097404D01*
X121141615Y-105103627D01*
X121121524Y-105165459D01*
X121121523Y-105165463D01*
X121117189Y-105192824D01*
X121114492Y-105205511D01*
X121104366Y-105243304D01*
X121104364Y-105243313D01*
X121098783Y-105307106D01*
X121097728Y-105315697D01*
X121089500Y-105367643D01*
X121089500Y-105572351D01*
X121097728Y-105624301D01*
X121098783Y-105632891D01*
X121104364Y-105696686D01*
X121104364Y-105696689D01*
X121104365Y-105696692D01*
X121104367Y-105696699D01*
X121114492Y-105734488D01*
X121117190Y-105747181D01*
X121121521Y-105774525D01*
X121121522Y-105774530D01*
X121141617Y-105836378D01*
X121143460Y-105842600D01*
X121163260Y-105916494D01*
X121174531Y-105940667D01*
X121180077Y-105954747D01*
X121184777Y-105969212D01*
X121184781Y-105969221D01*
X121219947Y-106038238D01*
X121221844Y-106042128D01*
X121259432Y-106122734D01*
X121267563Y-106134347D01*
X121276469Y-106149169D01*
X121277714Y-106151612D01*
X121277714Y-106151613D01*
X121330536Y-106224316D01*
X121331793Y-106226078D01*
X121389953Y-106309140D01*
X121550858Y-106470045D01*
X121633920Y-106528205D01*
X121634685Y-106529033D01*
X121635682Y-106529462D01*
X121708388Y-106582286D01*
X121708391Y-106582288D01*
X121710818Y-106583524D01*
X121711574Y-106584238D01*
X121712548Y-106584835D01*
X121712422Y-106585039D01*
X121716737Y-106589114D01*
X121725652Y-106592436D01*
X121737266Y-106600568D01*
X121737270Y-106600570D01*
X121795272Y-106627617D01*
X121847712Y-106673789D01*
X121866864Y-106740982D01*
X121846649Y-106807864D01*
X121795276Y-106852380D01*
X121750729Y-106873153D01*
X121737269Y-106879431D01*
X121737260Y-106879435D01*
X121725651Y-106887563D01*
X121710847Y-106896460D01*
X121708397Y-106897708D01*
X121708394Y-106897710D01*
X121635696Y-106950526D01*
X121633939Y-106951779D01*
X121550859Y-107009954D01*
X121389954Y-107170859D01*
X121331779Y-107253939D01*
X121330526Y-107255696D01*
X121277710Y-107328394D01*
X121277708Y-107328397D01*
X121276460Y-107330847D01*
X121267563Y-107345651D01*
X121259433Y-107357262D01*
X121221838Y-107437882D01*
X121219942Y-107441769D01*
X121184782Y-107510774D01*
X121180073Y-107525265D01*
X121174529Y-107539338D01*
X121163261Y-107563503D01*
X121163261Y-107563504D01*
X121143459Y-107637404D01*
X121141615Y-107643627D01*
X121121524Y-107705459D01*
X121121523Y-107705463D01*
X121117189Y-107732824D01*
X121114492Y-107745511D01*
X121104366Y-107783304D01*
X121104364Y-107783313D01*
X121098783Y-107847106D01*
X121097728Y-107855697D01*
X121089500Y-107907643D01*
X121089500Y-108112351D01*
X121097728Y-108164301D01*
X121098783Y-108172891D01*
X121104364Y-108236686D01*
X121104364Y-108236689D01*
X121104365Y-108236692D01*
X121104367Y-108236699D01*
X121114492Y-108274488D01*
X121117190Y-108287181D01*
X121121521Y-108314525D01*
X121121522Y-108314530D01*
X121141617Y-108376378D01*
X121143460Y-108382600D01*
X121163260Y-108456494D01*
X121174531Y-108480667D01*
X121180077Y-108494747D01*
X121184777Y-108509212D01*
X121184781Y-108509221D01*
X121219947Y-108578238D01*
X121221844Y-108582128D01*
X121259432Y-108662734D01*
X121267563Y-108674347D01*
X121276469Y-108689169D01*
X121277714Y-108691612D01*
X121277714Y-108691613D01*
X121330536Y-108764316D01*
X121331793Y-108766078D01*
X121389953Y-108849140D01*
X121550858Y-109010045D01*
X121617379Y-109056623D01*
X121661004Y-109111199D01*
X121668198Y-109180698D01*
X121636676Y-109243052D01*
X121576922Y-109278346D01*
X121556970Y-109283438D01*
X121556956Y-109283442D01*
X121500415Y-109306862D01*
X122260590Y-110067037D01*
X122197007Y-110084075D01*
X122082993Y-110149901D01*
X121989901Y-110242993D01*
X121924075Y-110357007D01*
X121890000Y-110484174D01*
X121890000Y-110615826D01*
X121924075Y-110742993D01*
X121989901Y-110857007D01*
X122082993Y-110950099D01*
X122197007Y-111015925D01*
X122260589Y-111032962D01*
X121500415Y-111793135D01*
X121500415Y-111793136D01*
X121556947Y-111816553D01*
X121585159Y-111826505D01*
X121641832Y-111867370D01*
X121667415Y-111932388D01*
X121653786Y-112000915D01*
X121615035Y-112045016D01*
X121550859Y-112089954D01*
X121389954Y-112250859D01*
X121331779Y-112333939D01*
X121330526Y-112335696D01*
X121277710Y-112408394D01*
X121277708Y-112408397D01*
X121276460Y-112410847D01*
X121267563Y-112425651D01*
X121259433Y-112437262D01*
X121221838Y-112517882D01*
X121219942Y-112521769D01*
X121184782Y-112590774D01*
X121180073Y-112605265D01*
X121174529Y-112619338D01*
X121163261Y-112643503D01*
X121163261Y-112643504D01*
X121143459Y-112717404D01*
X121141615Y-112723627D01*
X121121524Y-112785459D01*
X121121523Y-112785463D01*
X121117189Y-112812824D01*
X121114492Y-112825511D01*
X121104366Y-112863304D01*
X121104364Y-112863313D01*
X121098783Y-112927106D01*
X121097942Y-112933954D01*
X121097941Y-112934301D01*
X121097837Y-112935007D01*
X121089500Y-112987648D01*
X121089500Y-112991824D01*
X121089500Y-113192351D01*
X121097728Y-113244301D01*
X121098783Y-113252891D01*
X121104364Y-113316686D01*
X121104364Y-113316689D01*
X121104365Y-113316692D01*
X121104367Y-113316699D01*
X121114492Y-113354488D01*
X121117190Y-113367181D01*
X121121521Y-113394525D01*
X121121522Y-113394530D01*
X121121523Y-113394534D01*
X121123526Y-113400698D01*
X121141617Y-113456378D01*
X121143460Y-113462600D01*
X121163260Y-113536494D01*
X121174531Y-113560667D01*
X121180077Y-113574747D01*
X121184777Y-113589212D01*
X121184781Y-113589221D01*
X121219947Y-113658238D01*
X121221844Y-113662128D01*
X121259432Y-113742734D01*
X121267563Y-113754347D01*
X121276469Y-113769169D01*
X121277714Y-113771612D01*
X121277714Y-113771613D01*
X121330536Y-113844316D01*
X121331793Y-113846078D01*
X121389953Y-113929140D01*
X121550858Y-114090045D01*
X121633920Y-114148205D01*
X121634685Y-114149033D01*
X121635682Y-114149462D01*
X121708388Y-114202286D01*
X121708391Y-114202288D01*
X121710818Y-114203524D01*
X121711574Y-114204238D01*
X121712548Y-114204835D01*
X121712422Y-114205039D01*
X121716737Y-114209114D01*
X121725652Y-114212436D01*
X121737266Y-114220568D01*
X121737270Y-114220570D01*
X121795272Y-114247617D01*
X121847712Y-114293789D01*
X121866864Y-114360982D01*
X121846649Y-114427864D01*
X121795276Y-114472380D01*
X121750729Y-114493153D01*
X121737269Y-114499431D01*
X121737260Y-114499435D01*
X121725651Y-114507563D01*
X121710847Y-114516460D01*
X121708397Y-114517708D01*
X121708394Y-114517710D01*
X121635696Y-114570526D01*
X121633939Y-114571779D01*
X121550859Y-114629954D01*
X121389954Y-114790859D01*
X121331779Y-114873939D01*
X121330526Y-114875696D01*
X121277710Y-114948394D01*
X121277708Y-114948397D01*
X121276460Y-114950847D01*
X121267563Y-114965651D01*
X121259433Y-114977262D01*
X121221838Y-115057882D01*
X121219942Y-115061769D01*
X121184782Y-115130774D01*
X121180073Y-115145265D01*
X121174529Y-115159338D01*
X121163261Y-115183503D01*
X121163261Y-115183504D01*
X121143459Y-115257404D01*
X121141615Y-115263627D01*
X121121524Y-115325459D01*
X121121523Y-115325463D01*
X121117189Y-115352824D01*
X121114492Y-115365511D01*
X121104366Y-115403304D01*
X121104364Y-115403313D01*
X121098783Y-115467106D01*
X121097728Y-115475697D01*
X121089500Y-115527643D01*
X121089500Y-115732351D01*
X121097728Y-115784301D01*
X121098783Y-115792891D01*
X121104364Y-115856686D01*
X121104364Y-115856689D01*
X121104365Y-115856692D01*
X121104367Y-115856699D01*
X121114492Y-115894488D01*
X121117190Y-115907181D01*
X121121521Y-115934525D01*
X121121522Y-115934530D01*
X121141617Y-115996378D01*
X121143460Y-116002600D01*
X121163260Y-116076494D01*
X121174531Y-116100667D01*
X121180077Y-116114747D01*
X121184777Y-116129212D01*
X121184781Y-116129221D01*
X121219947Y-116198238D01*
X121221844Y-116202128D01*
X121259432Y-116282734D01*
X121267563Y-116294347D01*
X121276469Y-116309169D01*
X121277714Y-116311612D01*
X121277714Y-116311613D01*
X121330536Y-116384316D01*
X121331793Y-116386078D01*
X121389953Y-116469140D01*
X121550858Y-116630045D01*
X121633920Y-116688205D01*
X121635682Y-116689462D01*
X121708388Y-116742286D01*
X121708391Y-116742288D01*
X121710818Y-116743524D01*
X121725652Y-116752436D01*
X121737266Y-116760568D01*
X121817858Y-116798149D01*
X121821748Y-116800046D01*
X121890781Y-116835220D01*
X121905261Y-116839924D01*
X121919323Y-116845463D01*
X121943504Y-116856739D01*
X121943510Y-116856740D01*
X121943513Y-116856742D01*
X122017386Y-116876535D01*
X122023609Y-116878378D01*
X122085466Y-116898477D01*
X122112822Y-116902809D01*
X122125498Y-116905503D01*
X122163308Y-116915635D01*
X122227103Y-116921215D01*
X122235690Y-116922269D01*
X122287648Y-116930500D01*
X122333216Y-116930500D01*
X123589903Y-116930500D01*
X123656942Y-116950185D01*
X123677584Y-116966819D01*
X125863181Y-119152416D01*
X125896666Y-119213739D01*
X125899500Y-119240097D01*
X125899500Y-127413330D01*
X125899499Y-127413348D01*
X125899499Y-127579054D01*
X125899498Y-127579054D01*
X125940423Y-127731785D01*
X125969358Y-127781900D01*
X125969359Y-127781904D01*
X125969360Y-127781904D01*
X126019479Y-127868714D01*
X126019481Y-127868717D01*
X126138349Y-127987585D01*
X126138355Y-127987590D01*
X140047200Y-141896435D01*
X140080685Y-141957758D01*
X140077450Y-142022433D01*
X140036447Y-142148628D01*
X139999500Y-142381902D01*
X139999500Y-142618097D01*
X140036446Y-142851368D01*
X140109433Y-143075996D01*
X140216657Y-143286433D01*
X140355483Y-143477510D01*
X140522490Y-143644517D01*
X140713567Y-143783343D01*
X140812991Y-143834002D01*
X140924003Y-143890566D01*
X140924005Y-143890566D01*
X140924008Y-143890568D01*
X141044412Y-143929689D01*
X141148631Y-143963553D01*
X141381903Y-144000500D01*
X141381908Y-144000500D01*
X141618097Y-144000500D01*
X141851368Y-143963553D01*
X142075992Y-143890568D01*
X142286433Y-143783343D01*
X142477510Y-143644517D01*
X142644517Y-143477510D01*
X142783343Y-143286433D01*
X142890568Y-143075992D01*
X142963553Y-142851368D01*
X143000500Y-142618097D01*
X143000500Y-142381902D01*
X142963553Y-142148631D01*
X142899856Y-141952593D01*
X142890568Y-141924008D01*
X142890566Y-141924005D01*
X142890566Y-141924003D01*
X142783342Y-141713566D01*
X142644517Y-141522490D01*
X142477510Y-141355483D01*
X142421259Y-141314614D01*
X142378595Y-141259284D01*
X142373902Y-141227455D01*
X141629409Y-140482962D01*
X141692993Y-140465925D01*
X141807007Y-140400099D01*
X141900099Y-140307007D01*
X141965925Y-140192993D01*
X141982962Y-140129409D01*
X142722658Y-140869105D01*
X142722658Y-140869104D01*
X142782914Y-140786169D01*
X142782918Y-140786163D01*
X142890102Y-140575802D01*
X142963065Y-140351247D01*
X143000000Y-140118052D01*
X143000000Y-139881947D01*
X142963065Y-139648752D01*
X142890102Y-139424197D01*
X142782914Y-139213828D01*
X142713394Y-139118142D01*
X142689914Y-139052335D01*
X142705739Y-138984281D01*
X142739401Y-138945989D01*
X142742329Y-138943796D01*
X142742331Y-138943796D01*
X142857546Y-138857546D01*
X142943796Y-138742331D01*
X142994091Y-138607483D01*
X143000500Y-138547873D01*
X143000499Y-137381947D01*
X154500000Y-137381947D01*
X154500000Y-137618052D01*
X154536934Y-137851247D01*
X154609897Y-138075802D01*
X154717087Y-138286174D01*
X154777338Y-138369104D01*
X154777340Y-138369105D01*
X155517037Y-137629408D01*
X155534075Y-137692993D01*
X155599901Y-137807007D01*
X155692993Y-137900099D01*
X155807007Y-137965925D01*
X155870590Y-137982962D01*
X155130893Y-138722658D01*
X155213828Y-138782914D01*
X155424197Y-138890102D01*
X155648752Y-138963065D01*
X155648751Y-138963065D01*
X155881948Y-139000000D01*
X156118052Y-139000000D01*
X156351247Y-138963065D01*
X156575802Y-138890102D01*
X156786163Y-138782918D01*
X156786169Y-138782914D01*
X156869104Y-138722658D01*
X156869105Y-138722658D01*
X156129408Y-137982962D01*
X156192993Y-137965925D01*
X156307007Y-137900099D01*
X156400099Y-137807007D01*
X156465925Y-137692993D01*
X156482962Y-137629409D01*
X157222658Y-138369105D01*
X157222658Y-138369104D01*
X157282914Y-138286169D01*
X157282918Y-138286163D01*
X157390102Y-138075802D01*
X157463065Y-137851247D01*
X157500000Y-137618052D01*
X157500000Y-137381947D01*
X157463065Y-137148752D01*
X157390102Y-136924197D01*
X157282914Y-136713828D01*
X157222658Y-136630894D01*
X157222658Y-136630893D01*
X156482962Y-137370590D01*
X156465925Y-137307007D01*
X156400099Y-137192993D01*
X156307007Y-137099901D01*
X156192993Y-137034075D01*
X156129409Y-137017037D01*
X156869105Y-136277340D01*
X156869104Y-136277338D01*
X156786174Y-136217087D01*
X156575802Y-136109897D01*
X156351247Y-136036934D01*
X156351248Y-136036934D01*
X156118052Y-136000000D01*
X155881948Y-136000000D01*
X155648752Y-136036934D01*
X155424197Y-136109897D01*
X155213830Y-136217084D01*
X155130894Y-136277340D01*
X155870591Y-137017037D01*
X155807007Y-137034075D01*
X155692993Y-137099901D01*
X155599901Y-137192993D01*
X155534075Y-137307007D01*
X155517037Y-137370591D01*
X154777340Y-136630894D01*
X154717084Y-136713830D01*
X154609897Y-136924197D01*
X154536934Y-137148752D01*
X154500000Y-137381947D01*
X143000499Y-137381947D01*
X143000499Y-136452128D01*
X142994091Y-136392517D01*
X142955080Y-136287924D01*
X142943797Y-136257671D01*
X142943793Y-136257664D01*
X142857547Y-136142455D01*
X142857544Y-136142452D01*
X142742335Y-136056206D01*
X142742328Y-136056202D01*
X142607482Y-136005908D01*
X142607483Y-136005908D01*
X142547883Y-135999501D01*
X142547881Y-135999500D01*
X142547873Y-135999500D01*
X142547865Y-135999500D01*
X142224500Y-135999500D01*
X142157461Y-135979815D01*
X142111706Y-135927011D01*
X142100500Y-135875500D01*
X142100500Y-134262332D01*
X146899500Y-134262332D01*
X146899500Y-134537667D01*
X146899501Y-134537684D01*
X146935438Y-134810655D01*
X146935439Y-134810660D01*
X146935440Y-134810666D01*
X146935441Y-134810668D01*
X147006704Y-135076630D01*
X147112075Y-135331017D01*
X147112080Y-135331028D01*
X147194861Y-135474407D01*
X147249751Y-135569479D01*
X147249753Y-135569482D01*
X147249754Y-135569483D01*
X147417370Y-135787926D01*
X147417376Y-135787933D01*
X147612066Y-135982623D01*
X147612073Y-135982629D01*
X147707961Y-136056206D01*
X147830521Y-136150249D01*
X147946506Y-136217213D01*
X148068971Y-136287919D01*
X148068976Y-136287921D01*
X148068979Y-136287923D01*
X148323368Y-136393295D01*
X148589334Y-136464560D01*
X148862326Y-136500500D01*
X148862333Y-136500500D01*
X149137667Y-136500500D01*
X149137674Y-136500500D01*
X149410666Y-136464560D01*
X149676632Y-136393295D01*
X149931021Y-136287923D01*
X150169479Y-136150249D01*
X150387928Y-135982628D01*
X150582628Y-135787928D01*
X150750249Y-135569479D01*
X150887923Y-135331021D01*
X150993295Y-135076632D01*
X151064560Y-134810666D01*
X151100500Y-134537674D01*
X151100500Y-134262326D01*
X151064560Y-133989334D01*
X150993295Y-133723368D01*
X150887923Y-133468979D01*
X150887921Y-133468976D01*
X150887919Y-133468971D01*
X150838732Y-133383778D01*
X150750249Y-133230521D01*
X150582628Y-133012072D01*
X150582623Y-133012066D01*
X150387933Y-132817376D01*
X150387926Y-132817370D01*
X150169483Y-132649754D01*
X150169482Y-132649753D01*
X150169479Y-132649751D01*
X150074407Y-132594861D01*
X149931028Y-132512080D01*
X149931017Y-132512075D01*
X149676630Y-132406704D01*
X149543649Y-132371072D01*
X149410666Y-132335440D01*
X149410660Y-132335439D01*
X149410655Y-132335438D01*
X149137684Y-132299501D01*
X149137679Y-132299500D01*
X149137674Y-132299500D01*
X148862326Y-132299500D01*
X148862320Y-132299500D01*
X148862315Y-132299501D01*
X148589344Y-132335438D01*
X148589337Y-132335439D01*
X148589334Y-132335440D01*
X148533125Y-132350500D01*
X148323369Y-132406704D01*
X148068982Y-132512075D01*
X148068971Y-132512080D01*
X147830516Y-132649754D01*
X147612073Y-132817370D01*
X147612066Y-132817376D01*
X147417376Y-133012066D01*
X147417370Y-133012073D01*
X147249754Y-133230516D01*
X147112080Y-133468971D01*
X147112075Y-133468982D01*
X147006704Y-133723369D01*
X146935441Y-133989331D01*
X146935438Y-133989344D01*
X146899501Y-134262315D01*
X146899500Y-134262332D01*
X142100500Y-134262332D01*
X142100500Y-132420945D01*
X142100500Y-132420943D01*
X142059577Y-132268216D01*
X142027361Y-132212416D01*
X141980524Y-132131290D01*
X141980521Y-132131286D01*
X141980520Y-132131284D01*
X141868716Y-132019480D01*
X141868715Y-132019479D01*
X141864385Y-132015149D01*
X141864374Y-132015139D01*
X131636819Y-121787584D01*
X131603334Y-121726261D01*
X131600500Y-121699903D01*
X131600500Y-117089059D01*
X131600501Y-117089046D01*
X131600501Y-116920945D01*
X131600501Y-116920943D01*
X131559577Y-116768215D01*
X131517679Y-116695646D01*
X131480520Y-116631284D01*
X131368716Y-116519480D01*
X131368715Y-116519479D01*
X131364385Y-116515149D01*
X131364374Y-116515139D01*
X127577590Y-112728355D01*
X127577588Y-112728352D01*
X127458717Y-112609481D01*
X127458716Y-112609480D01*
X127371904Y-112559360D01*
X127371904Y-112559359D01*
X127371900Y-112559358D01*
X127321785Y-112530423D01*
X127169057Y-112489499D01*
X127010943Y-112489499D01*
X127003347Y-112489499D01*
X127003331Y-112489500D01*
X125221692Y-112489500D01*
X125154653Y-112469815D01*
X125120119Y-112436625D01*
X124990047Y-112250861D01*
X124990045Y-112250858D01*
X124829141Y-112089954D01*
X124642734Y-111959432D01*
X124642732Y-111959431D01*
X124590779Y-111935205D01*
X124538340Y-111889032D01*
X124519188Y-111821839D01*
X124539404Y-111754958D01*
X124584732Y-111713464D01*
X124649500Y-111678844D01*
X124649521Y-111678832D01*
X124780530Y-111591295D01*
X124780536Y-111591291D01*
X124857064Y-111528485D01*
X124968485Y-111417064D01*
X125031291Y-111340536D01*
X125031295Y-111340530D01*
X125118832Y-111209521D01*
X125118844Y-111209501D01*
X125165509Y-111122198D01*
X125225814Y-110976612D01*
X125254556Y-110881860D01*
X125254559Y-110881849D01*
X125270839Y-110800000D01*
X122823012Y-110800000D01*
X122855925Y-110742993D01*
X122890000Y-110615826D01*
X122890000Y-110484174D01*
X122855925Y-110357007D01*
X122823012Y-110300000D01*
X125270839Y-110300000D01*
X125270839Y-110299999D01*
X125254559Y-110218150D01*
X125254556Y-110218139D01*
X125225814Y-110123387D01*
X125165509Y-109977801D01*
X125118844Y-109890498D01*
X125118832Y-109890478D01*
X125031295Y-109759469D01*
X125031291Y-109759463D01*
X124968485Y-109682935D01*
X124857064Y-109571514D01*
X124780536Y-109508708D01*
X124780530Y-109508704D01*
X124649521Y-109421167D01*
X124649501Y-109421155D01*
X124584730Y-109386534D01*
X124534886Y-109337571D01*
X124519426Y-109269434D01*
X124543258Y-109203754D01*
X124590777Y-109164795D01*
X124642734Y-109140568D01*
X124829139Y-109010047D01*
X124990047Y-108849139D01*
X125120118Y-108663375D01*
X125174693Y-108619752D01*
X125221692Y-108610500D01*
X131709903Y-108610500D01*
X131776942Y-108630185D01*
X131797584Y-108646819D01*
X134363181Y-111212416D01*
X134396666Y-111273739D01*
X134399500Y-111300097D01*
X134399500Y-121913330D01*
X134399499Y-121913348D01*
X134399499Y-122079054D01*
X134399498Y-122079054D01*
X134440423Y-122231785D01*
X134469358Y-122281900D01*
X134469359Y-122281904D01*
X134469360Y-122281904D01*
X134519479Y-122368714D01*
X134519481Y-122368717D01*
X134638349Y-122487585D01*
X134638355Y-122487590D01*
X142515139Y-130364374D01*
X142515149Y-130364385D01*
X142519479Y-130368715D01*
X142519480Y-130368716D01*
X142631284Y-130480520D01*
X142631286Y-130480521D01*
X142631290Y-130480524D01*
X142768209Y-130559573D01*
X142768216Y-130559577D01*
X142880019Y-130589534D01*
X142920942Y-130600500D01*
X142920943Y-130600500D01*
X157199903Y-130600500D01*
X157266942Y-130620185D01*
X157287584Y-130636819D01*
X158863181Y-132212416D01*
X158896666Y-132273739D01*
X158899500Y-132300097D01*
X158899500Y-138699902D01*
X158879815Y-138766941D01*
X158863181Y-138787583D01*
X156603563Y-141047200D01*
X156542240Y-141080685D01*
X156477564Y-141077450D01*
X156351370Y-141036447D01*
X156118097Y-140999500D01*
X156118092Y-140999500D01*
X155881908Y-140999500D01*
X155881903Y-140999500D01*
X155648631Y-141036446D01*
X155424003Y-141109433D01*
X155213566Y-141216657D01*
X155154896Y-141259284D01*
X155022490Y-141355483D01*
X155022488Y-141355485D01*
X155022487Y-141355485D01*
X154855485Y-141522487D01*
X154855485Y-141522488D01*
X154855483Y-141522490D01*
X154795862Y-141604550D01*
X154716657Y-141713566D01*
X154609433Y-141924003D01*
X154536446Y-142148631D01*
X154499500Y-142381902D01*
X154499500Y-142618097D01*
X154536446Y-142851368D01*
X154609433Y-143075996D01*
X154716657Y-143286433D01*
X154855483Y-143477510D01*
X155022490Y-143644517D01*
X155213567Y-143783343D01*
X155312991Y-143834002D01*
X155424003Y-143890566D01*
X155424005Y-143890566D01*
X155424008Y-143890568D01*
X155544412Y-143929689D01*
X155648631Y-143963553D01*
X155881903Y-144000500D01*
X155881908Y-144000500D01*
X156118097Y-144000500D01*
X156351368Y-143963553D01*
X156575992Y-143890568D01*
X156786433Y-143783343D01*
X156977510Y-143644517D01*
X157144517Y-143477510D01*
X157283343Y-143286433D01*
X157390568Y-143075992D01*
X157463553Y-142851368D01*
X157500500Y-142618097D01*
X157500500Y-142381902D01*
X157463553Y-142148635D01*
X157463553Y-142148632D01*
X157422547Y-142022433D01*
X157420553Y-141952593D01*
X157452796Y-141896437D01*
X159858506Y-139490728D01*
X159858511Y-139490724D01*
X159868714Y-139480520D01*
X159868716Y-139480520D01*
X159980520Y-139368716D01*
X160059577Y-139231784D01*
X160100500Y-139079057D01*
X160100500Y-131920943D01*
X160059577Y-131768216D01*
X160059577Y-131768215D01*
X160059577Y-131768214D01*
X160030639Y-131718095D01*
X160030637Y-131718092D01*
X159980520Y-131631284D01*
X159868716Y-131519480D01*
X159868715Y-131519479D01*
X159864385Y-131515149D01*
X159864374Y-131515139D01*
X157987590Y-129638355D01*
X157987588Y-129638352D01*
X157868717Y-129519481D01*
X157868716Y-129519480D01*
X157781904Y-129469360D01*
X157781904Y-129469359D01*
X157781900Y-129469358D01*
X157731785Y-129440423D01*
X157579057Y-129399499D01*
X157420943Y-129399499D01*
X157413347Y-129399499D01*
X157413331Y-129399500D01*
X143300097Y-129399500D01*
X143233058Y-129379815D01*
X143212416Y-129363181D01*
X135636819Y-121787584D01*
X135603334Y-121726261D01*
X135600500Y-121699903D01*
X135600500Y-114852486D01*
X146749500Y-114852486D01*
X146749500Y-115147513D01*
X146772929Y-115325465D01*
X146788007Y-115439993D01*
X146864361Y-115724951D01*
X146864364Y-115724961D01*
X146977254Y-115997500D01*
X146977258Y-115997510D01*
X147124761Y-116252993D01*
X147304352Y-116487040D01*
X147304358Y-116487047D01*
X147512955Y-116695644D01*
X147747006Y-116875238D01*
X148002489Y-117022741D01*
X148002490Y-117022741D01*
X148002493Y-117022743D01*
X148162563Y-117089046D01*
X148262858Y-117130590D01*
X148275048Y-117135639D01*
X148560007Y-117211993D01*
X148852494Y-117250500D01*
X148852501Y-117250500D01*
X149147499Y-117250500D01*
X149147506Y-117250500D01*
X149439993Y-117211993D01*
X149724952Y-117135639D01*
X149997507Y-117022743D01*
X150252994Y-116875238D01*
X150426257Y-116742288D01*
X150487045Y-116695644D01*
X150487047Y-116695641D01*
X150695641Y-116487047D01*
X150695646Y-116487042D01*
X150875238Y-116252994D01*
X151022743Y-115997507D01*
X151135639Y-115724952D01*
X151211993Y-115439993D01*
X151250500Y-115147506D01*
X151250500Y-114852494D01*
X151211993Y-114560007D01*
X151135639Y-114275048D01*
X151129019Y-114259067D01*
X151105499Y-114202284D01*
X151022743Y-114002493D01*
X150980393Y-113929141D01*
X150875238Y-113747006D01*
X150695647Y-113512959D01*
X150695641Y-113512952D01*
X150487047Y-113304358D01*
X150487040Y-113304352D01*
X150252993Y-113124761D01*
X149997510Y-112977258D01*
X149997500Y-112977254D01*
X149724961Y-112864364D01*
X149724954Y-112864362D01*
X149724952Y-112864361D01*
X149439993Y-112788007D01*
X149391113Y-112781571D01*
X149147513Y-112749500D01*
X149147506Y-112749500D01*
X148852494Y-112749500D01*
X148852486Y-112749500D01*
X148574085Y-112786153D01*
X148560007Y-112788007D01*
X148385861Y-112834669D01*
X148275048Y-112864361D01*
X148275038Y-112864364D01*
X148002499Y-112977254D01*
X148002489Y-112977258D01*
X147747006Y-113124761D01*
X147512959Y-113304352D01*
X147512952Y-113304358D01*
X147304358Y-113512952D01*
X147304352Y-113512959D01*
X147124761Y-113747006D01*
X146977258Y-114002489D01*
X146977254Y-114002499D01*
X146864364Y-114275038D01*
X146864361Y-114275048D01*
X146799341Y-114517710D01*
X146788008Y-114560004D01*
X146788006Y-114560015D01*
X146749500Y-114852486D01*
X135600500Y-114852486D01*
X135600500Y-112334071D01*
X143590000Y-112334071D01*
X143590000Y-112585928D01*
X143629397Y-112834669D01*
X143707219Y-113074184D01*
X143821557Y-113298583D01*
X143895748Y-113400697D01*
X143895748Y-113400698D01*
X144512421Y-112784024D01*
X144525359Y-112815258D01*
X144607437Y-112938097D01*
X144711903Y-113042563D01*
X144834742Y-113124641D01*
X144865974Y-113137577D01*
X144249300Y-113754250D01*
X144351416Y-113828442D01*
X144575815Y-113942780D01*
X144815330Y-114020602D01*
X145064072Y-114060000D01*
X145315928Y-114060000D01*
X145564669Y-114020602D01*
X145804184Y-113942780D01*
X146028575Y-113828446D01*
X146028581Y-113828442D01*
X146130697Y-113754250D01*
X146130698Y-113754250D01*
X145514025Y-113137578D01*
X145545258Y-113124641D01*
X145668097Y-113042563D01*
X145772563Y-112938097D01*
X145854641Y-112815258D01*
X145867577Y-112784025D01*
X146484250Y-113400698D01*
X146484250Y-113400697D01*
X146558442Y-113298581D01*
X146558446Y-113298575D01*
X146672780Y-113074184D01*
X146750602Y-112834669D01*
X146790000Y-112585928D01*
X146790000Y-112334071D01*
X146750602Y-112085330D01*
X146672780Y-111845815D01*
X146558442Y-111621416D01*
X146484250Y-111519301D01*
X146484250Y-111519300D01*
X145867577Y-112135973D01*
X145854641Y-112104742D01*
X145772563Y-111981903D01*
X145668097Y-111877437D01*
X145545258Y-111795359D01*
X145514024Y-111782421D01*
X146130698Y-111165748D01*
X146028583Y-111091557D01*
X145804184Y-110977219D01*
X145564669Y-110899397D01*
X145315928Y-110860000D01*
X145064072Y-110860000D01*
X144815330Y-110899397D01*
X144575815Y-110977219D01*
X144351413Y-111091559D01*
X144249301Y-111165747D01*
X144249300Y-111165748D01*
X144865974Y-111782421D01*
X144834742Y-111795359D01*
X144711903Y-111877437D01*
X144607437Y-111981903D01*
X144525359Y-112104742D01*
X144512421Y-112135974D01*
X143895748Y-111519300D01*
X143895747Y-111519301D01*
X143821559Y-111621413D01*
X143707219Y-111845815D01*
X143629397Y-112085330D01*
X143590000Y-112334071D01*
X135600500Y-112334071D01*
X135600500Y-111089060D01*
X135600501Y-111089047D01*
X135600501Y-110920944D01*
X135600501Y-110920943D01*
X135559577Y-110768216D01*
X135559573Y-110768209D01*
X135480524Y-110631290D01*
X135480518Y-110631282D01*
X132497590Y-107648355D01*
X132497588Y-107648352D01*
X132378717Y-107529481D01*
X132378716Y-107529480D01*
X132291904Y-107479360D01*
X132291904Y-107479359D01*
X132291900Y-107479358D01*
X132241785Y-107450423D01*
X132089057Y-107409499D01*
X131930943Y-107409499D01*
X131923347Y-107409499D01*
X131923331Y-107409500D01*
X125221692Y-107409500D01*
X125154653Y-107389815D01*
X125120119Y-107356625D01*
X124990047Y-107170861D01*
X124990045Y-107170858D01*
X124829141Y-107009954D01*
X124642734Y-106879432D01*
X124642728Y-106879429D01*
X124584725Y-106852382D01*
X124532285Y-106806210D01*
X124513133Y-106739017D01*
X124533348Y-106672135D01*
X124584725Y-106627618D01*
X124642734Y-106600568D01*
X124829139Y-106470047D01*
X124990047Y-106309139D01*
X125120118Y-106123375D01*
X125174693Y-106079752D01*
X125221692Y-106070500D01*
X146789903Y-106070500D01*
X146856942Y-106090185D01*
X146877584Y-106106819D01*
X150007841Y-109237076D01*
X150041326Y-109298399D01*
X150038091Y-109363076D01*
X149978910Y-109545214D01*
X149960664Y-109660415D01*
X149939500Y-109794038D01*
X149939500Y-110045962D01*
X149966770Y-110218139D01*
X149978910Y-110294785D01*
X150056760Y-110534383D01*
X150171132Y-110758848D01*
X150319201Y-110962649D01*
X150319205Y-110962654D01*
X150497345Y-111140794D01*
X150497350Y-111140798D01*
X150639069Y-111243762D01*
X150701155Y-111288870D01*
X150844184Y-111361747D01*
X150925616Y-111403239D01*
X150925618Y-111403239D01*
X150925621Y-111403241D01*
X151165215Y-111481090D01*
X151414038Y-111520500D01*
X151414039Y-111520500D01*
X151665961Y-111520500D01*
X151665962Y-111520500D01*
X151914785Y-111481090D01*
X152154379Y-111403241D01*
X152378845Y-111288870D01*
X152582656Y-111140793D01*
X152760793Y-110962656D01*
X152908870Y-110758845D01*
X153023241Y-110534379D01*
X153101090Y-110294785D01*
X153140500Y-110045962D01*
X153140500Y-109794038D01*
X153101090Y-109545215D01*
X153023241Y-109305621D01*
X153023239Y-109305618D01*
X153023239Y-109305616D01*
X152971337Y-109203754D01*
X152908870Y-109081155D01*
X152857205Y-109010044D01*
X152760798Y-108877350D01*
X152760794Y-108877345D01*
X152582654Y-108699205D01*
X152582649Y-108699201D01*
X152378848Y-108551132D01*
X152378847Y-108551131D01*
X152378845Y-108551130D01*
X152278497Y-108500000D01*
X152154383Y-108436760D01*
X151914785Y-108358910D01*
X151665962Y-108319500D01*
X151414038Y-108319500D01*
X151289626Y-108339205D01*
X151165214Y-108358910D01*
X151076175Y-108387841D01*
X150983074Y-108418091D01*
X150913234Y-108420086D01*
X150857076Y-108387841D01*
X147577590Y-105108355D01*
X147577588Y-105108352D01*
X147458717Y-104989481D01*
X147458716Y-104989480D01*
X147371904Y-104939360D01*
X147371904Y-104939359D01*
X147371900Y-104939358D01*
X147321785Y-104910423D01*
X147169057Y-104869499D01*
X147010943Y-104869499D01*
X147003347Y-104869499D01*
X147003331Y-104869500D01*
X125221692Y-104869500D01*
X125154653Y-104849815D01*
X125120119Y-104816625D01*
X124990047Y-104630861D01*
X124990045Y-104630858D01*
X124829141Y-104469954D01*
X124642734Y-104339432D01*
X124642728Y-104339429D01*
X124584725Y-104312382D01*
X124532285Y-104266210D01*
X124513133Y-104199017D01*
X124533348Y-104132135D01*
X124584725Y-104087618D01*
X124642734Y-104060568D01*
X124829139Y-103930047D01*
X124990047Y-103769139D01*
X125120118Y-103583375D01*
X125174693Y-103539752D01*
X125221692Y-103530500D01*
X128483331Y-103530500D01*
X128483347Y-103530501D01*
X128490943Y-103530501D01*
X128649054Y-103530501D01*
X128649057Y-103530501D01*
X128801785Y-103489577D01*
X128851904Y-103460639D01*
X128938716Y-103410520D01*
X129050520Y-103298716D01*
X129050520Y-103298714D01*
X129060728Y-103288507D01*
X129060729Y-103288504D01*
X137496749Y-94852486D01*
X146749500Y-94852486D01*
X146749500Y-95147513D01*
X146763417Y-95253216D01*
X146788007Y-95439993D01*
X146864361Y-95724951D01*
X146864364Y-95724961D01*
X146977254Y-95997500D01*
X146977258Y-95997510D01*
X147124761Y-96252993D01*
X147304352Y-96487040D01*
X147304358Y-96487047D01*
X147512952Y-96695641D01*
X147512959Y-96695647D01*
X147747006Y-96875238D01*
X148002489Y-97022741D01*
X148002490Y-97022741D01*
X148002493Y-97022743D01*
X148275048Y-97135639D01*
X148560007Y-97211993D01*
X148852494Y-97250500D01*
X148852501Y-97250500D01*
X149147499Y-97250500D01*
X149147506Y-97250500D01*
X149439993Y-97211993D01*
X149724952Y-97135639D01*
X149997507Y-97022743D01*
X150252994Y-96875238D01*
X150487042Y-96695646D01*
X150695646Y-96487042D01*
X150875238Y-96252994D01*
X151022743Y-95997507D01*
X151135639Y-95724952D01*
X151211993Y-95439993D01*
X151250500Y-95147506D01*
X151250500Y-94852494D01*
X151211993Y-94560007D01*
X151135639Y-94275048D01*
X151126006Y-94251793D01*
X151103604Y-94197708D01*
X151022743Y-94002493D01*
X150979513Y-93927617D01*
X150875238Y-93747006D01*
X150695647Y-93512959D01*
X150695641Y-93512952D01*
X150487047Y-93304358D01*
X150487040Y-93304352D01*
X150252993Y-93124761D01*
X149997510Y-92977258D01*
X149997500Y-92977254D01*
X149724961Y-92864364D01*
X149724954Y-92864362D01*
X149724952Y-92864361D01*
X149439993Y-92788007D01*
X149391113Y-92781571D01*
X149147513Y-92749500D01*
X149147506Y-92749500D01*
X148852494Y-92749500D01*
X148852486Y-92749500D01*
X148574085Y-92786153D01*
X148560007Y-92788007D01*
X148415285Y-92826785D01*
X148275048Y-92864361D01*
X148275038Y-92864364D01*
X148002499Y-92977254D01*
X148002489Y-92977258D01*
X147747006Y-93124761D01*
X147512959Y-93304352D01*
X147512952Y-93304358D01*
X147304358Y-93512952D01*
X147304352Y-93512959D01*
X147124761Y-93747006D01*
X146977258Y-94002489D01*
X146977254Y-94002499D01*
X146864364Y-94275038D01*
X146864361Y-94275048D01*
X146811894Y-94470861D01*
X146788008Y-94560004D01*
X146788006Y-94560015D01*
X146749500Y-94852486D01*
X137496749Y-94852486D01*
X140015164Y-92334071D01*
X143590000Y-92334071D01*
X143590000Y-92585928D01*
X143629397Y-92834669D01*
X143707219Y-93074184D01*
X143821557Y-93298583D01*
X143895748Y-93400697D01*
X143895748Y-93400698D01*
X144512421Y-92784024D01*
X144525359Y-92815258D01*
X144607437Y-92938097D01*
X144711903Y-93042563D01*
X144834742Y-93124641D01*
X144865974Y-93137577D01*
X144249300Y-93754250D01*
X144351416Y-93828442D01*
X144575815Y-93942780D01*
X144815330Y-94020602D01*
X145064072Y-94060000D01*
X145315928Y-94060000D01*
X145564669Y-94020602D01*
X145804184Y-93942780D01*
X146028575Y-93828446D01*
X146028581Y-93828442D01*
X146130697Y-93754250D01*
X146130698Y-93754250D01*
X145514025Y-93137578D01*
X145545258Y-93124641D01*
X145668097Y-93042563D01*
X145772563Y-92938097D01*
X145854641Y-92815258D01*
X145867577Y-92784025D01*
X146484250Y-93400698D01*
X146484250Y-93400697D01*
X146558442Y-93298581D01*
X146558446Y-93298575D01*
X146672780Y-93074184D01*
X146750602Y-92834669D01*
X146790000Y-92585928D01*
X146790000Y-92334071D01*
X146750602Y-92085330D01*
X146672780Y-91845815D01*
X146558442Y-91621416D01*
X146484250Y-91519301D01*
X146484250Y-91519300D01*
X145867577Y-92135973D01*
X145854641Y-92104742D01*
X145772563Y-91981903D01*
X145668097Y-91877437D01*
X145545258Y-91795359D01*
X145514024Y-91782421D01*
X146130698Y-91165748D01*
X146028583Y-91091557D01*
X145804184Y-90977219D01*
X145564669Y-90899397D01*
X145315928Y-90860000D01*
X145064072Y-90860000D01*
X144815330Y-90899397D01*
X144575815Y-90977219D01*
X144351413Y-91091559D01*
X144249301Y-91165747D01*
X144249300Y-91165748D01*
X144865974Y-91782421D01*
X144834742Y-91795359D01*
X144711903Y-91877437D01*
X144607437Y-91981903D01*
X144525359Y-92104742D01*
X144512421Y-92135974D01*
X143895748Y-91519300D01*
X143895747Y-91519301D01*
X143821559Y-91621413D01*
X143707219Y-91845815D01*
X143629397Y-92085330D01*
X143590000Y-92334071D01*
X140015164Y-92334071D01*
X141792416Y-90556819D01*
X141853739Y-90523334D01*
X141880097Y-90520500D01*
X149973700Y-90520500D01*
X150040739Y-90540185D01*
X150084184Y-90588204D01*
X150156037Y-90729224D01*
X150171132Y-90758848D01*
X150319201Y-90962649D01*
X150319205Y-90962654D01*
X150497345Y-91140794D01*
X150497350Y-91140798D01*
X150620189Y-91230045D01*
X150701155Y-91288870D01*
X150825926Y-91352444D01*
X150925616Y-91403239D01*
X150925618Y-91403239D01*
X150925621Y-91403241D01*
X151165215Y-91481090D01*
X151414038Y-91520500D01*
X151414039Y-91520500D01*
X151665961Y-91520500D01*
X151665962Y-91520500D01*
X151914785Y-91481090D01*
X152154379Y-91403241D01*
X152378845Y-91288870D01*
X152582656Y-91140793D01*
X152760793Y-90962656D01*
X152908870Y-90758845D01*
X153023241Y-90534379D01*
X153101090Y-90294785D01*
X153140500Y-90045962D01*
X153140500Y-89794038D01*
X153101090Y-89545215D01*
X153023241Y-89305621D01*
X153023239Y-89305618D01*
X153023239Y-89305616D01*
X152954630Y-89170964D01*
X152908870Y-89081155D01*
X152837282Y-88982622D01*
X152760798Y-88877350D01*
X152760794Y-88877345D01*
X152582654Y-88699205D01*
X152582649Y-88699201D01*
X152378848Y-88551132D01*
X152378847Y-88551131D01*
X152378845Y-88551130D01*
X152308747Y-88515413D01*
X152154383Y-88436760D01*
X151914785Y-88358910D01*
X151665962Y-88319500D01*
X151414038Y-88319500D01*
X151289626Y-88339205D01*
X151165214Y-88358910D01*
X150925616Y-88436760D01*
X150701151Y-88551132D01*
X150497350Y-88699201D01*
X150497345Y-88699205D01*
X150319205Y-88877345D01*
X150319201Y-88877350D01*
X150171132Y-89081151D01*
X150171130Y-89081155D01*
X150153503Y-89115751D01*
X150084185Y-89251795D01*
X150036211Y-89302591D01*
X149973700Y-89319500D01*
X141500940Y-89319500D01*
X141460019Y-89330464D01*
X141460019Y-89330465D01*
X141422751Y-89340451D01*
X141348214Y-89360423D01*
X141348209Y-89360426D01*
X141211290Y-89439475D01*
X141211282Y-89439481D01*
X141099478Y-89551286D01*
X128357584Y-102293181D01*
X128296261Y-102326666D01*
X128269903Y-102329500D01*
X125221692Y-102329500D01*
X125154653Y-102309815D01*
X125120119Y-102276625D01*
X124990047Y-102090861D01*
X124990045Y-102090858D01*
X124829141Y-101929954D01*
X124642734Y-101799432D01*
X124642728Y-101799429D01*
X124584725Y-101772382D01*
X124532285Y-101726210D01*
X124513133Y-101659017D01*
X124533348Y-101592135D01*
X124584725Y-101547618D01*
X124642734Y-101520568D01*
X124829139Y-101390047D01*
X124990047Y-101229139D01*
X125120118Y-101043375D01*
X125174693Y-100999752D01*
X125221692Y-100990500D01*
X127523331Y-100990500D01*
X127523347Y-100990501D01*
X127530943Y-100990501D01*
X127689054Y-100990501D01*
X127689057Y-100990501D01*
X127841785Y-100949577D01*
X127891904Y-100920639D01*
X127978716Y-100870520D01*
X128090520Y-100758716D01*
X128090520Y-100758714D01*
X128100728Y-100748507D01*
X128100729Y-100748504D01*
X136480520Y-92368716D01*
X136559577Y-92231785D01*
X136600501Y-92079057D01*
X136600501Y-91920942D01*
X136600501Y-91913347D01*
X136600500Y-91913329D01*
X136600500Y-75352486D01*
X146749500Y-75352486D01*
X146749500Y-75647513D01*
X146773413Y-75829140D01*
X146788007Y-75939993D01*
X146864361Y-76224951D01*
X146864364Y-76224961D01*
X146977254Y-76497500D01*
X146977258Y-76497510D01*
X147124761Y-76752993D01*
X147304352Y-76987040D01*
X147304358Y-76987047D01*
X147512952Y-77195641D01*
X147512959Y-77195647D01*
X147747006Y-77375238D01*
X148002489Y-77522741D01*
X148002490Y-77522741D01*
X148002493Y-77522743D01*
X148157102Y-77586784D01*
X148267107Y-77632350D01*
X148275048Y-77635639D01*
X148560007Y-77711993D01*
X148852494Y-77750500D01*
X148852501Y-77750500D01*
X149147499Y-77750500D01*
X149147506Y-77750500D01*
X149439993Y-77711993D01*
X149724952Y-77635639D01*
X149997507Y-77522743D01*
X150252994Y-77375238D01*
X150487042Y-77195646D01*
X150695646Y-76987042D01*
X150875238Y-76752994D01*
X151022743Y-76497507D01*
X151135639Y-76224952D01*
X151211993Y-75939993D01*
X151250500Y-75647506D01*
X151250500Y-75352494D01*
X151211993Y-75060007D01*
X151135639Y-74775048D01*
X151130774Y-74763304D01*
X151072912Y-74623612D01*
X151022743Y-74502493D01*
X150927349Y-74337266D01*
X150875238Y-74247006D01*
X150695647Y-74012959D01*
X150695641Y-74012952D01*
X150487047Y-73804358D01*
X150487040Y-73804352D01*
X150252993Y-73624761D01*
X149997510Y-73477258D01*
X149997500Y-73477254D01*
X149724961Y-73364364D01*
X149724954Y-73364362D01*
X149724952Y-73364361D01*
X149439993Y-73288007D01*
X149391113Y-73281571D01*
X149147513Y-73249500D01*
X149147506Y-73249500D01*
X148852494Y-73249500D01*
X148852486Y-73249500D01*
X148574085Y-73286153D01*
X148560007Y-73288007D01*
X148299411Y-73357833D01*
X148275048Y-73364361D01*
X148275038Y-73364364D01*
X148002499Y-73477254D01*
X148002489Y-73477258D01*
X147747006Y-73624761D01*
X147512959Y-73804352D01*
X147512952Y-73804358D01*
X147304358Y-74012952D01*
X147304352Y-74012959D01*
X147124761Y-74247006D01*
X146977258Y-74502489D01*
X146977254Y-74502499D01*
X146864364Y-74775038D01*
X146864361Y-74775048D01*
X146834192Y-74887643D01*
X146788008Y-75060004D01*
X146788006Y-75060015D01*
X146749500Y-75352486D01*
X136600500Y-75352486D01*
X136600500Y-72834071D01*
X143590000Y-72834071D01*
X143590000Y-73085928D01*
X143629397Y-73334669D01*
X143707219Y-73574184D01*
X143821557Y-73798583D01*
X143895748Y-73900697D01*
X143895748Y-73900698D01*
X144512421Y-73284024D01*
X144525359Y-73315258D01*
X144607437Y-73438097D01*
X144711903Y-73542563D01*
X144834742Y-73624641D01*
X144865974Y-73637577D01*
X144249300Y-74254250D01*
X144351416Y-74328442D01*
X144575815Y-74442780D01*
X144815330Y-74520602D01*
X145064072Y-74560000D01*
X145315928Y-74560000D01*
X145564669Y-74520602D01*
X145804184Y-74442780D01*
X146028575Y-74328446D01*
X146028581Y-74328442D01*
X146130697Y-74254250D01*
X146130698Y-74254250D01*
X145514025Y-73637578D01*
X145545258Y-73624641D01*
X145668097Y-73542563D01*
X145772563Y-73438097D01*
X145854641Y-73315258D01*
X145867577Y-73284025D01*
X146484250Y-73900698D01*
X146484250Y-73900697D01*
X146558442Y-73798581D01*
X146558446Y-73798575D01*
X146672780Y-73574184D01*
X146750602Y-73334669D01*
X146790000Y-73085928D01*
X146790000Y-72834071D01*
X146750602Y-72585330D01*
X146672780Y-72345815D01*
X146558442Y-72121416D01*
X146484250Y-72019301D01*
X146484250Y-72019300D01*
X145867577Y-72635973D01*
X145854641Y-72604742D01*
X145772563Y-72481903D01*
X145668097Y-72377437D01*
X145545258Y-72295359D01*
X145514024Y-72282421D01*
X146130698Y-71665748D01*
X146028583Y-71591557D01*
X145804184Y-71477219D01*
X145564669Y-71399397D01*
X145315928Y-71360000D01*
X145064072Y-71360000D01*
X144815330Y-71399397D01*
X144575815Y-71477219D01*
X144351413Y-71591559D01*
X144249301Y-71665747D01*
X144249300Y-71665748D01*
X144865974Y-72282421D01*
X144834742Y-72295359D01*
X144711903Y-72377437D01*
X144607437Y-72481903D01*
X144525359Y-72604742D01*
X144512421Y-72635974D01*
X143895748Y-72019300D01*
X143895747Y-72019301D01*
X143821559Y-72121413D01*
X143707219Y-72345815D01*
X143629397Y-72585330D01*
X143590000Y-72834071D01*
X136600500Y-72834071D01*
X136600500Y-71800097D01*
X136609144Y-71770656D01*
X136615668Y-71740670D01*
X136619422Y-71735654D01*
X136620185Y-71733058D01*
X136636819Y-71712416D01*
X136723908Y-71625327D01*
X136989236Y-71360000D01*
X137292417Y-71056819D01*
X137353740Y-71023334D01*
X137380098Y-71020500D01*
X149973700Y-71020500D01*
X150040739Y-71040185D01*
X150084184Y-71088204D01*
X150169524Y-71255694D01*
X150171132Y-71258848D01*
X150319201Y-71462649D01*
X150319205Y-71462654D01*
X150497345Y-71640794D01*
X150497350Y-71640798D01*
X150624336Y-71733058D01*
X150701155Y-71788870D01*
X150844184Y-71861747D01*
X150925616Y-71903239D01*
X150925618Y-71903239D01*
X150925621Y-71903241D01*
X151165215Y-71981090D01*
X151414038Y-72020500D01*
X151414039Y-72020500D01*
X151665961Y-72020500D01*
X151665962Y-72020500D01*
X151914785Y-71981090D01*
X152154379Y-71903241D01*
X152378845Y-71788870D01*
X152582656Y-71640793D01*
X152760793Y-71462656D01*
X152908870Y-71258845D01*
X153023241Y-71034379D01*
X153101090Y-70794785D01*
X153140500Y-70545962D01*
X153140500Y-70294038D01*
X153101090Y-70045215D01*
X153023241Y-69805621D01*
X153023239Y-69805618D01*
X153023239Y-69805616D01*
X152960922Y-69683313D01*
X152908870Y-69581155D01*
X152881604Y-69543627D01*
X152760798Y-69377350D01*
X152760794Y-69377345D01*
X152582654Y-69199205D01*
X152582649Y-69199201D01*
X152378848Y-69051132D01*
X152378847Y-69051131D01*
X152378845Y-69051130D01*
X152308747Y-69015413D01*
X152154383Y-68936760D01*
X151914785Y-68858910D01*
X151861687Y-68850500D01*
X151665962Y-68819500D01*
X151414038Y-68819500D01*
X151289626Y-68839205D01*
X151165214Y-68858910D01*
X150925616Y-68936760D01*
X150701151Y-69051132D01*
X150497350Y-69199201D01*
X150497345Y-69199205D01*
X150319205Y-69377345D01*
X150319201Y-69377350D01*
X150171132Y-69581151D01*
X150171130Y-69581155D01*
X150084378Y-69751417D01*
X150084185Y-69751795D01*
X150036211Y-69802591D01*
X149973700Y-69819500D01*
X137166670Y-69819500D01*
X137166654Y-69819499D01*
X137159058Y-69819499D01*
X137000943Y-69819499D01*
X136924579Y-69839961D01*
X136848214Y-69860423D01*
X136848209Y-69860426D01*
X136711290Y-69939475D01*
X136711282Y-69939481D01*
X135519481Y-71131282D01*
X135519479Y-71131285D01*
X135513196Y-71142168D01*
X135473745Y-71210500D01*
X135440423Y-71268215D01*
X135399499Y-71420943D01*
X135399499Y-71420945D01*
X135399499Y-71589046D01*
X135399500Y-71589059D01*
X135399500Y-91699902D01*
X135379815Y-91766941D01*
X135363181Y-91787583D01*
X127397584Y-99753181D01*
X127336261Y-99786666D01*
X127309903Y-99789500D01*
X125221692Y-99789500D01*
X125154653Y-99769815D01*
X125120119Y-99736625D01*
X124990047Y-99550861D01*
X124990045Y-99550858D01*
X124829141Y-99389954D01*
X124642734Y-99259432D01*
X124642732Y-99259431D01*
X124590779Y-99235205D01*
X124538340Y-99189032D01*
X124519188Y-99121839D01*
X124539404Y-99054958D01*
X124584732Y-99013464D01*
X124649500Y-98978844D01*
X124649521Y-98978832D01*
X124780530Y-98891295D01*
X124780536Y-98891291D01*
X124857064Y-98828485D01*
X124968485Y-98717064D01*
X125031291Y-98640536D01*
X125031295Y-98640530D01*
X125118832Y-98509521D01*
X125118844Y-98509501D01*
X125165509Y-98422198D01*
X125225814Y-98276612D01*
X125254556Y-98181860D01*
X125254559Y-98181849D01*
X125270839Y-98100000D01*
X122823012Y-98100000D01*
X122855925Y-98042993D01*
X122890000Y-97915826D01*
X122890000Y-97784174D01*
X122855925Y-97657007D01*
X122823012Y-97600000D01*
X125270839Y-97600000D01*
X125270839Y-97599999D01*
X125254559Y-97518150D01*
X125254556Y-97518139D01*
X125225814Y-97423387D01*
X125165509Y-97277801D01*
X125118844Y-97190498D01*
X125118832Y-97190478D01*
X125031295Y-97059469D01*
X125031291Y-97059463D01*
X124968485Y-96982935D01*
X124857064Y-96871514D01*
X124780536Y-96808708D01*
X124780530Y-96808704D01*
X124649521Y-96721167D01*
X124649501Y-96721155D01*
X124584730Y-96686534D01*
X124534886Y-96637571D01*
X124519426Y-96569434D01*
X124543258Y-96503754D01*
X124590777Y-96464795D01*
X124642734Y-96440568D01*
X124829139Y-96310047D01*
X124990047Y-96149139D01*
X125120568Y-95962734D01*
X125216739Y-95756496D01*
X125275635Y-95536692D01*
X125290500Y-95366784D01*
X125290500Y-95253216D01*
X125275635Y-95083308D01*
X125230916Y-94916415D01*
X125216741Y-94863511D01*
X125216738Y-94863503D01*
X125120568Y-94657266D01*
X124990047Y-94470861D01*
X124990045Y-94470858D01*
X124829141Y-94309954D01*
X124642734Y-94179432D01*
X124642728Y-94179429D01*
X124584725Y-94152382D01*
X124532285Y-94106210D01*
X124513133Y-94039017D01*
X124533348Y-93972135D01*
X124584725Y-93927618D01*
X124642734Y-93900568D01*
X124829139Y-93770047D01*
X124990047Y-93609139D01*
X125120568Y-93422734D01*
X125216739Y-93216496D01*
X125275635Y-92996692D01*
X125290500Y-92826784D01*
X125290500Y-92713216D01*
X125275635Y-92543308D01*
X125228853Y-92368716D01*
X125216741Y-92323511D01*
X125216738Y-92323503D01*
X125120568Y-92117266D01*
X124990047Y-91930861D01*
X124990045Y-91930858D01*
X124829141Y-91769954D01*
X124642734Y-91639432D01*
X124642728Y-91639429D01*
X124584725Y-91612382D01*
X124532285Y-91566210D01*
X124513133Y-91499017D01*
X124533348Y-91432135D01*
X124584725Y-91387618D01*
X124642734Y-91360568D01*
X124829139Y-91230047D01*
X124990047Y-91069139D01*
X125120568Y-90882734D01*
X125216739Y-90676496D01*
X125275635Y-90456692D01*
X125290500Y-90286784D01*
X125290500Y-90173216D01*
X125275635Y-90003308D01*
X125219562Y-89794038D01*
X125216741Y-89783511D01*
X125216738Y-89783503D01*
X125120568Y-89577266D01*
X124990047Y-89390861D01*
X124990045Y-89390858D01*
X124829141Y-89229954D01*
X124642734Y-89099432D01*
X124642728Y-89099429D01*
X124603539Y-89081155D01*
X124584724Y-89072381D01*
X124532285Y-89026210D01*
X124513133Y-88959017D01*
X124533348Y-88892135D01*
X124584725Y-88847618D01*
X124642734Y-88820568D01*
X124829139Y-88690047D01*
X124990047Y-88529139D01*
X125120568Y-88342734D01*
X125216739Y-88136496D01*
X125275635Y-87916692D01*
X125290500Y-87746784D01*
X125290500Y-87633216D01*
X125275635Y-87463308D01*
X125220005Y-87255692D01*
X125216741Y-87243511D01*
X125216738Y-87243503D01*
X125120568Y-87037266D01*
X124990047Y-86850861D01*
X124990045Y-86850858D01*
X124829141Y-86689954D01*
X124642734Y-86559432D01*
X124642732Y-86559431D01*
X124591343Y-86535468D01*
X124538904Y-86489295D01*
X124519752Y-86422102D01*
X124539968Y-86355221D01*
X124585293Y-86313729D01*
X124649783Y-86279259D01*
X124780811Y-86191709D01*
X124857412Y-86128843D01*
X124968843Y-86017412D01*
X125031709Y-85940811D01*
X125119259Y-85809783D01*
X125165972Y-85722389D01*
X125226278Y-85576798D01*
X125255044Y-85481968D01*
X125285787Y-85327410D01*
X125295500Y-85228793D01*
X125295500Y-85071207D01*
X125285787Y-84972590D01*
X125255044Y-84818032D01*
X125226278Y-84723202D01*
X125165972Y-84577611D01*
X125119259Y-84490217D01*
X125119248Y-84490200D01*
X125031721Y-84359206D01*
X125031712Y-84359194D01*
X125031709Y-84359189D01*
X124968843Y-84282588D01*
X124857412Y-84171157D01*
X124780811Y-84108291D01*
X124780804Y-84108286D01*
X124780793Y-84108278D01*
X124649799Y-84020751D01*
X124649788Y-84020744D01*
X124649783Y-84020741D01*
X124585293Y-83986270D01*
X124535450Y-83937308D01*
X124519990Y-83869171D01*
X124543822Y-83803491D01*
X124591341Y-83764532D01*
X124642734Y-83740568D01*
X124829139Y-83610047D01*
X124990047Y-83449139D01*
X125120568Y-83262734D01*
X125216739Y-83056496D01*
X125275635Y-82836692D01*
X125290500Y-82666784D01*
X125290500Y-82553216D01*
X125275635Y-82383308D01*
X125230916Y-82216415D01*
X125216741Y-82163511D01*
X125216738Y-82163503D01*
X125120568Y-81957266D01*
X124990047Y-81770861D01*
X124990045Y-81770858D01*
X124829141Y-81609954D01*
X124642734Y-81479432D01*
X124642728Y-81479429D01*
X124584725Y-81452382D01*
X124532285Y-81406210D01*
X124513133Y-81339017D01*
X124533348Y-81272135D01*
X124584725Y-81227618D01*
X124642734Y-81200568D01*
X124829139Y-81070047D01*
X124990047Y-80909139D01*
X125120568Y-80722734D01*
X125216739Y-80516496D01*
X125275635Y-80296692D01*
X125290500Y-80126784D01*
X125290500Y-80013216D01*
X125275635Y-79843308D01*
X125230916Y-79676415D01*
X125216741Y-79623511D01*
X125216738Y-79623503D01*
X125120568Y-79417266D01*
X124990047Y-79230861D01*
X124990045Y-79230858D01*
X124829141Y-79069954D01*
X124642734Y-78939432D01*
X124642728Y-78939429D01*
X124584725Y-78912382D01*
X124532285Y-78866210D01*
X124513133Y-78799017D01*
X124533348Y-78732135D01*
X124584725Y-78687618D01*
X124642734Y-78660568D01*
X124829139Y-78530047D01*
X124990047Y-78369139D01*
X125120568Y-78182734D01*
X125216739Y-77976496D01*
X125275635Y-77756692D01*
X125290500Y-77586784D01*
X125290500Y-77473216D01*
X125275635Y-77303308D01*
X125230916Y-77136415D01*
X125216741Y-77083511D01*
X125216738Y-77083503D01*
X125120568Y-76877266D01*
X124990047Y-76690861D01*
X124990045Y-76690858D01*
X124829141Y-76529954D01*
X124642734Y-76399432D01*
X124642728Y-76399429D01*
X124584725Y-76372382D01*
X124532285Y-76326210D01*
X124513133Y-76259017D01*
X124533348Y-76192135D01*
X124584725Y-76147618D01*
X124642734Y-76120568D01*
X124829139Y-75990047D01*
X124990047Y-75829139D01*
X125120568Y-75642734D01*
X125216739Y-75436496D01*
X125275635Y-75216692D01*
X125290500Y-75046784D01*
X125290500Y-74933216D01*
X125275635Y-74763308D01*
X125221159Y-74560000D01*
X125216741Y-74543511D01*
X125216738Y-74543503D01*
X125120568Y-74337266D01*
X124990047Y-74150861D01*
X124990045Y-74150858D01*
X124829141Y-73989954D01*
X124642734Y-73859432D01*
X124642732Y-73859431D01*
X124590779Y-73835205D01*
X124538340Y-73789032D01*
X124519188Y-73721839D01*
X124539404Y-73654958D01*
X124584732Y-73613464D01*
X124649500Y-73578844D01*
X124649521Y-73578832D01*
X124780530Y-73491295D01*
X124780536Y-73491291D01*
X124857064Y-73428485D01*
X124968485Y-73317064D01*
X125031291Y-73240536D01*
X125031295Y-73240530D01*
X125118832Y-73109521D01*
X125118844Y-73109501D01*
X125165509Y-73022198D01*
X125225814Y-72876612D01*
X125254556Y-72781860D01*
X125254559Y-72781849D01*
X125270839Y-72700000D01*
X122823012Y-72700000D01*
X122855925Y-72642993D01*
X122890000Y-72515826D01*
X122890000Y-72384174D01*
X122855925Y-72257007D01*
X122823012Y-72200000D01*
X125270839Y-72200000D01*
X125270839Y-72199999D01*
X125254559Y-72118150D01*
X125254556Y-72118139D01*
X125225814Y-72023387D01*
X125165509Y-71877801D01*
X125118844Y-71790498D01*
X125118832Y-71790478D01*
X125031295Y-71659469D01*
X125031291Y-71659463D01*
X124968485Y-71582935D01*
X124857064Y-71471514D01*
X124780536Y-71408708D01*
X124780530Y-71408704D01*
X124649521Y-71321167D01*
X124649501Y-71321155D01*
X124584730Y-71286534D01*
X124534886Y-71237571D01*
X124519426Y-71169434D01*
X124543258Y-71103754D01*
X124590777Y-71064795D01*
X124642734Y-71040568D01*
X124829139Y-70910047D01*
X124990047Y-70749139D01*
X125120568Y-70562734D01*
X125216739Y-70356496D01*
X125275635Y-70136692D01*
X125290500Y-69966784D01*
X125290500Y-69853216D01*
X125275635Y-69683308D01*
X125230916Y-69516415D01*
X125216741Y-69463511D01*
X125216738Y-69463503D01*
X125120568Y-69257266D01*
X124990047Y-69070861D01*
X124990045Y-69070858D01*
X124829141Y-68909954D01*
X124642734Y-68779432D01*
X124642728Y-68779429D01*
X124615038Y-68766517D01*
X124584724Y-68752381D01*
X124532285Y-68706210D01*
X124513133Y-68639017D01*
X124533348Y-68572135D01*
X124584725Y-68527618D01*
X124642734Y-68500568D01*
X124829139Y-68370047D01*
X124990047Y-68209139D01*
X125120568Y-68022734D01*
X125216739Y-67816496D01*
X125275635Y-67596692D01*
X125290500Y-67426784D01*
X125290500Y-67313216D01*
X125275635Y-67143308D01*
X125216739Y-66923504D01*
X125120568Y-66717266D01*
X124990047Y-66530861D01*
X124990045Y-66530858D01*
X124829141Y-66369954D01*
X124642734Y-66239432D01*
X124642732Y-66239431D01*
X124436497Y-66143261D01*
X124436488Y-66143258D01*
X124216697Y-66084366D01*
X124216687Y-66084364D01*
X124046785Y-66069500D01*
X124046784Y-66069500D01*
X122492352Y-66069500D01*
X122287648Y-66069500D01*
X122287644Y-66069500D01*
X122235697Y-66077728D01*
X122227106Y-66078783D01*
X122163313Y-66084364D01*
X122163304Y-66084366D01*
X122125511Y-66094492D01*
X122112824Y-66097189D01*
X122085463Y-66101523D01*
X122085459Y-66101524D01*
X122023627Y-66121615D01*
X122017404Y-66123459D01*
X121943504Y-66143261D01*
X121943503Y-66143261D01*
X121919338Y-66154529D01*
X121905265Y-66160073D01*
X121890774Y-66164782D01*
X121821769Y-66199942D01*
X121817882Y-66201838D01*
X121737262Y-66239433D01*
X121725651Y-66247563D01*
X121710847Y-66256460D01*
X121708397Y-66257708D01*
X121708394Y-66257710D01*
X121635696Y-66310526D01*
X121633939Y-66311779D01*
X121550859Y-66369954D01*
X121389954Y-66530859D01*
X121331779Y-66613939D01*
X121330526Y-66615696D01*
X121277710Y-66688394D01*
X121277708Y-66688397D01*
X121276460Y-66690847D01*
X121267563Y-66705651D01*
X121259433Y-66717262D01*
X121221838Y-66797882D01*
X121219942Y-66801769D01*
X121184782Y-66870774D01*
X121180073Y-66885265D01*
X121174529Y-66899338D01*
X121163261Y-66923503D01*
X121163261Y-66923504D01*
X121143459Y-66997404D01*
X121141615Y-67003627D01*
X121121524Y-67065459D01*
X121121523Y-67065463D01*
X121117189Y-67092824D01*
X121114492Y-67105511D01*
X121104366Y-67143304D01*
X121104364Y-67143313D01*
X121098783Y-67207106D01*
X121097942Y-67213954D01*
X121097941Y-67214301D01*
X121097837Y-67215007D01*
X121089500Y-67267648D01*
X121089500Y-67271824D01*
X121089500Y-67472351D01*
X121097728Y-67524301D01*
X121098783Y-67532891D01*
X121104364Y-67596686D01*
X121104364Y-67596689D01*
X121104365Y-67596692D01*
X121104367Y-67596699D01*
X121114492Y-67634488D01*
X121117190Y-67647181D01*
X121121521Y-67674525D01*
X121121522Y-67674530D01*
X121141617Y-67736378D01*
X121143460Y-67742600D01*
X121163260Y-67816494D01*
X121174531Y-67840667D01*
X121180077Y-67854747D01*
X121184777Y-67869212D01*
X121184781Y-67869221D01*
X121219947Y-67938238D01*
X121221844Y-67942128D01*
X121259432Y-68022734D01*
X121267563Y-68034347D01*
X121276469Y-68049169D01*
X121277714Y-68051612D01*
X121277714Y-68051613D01*
X121330536Y-68124316D01*
X121331793Y-68126078D01*
X121389953Y-68209140D01*
X121550858Y-68370045D01*
X121633920Y-68428205D01*
X121634685Y-68429033D01*
X121635682Y-68429462D01*
X121708388Y-68482286D01*
X121708391Y-68482288D01*
X121710818Y-68483524D01*
X121711574Y-68484238D01*
X121712548Y-68484835D01*
X121712422Y-68485039D01*
X121716737Y-68489114D01*
X121725652Y-68492436D01*
X121737266Y-68500568D01*
X121737270Y-68500570D01*
X121795272Y-68527617D01*
X121847712Y-68573789D01*
X121866864Y-68640982D01*
X121846649Y-68707864D01*
X121795276Y-68752380D01*
X121750729Y-68773153D01*
X121737273Y-68779429D01*
X121737260Y-68779435D01*
X121725651Y-68787563D01*
X121710847Y-68796460D01*
X121708397Y-68797708D01*
X121708394Y-68797710D01*
X121635696Y-68850526D01*
X121633939Y-68851779D01*
X121550859Y-68909954D01*
X121389954Y-69070859D01*
X121331779Y-69153939D01*
X121330526Y-69155696D01*
X121277710Y-69228394D01*
X121277708Y-69228397D01*
X121276460Y-69230847D01*
X121267563Y-69245651D01*
X121259433Y-69257262D01*
X121221838Y-69337882D01*
X121219942Y-69341769D01*
X121184782Y-69410774D01*
X121180073Y-69425265D01*
X121174529Y-69439338D01*
X121163261Y-69463503D01*
X121163261Y-69463504D01*
X121143459Y-69537404D01*
X121141615Y-69543627D01*
X121121524Y-69605459D01*
X121121523Y-69605463D01*
X121117189Y-69632824D01*
X121114492Y-69645511D01*
X121104366Y-69683304D01*
X121104364Y-69683313D01*
X121098783Y-69747106D01*
X121097728Y-69755697D01*
X121089500Y-69807643D01*
X121089500Y-70012351D01*
X121097728Y-70064301D01*
X121098783Y-70072891D01*
X121104364Y-70136686D01*
X121104364Y-70136689D01*
X121104365Y-70136692D01*
X121104367Y-70136699D01*
X121114492Y-70174488D01*
X121117190Y-70187181D01*
X121121521Y-70214525D01*
X121121522Y-70214530D01*
X121141617Y-70276378D01*
X121143460Y-70282600D01*
X121163260Y-70356494D01*
X121174531Y-70380667D01*
X121180077Y-70394747D01*
X121184777Y-70409212D01*
X121184781Y-70409221D01*
X121219947Y-70478238D01*
X121221844Y-70482128D01*
X121259432Y-70562734D01*
X121267563Y-70574347D01*
X121276469Y-70589169D01*
X121277714Y-70591612D01*
X121277714Y-70591613D01*
X121330536Y-70664316D01*
X121331793Y-70666078D01*
X121389953Y-70749140D01*
X121550858Y-70910045D01*
X121617379Y-70956623D01*
X121661004Y-71011199D01*
X121668198Y-71080698D01*
X121636676Y-71143052D01*
X121576922Y-71178346D01*
X121556970Y-71183438D01*
X121556956Y-71183442D01*
X121500415Y-71206862D01*
X122260590Y-71967037D01*
X122197007Y-71984075D01*
X122082993Y-72049901D01*
X121989901Y-72142993D01*
X121924075Y-72257007D01*
X121890000Y-72384174D01*
X121890000Y-72515826D01*
X121924075Y-72642993D01*
X121989901Y-72757007D01*
X122082993Y-72850099D01*
X122197007Y-72915925D01*
X122260589Y-72932962D01*
X121500415Y-73693135D01*
X121500415Y-73693136D01*
X121556947Y-73716553D01*
X121585159Y-73726505D01*
X121641832Y-73767370D01*
X121667415Y-73832388D01*
X121653786Y-73900915D01*
X121615035Y-73945016D01*
X121550859Y-73989954D01*
X121389954Y-74150859D01*
X121331779Y-74233939D01*
X121330526Y-74235696D01*
X121277710Y-74308394D01*
X121277708Y-74308397D01*
X121276460Y-74310847D01*
X121267563Y-74325651D01*
X121259433Y-74337262D01*
X121221838Y-74417882D01*
X121219942Y-74421769D01*
X121184782Y-74490774D01*
X121180073Y-74505265D01*
X121174529Y-74519338D01*
X121163261Y-74543503D01*
X121163261Y-74543504D01*
X121143459Y-74617404D01*
X121141615Y-74623627D01*
X121121524Y-74685459D01*
X121121523Y-74685463D01*
X121117189Y-74712824D01*
X121114492Y-74725511D01*
X121104366Y-74763304D01*
X121104364Y-74763313D01*
X121098783Y-74827106D01*
X121097728Y-74835697D01*
X121089500Y-74887643D01*
X121089500Y-75092351D01*
X121097728Y-75144301D01*
X121098783Y-75152891D01*
X121104364Y-75216686D01*
X121104364Y-75216689D01*
X121104365Y-75216692D01*
X121104367Y-75216699D01*
X121114492Y-75254488D01*
X121117190Y-75267181D01*
X121121521Y-75294525D01*
X121121522Y-75294530D01*
X121141617Y-75356378D01*
X121143460Y-75362600D01*
X121163260Y-75436494D01*
X121174531Y-75460667D01*
X121180077Y-75474747D01*
X121184777Y-75489212D01*
X121184781Y-75489221D01*
X121219947Y-75558238D01*
X121221844Y-75562128D01*
X121259432Y-75642734D01*
X121267563Y-75654347D01*
X121276469Y-75669169D01*
X121277714Y-75671612D01*
X121277714Y-75671613D01*
X121330536Y-75744316D01*
X121331793Y-75746078D01*
X121389953Y-75829140D01*
X121550858Y-75990045D01*
X121633920Y-76048205D01*
X121634685Y-76049033D01*
X121635682Y-76049462D01*
X121708388Y-76102286D01*
X121708391Y-76102288D01*
X121710818Y-76103524D01*
X121711574Y-76104238D01*
X121712548Y-76104835D01*
X121712422Y-76105039D01*
X121716737Y-76109114D01*
X121725652Y-76112436D01*
X121737266Y-76120568D01*
X121737270Y-76120570D01*
X121795272Y-76147617D01*
X121847712Y-76193789D01*
X121866864Y-76260982D01*
X121846649Y-76327864D01*
X121795276Y-76372380D01*
X121750729Y-76393153D01*
X121737269Y-76399431D01*
X121737260Y-76399435D01*
X121725651Y-76407563D01*
X121710847Y-76416460D01*
X121708397Y-76417708D01*
X121708394Y-76417710D01*
X121635696Y-76470526D01*
X121633939Y-76471779D01*
X121550859Y-76529954D01*
X121389954Y-76690859D01*
X121331779Y-76773939D01*
X121330526Y-76775696D01*
X121277710Y-76848394D01*
X121277708Y-76848397D01*
X121276460Y-76850847D01*
X121267563Y-76865651D01*
X121259433Y-76877262D01*
X121221838Y-76957882D01*
X121219942Y-76961769D01*
X121184782Y-77030774D01*
X121180073Y-77045265D01*
X121174529Y-77059338D01*
X121163261Y-77083503D01*
X121163261Y-77083504D01*
X121143459Y-77157404D01*
X121141615Y-77163627D01*
X121121524Y-77225459D01*
X121121523Y-77225463D01*
X121117189Y-77252824D01*
X121114492Y-77265511D01*
X121104366Y-77303304D01*
X121104364Y-77303313D01*
X121098783Y-77367106D01*
X121097728Y-77375697D01*
X121089500Y-77427643D01*
X121089500Y-77427648D01*
X121089500Y-77632352D01*
X121090021Y-77635639D01*
X121097728Y-77684301D01*
X121098783Y-77692891D01*
X121104364Y-77756686D01*
X121104364Y-77756689D01*
X121104365Y-77756692D01*
X121104367Y-77756699D01*
X121114492Y-77794488D01*
X121117190Y-77807181D01*
X121121521Y-77834525D01*
X121121522Y-77834530D01*
X121141617Y-77896378D01*
X121143460Y-77902600D01*
X121163260Y-77976494D01*
X121174531Y-78000667D01*
X121180077Y-78014747D01*
X121184777Y-78029212D01*
X121184781Y-78029221D01*
X121219947Y-78098238D01*
X121221844Y-78102128D01*
X121259432Y-78182734D01*
X121267563Y-78194347D01*
X121276469Y-78209169D01*
X121277714Y-78211612D01*
X121277714Y-78211613D01*
X121330536Y-78284316D01*
X121331793Y-78286078D01*
X121389953Y-78369140D01*
X121550858Y-78530045D01*
X121633920Y-78588205D01*
X121634685Y-78589033D01*
X121635682Y-78589462D01*
X121708388Y-78642286D01*
X121708391Y-78642288D01*
X121710818Y-78643524D01*
X121711574Y-78644238D01*
X121712548Y-78644835D01*
X121712422Y-78645039D01*
X121716737Y-78649114D01*
X121725652Y-78652436D01*
X121737266Y-78660568D01*
X121737270Y-78660570D01*
X121795272Y-78687617D01*
X121847712Y-78733789D01*
X121866864Y-78800982D01*
X121846649Y-78867864D01*
X121795276Y-78912380D01*
X121750729Y-78933153D01*
X121737269Y-78939431D01*
X121737260Y-78939435D01*
X121725651Y-78947563D01*
X121710847Y-78956460D01*
X121708397Y-78957708D01*
X121708394Y-78957710D01*
X121635696Y-79010526D01*
X121633939Y-79011779D01*
X121550859Y-79069954D01*
X121389954Y-79230859D01*
X121331779Y-79313939D01*
X121330526Y-79315696D01*
X121277710Y-79388394D01*
X121277708Y-79388397D01*
X121276460Y-79390847D01*
X121267563Y-79405651D01*
X121259433Y-79417262D01*
X121221838Y-79497882D01*
X121219942Y-79501769D01*
X121184782Y-79570774D01*
X121180073Y-79585265D01*
X121174529Y-79599338D01*
X121163261Y-79623503D01*
X121163261Y-79623504D01*
X121143459Y-79697404D01*
X121141615Y-79703627D01*
X121121524Y-79765459D01*
X121121523Y-79765463D01*
X121117189Y-79792824D01*
X121114492Y-79805511D01*
X121104366Y-79843304D01*
X121104364Y-79843313D01*
X121098783Y-79907106D01*
X121097728Y-79915697D01*
X121089500Y-79967643D01*
X121089500Y-80172351D01*
X121097728Y-80224301D01*
X121098783Y-80232891D01*
X121104364Y-80296686D01*
X121104364Y-80296689D01*
X121104365Y-80296692D01*
X121104367Y-80296699D01*
X121114492Y-80334488D01*
X121117190Y-80347181D01*
X121121521Y-80374525D01*
X121121522Y-80374530D01*
X121141617Y-80436378D01*
X121143460Y-80442600D01*
X121163260Y-80516494D01*
X121174531Y-80540667D01*
X121180077Y-80554747D01*
X121184777Y-80569212D01*
X121184781Y-80569221D01*
X121219947Y-80638238D01*
X121221844Y-80642128D01*
X121259432Y-80722734D01*
X121267563Y-80734347D01*
X121276469Y-80749169D01*
X121277714Y-80751612D01*
X121277714Y-80751613D01*
X121330536Y-80824316D01*
X121331793Y-80826078D01*
X121389953Y-80909140D01*
X121550858Y-81070045D01*
X121633920Y-81128205D01*
X121634685Y-81129033D01*
X121635682Y-81129462D01*
X121708388Y-81182286D01*
X121708391Y-81182288D01*
X121710818Y-81183524D01*
X121711574Y-81184238D01*
X121712548Y-81184835D01*
X121712422Y-81185039D01*
X121716737Y-81189114D01*
X121725652Y-81192436D01*
X121737266Y-81200568D01*
X121737270Y-81200570D01*
X121795272Y-81227617D01*
X121847712Y-81273789D01*
X121866864Y-81340982D01*
X121846649Y-81407864D01*
X121795276Y-81452380D01*
X121750729Y-81473153D01*
X121737269Y-81479431D01*
X121737260Y-81479435D01*
X121725651Y-81487563D01*
X121710847Y-81496460D01*
X121708397Y-81497708D01*
X121708394Y-81497710D01*
X121635696Y-81550526D01*
X121633939Y-81551779D01*
X121550859Y-81609954D01*
X121389954Y-81770859D01*
X121331779Y-81853939D01*
X121330526Y-81855696D01*
X121277710Y-81928394D01*
X121277708Y-81928397D01*
X121276460Y-81930847D01*
X121267563Y-81945651D01*
X121259433Y-81957262D01*
X121221838Y-82037882D01*
X121219942Y-82041769D01*
X121184782Y-82110774D01*
X121180073Y-82125265D01*
X121174529Y-82139338D01*
X121163261Y-82163503D01*
X121163261Y-82163504D01*
X121143459Y-82237404D01*
X121141615Y-82243627D01*
X121121524Y-82305459D01*
X121121523Y-82305463D01*
X121117189Y-82332824D01*
X121114492Y-82345511D01*
X121104366Y-82383304D01*
X121104364Y-82383313D01*
X121098783Y-82447106D01*
X121097728Y-82455697D01*
X121089500Y-82507643D01*
X121089500Y-82712351D01*
X121097728Y-82764301D01*
X121098783Y-82772891D01*
X121104364Y-82836686D01*
X121104364Y-82836689D01*
X121104365Y-82836692D01*
X121104367Y-82836699D01*
X121114492Y-82874488D01*
X121117190Y-82887181D01*
X121121521Y-82914525D01*
X121121522Y-82914530D01*
X121141617Y-82976378D01*
X121143460Y-82982600D01*
X121163260Y-83056494D01*
X121174531Y-83080667D01*
X121180077Y-83094747D01*
X121184777Y-83109212D01*
X121184781Y-83109221D01*
X121219947Y-83178238D01*
X121221844Y-83182128D01*
X121259432Y-83262734D01*
X121267563Y-83274347D01*
X121276469Y-83289169D01*
X121277714Y-83291612D01*
X121277714Y-83291613D01*
X121330536Y-83364316D01*
X121331793Y-83366078D01*
X121389953Y-83449140D01*
X121550857Y-83610044D01*
X121550860Y-83610046D01*
X121550861Y-83610047D01*
X121616843Y-83656248D01*
X121660469Y-83710824D01*
X121667663Y-83780322D01*
X121636141Y-83842677D01*
X121576391Y-83877970D01*
X121556780Y-83882975D01*
X121556766Y-83882980D01*
X121483280Y-83913419D01*
X121483252Y-83913431D01*
X121434451Y-83936779D01*
X121434446Y-83936782D01*
X121319268Y-84023005D01*
X121319256Y-84023015D01*
X121263019Y-84079252D01*
X121226843Y-84119524D01*
X121226837Y-84119532D01*
X121153426Y-84243263D01*
X121122978Y-84316774D01*
X121122970Y-84316795D01*
X121104976Y-84367800D01*
X121084500Y-84510219D01*
X105915000Y-84510219D01*
X105914999Y-84510204D01*
X105912106Y-84456237D01*
X105912106Y-84456235D01*
X105876558Y-84316960D01*
X105853136Y-84260415D01*
X105853135Y-84260415D01*
X105213552Y-84899999D01*
X105043011Y-84899999D01*
X105010099Y-84842993D01*
X104917007Y-84749901D01*
X104802993Y-84684075D01*
X104739409Y-84667037D01*
X105499583Y-83906863D01*
X105499583Y-83906862D01*
X105443052Y-83883447D01*
X105443024Y-83883436D01*
X105414834Y-83873491D01*
X105358163Y-83832624D01*
X105332582Y-83767605D01*
X105346214Y-83699078D01*
X105384965Y-83654980D01*
X105449139Y-83610047D01*
X105610047Y-83449139D01*
X105668227Y-83366047D01*
X105669452Y-83364330D01*
X105669463Y-83364316D01*
X105722287Y-83291610D01*
X105723524Y-83289180D01*
X105732437Y-83274345D01*
X105740568Y-83262734D01*
X105778178Y-83182077D01*
X105780016Y-83178308D01*
X105815220Y-83109219D01*
X105819925Y-83094736D01*
X105825473Y-83080654D01*
X105836739Y-83056496D01*
X105836742Y-83056488D01*
X105856534Y-82982617D01*
X105858378Y-82976389D01*
X105858382Y-82976378D01*
X105878477Y-82914534D01*
X105882810Y-82887171D01*
X105885507Y-82874488D01*
X105895635Y-82836692D01*
X105901216Y-82772891D01*
X105902270Y-82764306D01*
X105910500Y-82712350D01*
X105910500Y-82507649D01*
X105902270Y-82455691D01*
X105901215Y-82447098D01*
X105895635Y-82383308D01*
X105885503Y-82345498D01*
X105882809Y-82332822D01*
X105878477Y-82305466D01*
X105858378Y-82243609D01*
X105856535Y-82237386D01*
X105836742Y-82163513D01*
X105836740Y-82163510D01*
X105836739Y-82163504D01*
X105825463Y-82139323D01*
X105819924Y-82125261D01*
X105815220Y-82110781D01*
X105780046Y-82041748D01*
X105778149Y-82037858D01*
X105740568Y-81957266D01*
X105732436Y-81945652D01*
X105723524Y-81930818D01*
X105722288Y-81928391D01*
X105722286Y-81928388D01*
X105669462Y-81855682D01*
X105668205Y-81853920D01*
X105610045Y-81770858D01*
X105449140Y-81609953D01*
X105366078Y-81551793D01*
X105365312Y-81550964D01*
X105364316Y-81550536D01*
X105291612Y-81497714D01*
X105289169Y-81496469D01*
X105288409Y-81495751D01*
X105287462Y-81495171D01*
X105287583Y-81494971D01*
X105283254Y-81490882D01*
X105274347Y-81487563D01*
X105262736Y-81479433D01*
X105262727Y-81479429D01*
X105204723Y-81452380D01*
X105152285Y-81406208D01*
X105133134Y-81339014D01*
X105153350Y-81272133D01*
X105204724Y-81227617D01*
X105262734Y-81200568D01*
X105274347Y-81192436D01*
X105289180Y-81183524D01*
X105291610Y-81182287D01*
X105364358Y-81129432D01*
X105366047Y-81128227D01*
X105449139Y-81070047D01*
X105610047Y-80909139D01*
X105668227Y-80826047D01*
X105669452Y-80824330D01*
X105669463Y-80824316D01*
X105722287Y-80751610D01*
X105723524Y-80749180D01*
X105732437Y-80734345D01*
X105740568Y-80722734D01*
X105778178Y-80642077D01*
X105780016Y-80638308D01*
X105815220Y-80569219D01*
X105819925Y-80554736D01*
X105825473Y-80540654D01*
X105836739Y-80516496D01*
X105836742Y-80516488D01*
X105856534Y-80442617D01*
X105858378Y-80436389D01*
X105858382Y-80436378D01*
X105878477Y-80374534D01*
X105882810Y-80347171D01*
X105885507Y-80334488D01*
X105895635Y-80296692D01*
X105901216Y-80232891D01*
X105902270Y-80224306D01*
X105910500Y-80172350D01*
X105910500Y-79967649D01*
X105902270Y-79915691D01*
X105901215Y-79907098D01*
X105895635Y-79843308D01*
X105885503Y-79805498D01*
X105882809Y-79792822D01*
X105878477Y-79765466D01*
X105858378Y-79703609D01*
X105856535Y-79697386D01*
X105836742Y-79623513D01*
X105836740Y-79623510D01*
X105836739Y-79623504D01*
X105825463Y-79599323D01*
X105819924Y-79585261D01*
X105815220Y-79570781D01*
X105780046Y-79501748D01*
X105778149Y-79497858D01*
X105740568Y-79417266D01*
X105732436Y-79405652D01*
X105723524Y-79390818D01*
X105722288Y-79388391D01*
X105722286Y-79388388D01*
X105669462Y-79315682D01*
X105668205Y-79313920D01*
X105610045Y-79230858D01*
X105449140Y-79069953D01*
X105366078Y-79011793D01*
X105365312Y-79010964D01*
X105364316Y-79010536D01*
X105291612Y-78957714D01*
X105289169Y-78956469D01*
X105288409Y-78955751D01*
X105287462Y-78955171D01*
X105287583Y-78954971D01*
X105283254Y-78950882D01*
X105274347Y-78947563D01*
X105262736Y-78939433D01*
X105262727Y-78939429D01*
X105204723Y-78912380D01*
X105152285Y-78866208D01*
X105133134Y-78799014D01*
X105153350Y-78732133D01*
X105204724Y-78687617D01*
X105262734Y-78660568D01*
X105274347Y-78652436D01*
X105289180Y-78643524D01*
X105291610Y-78642287D01*
X105364358Y-78589432D01*
X105366047Y-78588227D01*
X105449139Y-78530047D01*
X105610047Y-78369139D01*
X105668227Y-78286047D01*
X105669452Y-78284330D01*
X105669463Y-78284316D01*
X105722287Y-78211610D01*
X105723524Y-78209180D01*
X105732437Y-78194345D01*
X105740568Y-78182734D01*
X105778178Y-78102077D01*
X105780016Y-78098308D01*
X105815220Y-78029219D01*
X105819925Y-78014736D01*
X105825473Y-78000654D01*
X105836739Y-77976496D01*
X105836742Y-77976488D01*
X105856534Y-77902617D01*
X105858378Y-77896389D01*
X105858382Y-77896378D01*
X105878477Y-77834534D01*
X105882810Y-77807171D01*
X105885507Y-77794488D01*
X105895635Y-77756692D01*
X105901216Y-77692891D01*
X105902270Y-77684306D01*
X105910500Y-77632350D01*
X105910500Y-77427649D01*
X105902270Y-77375691D01*
X105901215Y-77367098D01*
X105895635Y-77303308D01*
X105885503Y-77265498D01*
X105882809Y-77252822D01*
X105878477Y-77225466D01*
X105858378Y-77163609D01*
X105856535Y-77157386D01*
X105836742Y-77083513D01*
X105836740Y-77083510D01*
X105836739Y-77083504D01*
X105825463Y-77059323D01*
X105819924Y-77045261D01*
X105815220Y-77030781D01*
X105780046Y-76961748D01*
X105778149Y-76957858D01*
X105740568Y-76877266D01*
X105732436Y-76865652D01*
X105723524Y-76850818D01*
X105722288Y-76848391D01*
X105722286Y-76848388D01*
X105669462Y-76775682D01*
X105668205Y-76773920D01*
X105610045Y-76690858D01*
X105449140Y-76529953D01*
X105366078Y-76471793D01*
X105365312Y-76470964D01*
X105364316Y-76470536D01*
X105291612Y-76417714D01*
X105289169Y-76416469D01*
X105288409Y-76415751D01*
X105287462Y-76415171D01*
X105287583Y-76414971D01*
X105283254Y-76410882D01*
X105274347Y-76407563D01*
X105262736Y-76399433D01*
X105262727Y-76399429D01*
X105204723Y-76372380D01*
X105152285Y-76326208D01*
X105133134Y-76259014D01*
X105153350Y-76192133D01*
X105204724Y-76147617D01*
X105262734Y-76120568D01*
X105274347Y-76112436D01*
X105289180Y-76103524D01*
X105291610Y-76102287D01*
X105364358Y-76049432D01*
X105366047Y-76048227D01*
X105449139Y-75990047D01*
X105610047Y-75829139D01*
X105668227Y-75746047D01*
X105669452Y-75744330D01*
X105669463Y-75744316D01*
X105722287Y-75671610D01*
X105723524Y-75669180D01*
X105732437Y-75654345D01*
X105740568Y-75642734D01*
X105778178Y-75562077D01*
X105780016Y-75558308D01*
X105815220Y-75489219D01*
X105819925Y-75474736D01*
X105825473Y-75460654D01*
X105836739Y-75436496D01*
X105836742Y-75436488D01*
X105856534Y-75362617D01*
X105858378Y-75356389D01*
X105859644Y-75352494D01*
X105878477Y-75294534D01*
X105882810Y-75267171D01*
X105885507Y-75254488D01*
X105895635Y-75216692D01*
X105901216Y-75152891D01*
X105902270Y-75144306D01*
X105910500Y-75092350D01*
X105910500Y-74887649D01*
X105902270Y-74835691D01*
X105901215Y-74827098D01*
X105895635Y-74763308D01*
X105885503Y-74725498D01*
X105882809Y-74712822D01*
X105878477Y-74685466D01*
X105858378Y-74623609D01*
X105856535Y-74617386D01*
X105836742Y-74543513D01*
X105836740Y-74543510D01*
X105836739Y-74543504D01*
X105825463Y-74519323D01*
X105819924Y-74505261D01*
X105815220Y-74490781D01*
X105780046Y-74421748D01*
X105778149Y-74417858D01*
X105740568Y-74337266D01*
X105732436Y-74325652D01*
X105723524Y-74310818D01*
X105722288Y-74308391D01*
X105722286Y-74308388D01*
X105669462Y-74235682D01*
X105668205Y-74233920D01*
X105610045Y-74150858D01*
X105449143Y-73989956D01*
X105382620Y-73943376D01*
X105338996Y-73888799D01*
X105331803Y-73819300D01*
X105363325Y-73756946D01*
X105423082Y-73721652D01*
X105443025Y-73716562D01*
X105443035Y-73716559D01*
X105499582Y-73693135D01*
X105356446Y-73549999D01*
X110050000Y-73549999D01*
X110050000Y-80950000D01*
X110052138Y-81015541D01*
X110052138Y-81015544D01*
X110052139Y-81015545D01*
X110086068Y-81142167D01*
X110151612Y-81255694D01*
X110244306Y-81348388D01*
X110357833Y-81413932D01*
X110484455Y-81447861D01*
X110550000Y-81450000D01*
X111450000Y-81450000D01*
X111515545Y-81447861D01*
X111642167Y-81413932D01*
X111755694Y-81348388D01*
X111848388Y-81255694D01*
X111913932Y-81142167D01*
X111947861Y-81015545D01*
X111950000Y-80950000D01*
X111950000Y-77250000D01*
X111950000Y-73550000D01*
X111947861Y-73484455D01*
X111913933Y-73357833D01*
X111848388Y-73244306D01*
X111755694Y-73151612D01*
X111648607Y-73089785D01*
X121085000Y-73089785D01*
X121087893Y-73143762D01*
X121087893Y-73143764D01*
X121123438Y-73283030D01*
X121123440Y-73283037D01*
X121146863Y-73339583D01*
X121786447Y-72700000D01*
X121085000Y-72700000D01*
X121085000Y-73089785D01*
X111648607Y-73089785D01*
X111642167Y-73086067D01*
X111515545Y-73052139D01*
X111450000Y-73050000D01*
X110550000Y-73050000D01*
X110484455Y-73052139D01*
X110357833Y-73086067D01*
X110357831Y-73086067D01*
X110357831Y-73086068D01*
X110244306Y-73151612D01*
X110244303Y-73151614D01*
X110151614Y-73244303D01*
X110151612Y-73244306D01*
X110086067Y-73357833D01*
X110054068Y-73477257D01*
X110052139Y-73484455D01*
X110050000Y-73549999D01*
X105356446Y-73549999D01*
X104739409Y-72932962D01*
X104802993Y-72915925D01*
X104917007Y-72850099D01*
X105010099Y-72757007D01*
X105043012Y-72700000D01*
X105213552Y-72700000D01*
X105853135Y-73339582D01*
X105853137Y-73339582D01*
X105876552Y-73283053D01*
X105894544Y-73232053D01*
X105914999Y-73089780D01*
X105915000Y-73089779D01*
X105915000Y-72700000D01*
X105213552Y-72700000D01*
X105043012Y-72700000D01*
X105075925Y-72642993D01*
X105110000Y-72515826D01*
X105110000Y-72384174D01*
X105075925Y-72257007D01*
X105043011Y-72199999D01*
X105213552Y-72199999D01*
X105213553Y-72200000D01*
X105915000Y-72200000D01*
X105915000Y-71810219D01*
X121085000Y-71810219D01*
X121085000Y-72200000D01*
X121786447Y-72200000D01*
X121786447Y-72199999D01*
X121146862Y-71560415D01*
X121123449Y-71616940D01*
X121105455Y-71667946D01*
X121085000Y-71810219D01*
X105915000Y-71810219D01*
X105915000Y-71810214D01*
X105912106Y-71756237D01*
X105912106Y-71756235D01*
X105876558Y-71616960D01*
X105853136Y-71560415D01*
X105853135Y-71560415D01*
X105213552Y-72199999D01*
X105043011Y-72199999D01*
X105010099Y-72142993D01*
X104917007Y-72049901D01*
X104802993Y-71984075D01*
X104739409Y-71967037D01*
X105499583Y-71206863D01*
X105499583Y-71206862D01*
X105443052Y-71183447D01*
X105443024Y-71183436D01*
X105414834Y-71173491D01*
X105358163Y-71132624D01*
X105332582Y-71067605D01*
X105346214Y-70999078D01*
X105384965Y-70954980D01*
X105449139Y-70910047D01*
X105610047Y-70749139D01*
X105668227Y-70666047D01*
X105669452Y-70664330D01*
X105669463Y-70664316D01*
X105722287Y-70591610D01*
X105727465Y-70581446D01*
X105740568Y-70562734D01*
X105779067Y-70480172D01*
X105800817Y-70437486D01*
X109899500Y-70437486D01*
X109899500Y-70622513D01*
X109928445Y-70805265D01*
X109985619Y-70981232D01*
X109985620Y-70981235D01*
X110051722Y-71110966D01*
X110069622Y-71146096D01*
X110178379Y-71295787D01*
X110309213Y-71426621D01*
X110458904Y-71535378D01*
X110508042Y-71560415D01*
X110623764Y-71619379D01*
X110623767Y-71619380D01*
X110689671Y-71640793D01*
X110799736Y-71676555D01*
X110982486Y-71705500D01*
X110982487Y-71705500D01*
X111167513Y-71705500D01*
X111167514Y-71705500D01*
X111350264Y-71676555D01*
X111526235Y-71619379D01*
X111691096Y-71535378D01*
X111840787Y-71426621D01*
X111971621Y-71295787D01*
X112080378Y-71146096D01*
X112164379Y-70981235D01*
X112221555Y-70805264D01*
X112250500Y-70622514D01*
X112250500Y-70437486D01*
X112221555Y-70254736D01*
X112183201Y-70136694D01*
X112166826Y-70086295D01*
X112164380Y-70078767D01*
X112164379Y-70078764D01*
X112149722Y-70049999D01*
X112550000Y-70049999D01*
X112550000Y-70950000D01*
X112552138Y-71015541D01*
X112552138Y-71015544D01*
X112552139Y-71015545D01*
X112586068Y-71142167D01*
X112651612Y-71255694D01*
X112744306Y-71348388D01*
X112857833Y-71413932D01*
X112984455Y-71447861D01*
X113050000Y-71450000D01*
X113950000Y-71450000D01*
X114015545Y-71447861D01*
X114142167Y-71413933D01*
X114255694Y-71348388D01*
X114348388Y-71255694D01*
X114413933Y-71142167D01*
X114447861Y-71015545D01*
X114450000Y-70950000D01*
X114450000Y-70437486D01*
X114749500Y-70437486D01*
X114749500Y-70622513D01*
X114778445Y-70805265D01*
X114835619Y-70981232D01*
X114835620Y-70981235D01*
X114901722Y-71110966D01*
X114919622Y-71146096D01*
X115028379Y-71295787D01*
X115159213Y-71426621D01*
X115308904Y-71535378D01*
X115358042Y-71560415D01*
X115473764Y-71619379D01*
X115473767Y-71619380D01*
X115539671Y-71640793D01*
X115649736Y-71676555D01*
X115832486Y-71705500D01*
X115832487Y-71705500D01*
X116017513Y-71705500D01*
X116017514Y-71705500D01*
X116090660Y-71693914D01*
X116157578Y-71683316D01*
X116163847Y-71682322D01*
X116200264Y-71676555D01*
X116376235Y-71619379D01*
X116541096Y-71535378D01*
X116690787Y-71426621D01*
X116821621Y-71295787D01*
X116930378Y-71146096D01*
X117014379Y-70981235D01*
X117071555Y-70805264D01*
X117100500Y-70622514D01*
X117100500Y-70437486D01*
X117071555Y-70254736D01*
X117033201Y-70136694D01*
X117014380Y-70078767D01*
X117014379Y-70078764D01*
X116957322Y-69966784D01*
X116930378Y-69913904D01*
X116821621Y-69764213D01*
X116690787Y-69633379D01*
X116541096Y-69524622D01*
X116376235Y-69440620D01*
X116376232Y-69440619D01*
X116200265Y-69383445D01*
X116108889Y-69368972D01*
X116017514Y-69354500D01*
X115832486Y-69354500D01*
X115771569Y-69364148D01*
X115649734Y-69383445D01*
X115473767Y-69440619D01*
X115473764Y-69440620D01*
X115308903Y-69524622D01*
X115271030Y-69552139D01*
X115159213Y-69633379D01*
X115159211Y-69633381D01*
X115159210Y-69633381D01*
X115028381Y-69764210D01*
X115028381Y-69764211D01*
X115028379Y-69764213D01*
X115000496Y-69802591D01*
X114919622Y-69913903D01*
X114835620Y-70078764D01*
X114835619Y-70078767D01*
X114778445Y-70254734D01*
X114749500Y-70437486D01*
X114450000Y-70437486D01*
X114450000Y-70050000D01*
X114447861Y-69984455D01*
X114413933Y-69857833D01*
X114348388Y-69744306D01*
X114255694Y-69651612D01*
X114142167Y-69586067D01*
X114015545Y-69552139D01*
X113950000Y-69550000D01*
X113500000Y-69550000D01*
X113050000Y-69550000D01*
X112984458Y-69552138D01*
X112857832Y-69586068D01*
X112744307Y-69651611D01*
X112744304Y-69651613D01*
X112651613Y-69744304D01*
X112651611Y-69744307D01*
X112586068Y-69857832D01*
X112552138Y-69984458D01*
X112550000Y-70049999D01*
X112149722Y-70049999D01*
X112107322Y-69966784D01*
X112080378Y-69913904D01*
X111971621Y-69764213D01*
X111840787Y-69633379D01*
X111691096Y-69524622D01*
X111526235Y-69440620D01*
X111526232Y-69440619D01*
X111350265Y-69383445D01*
X111258889Y-69368972D01*
X111167514Y-69354500D01*
X110982486Y-69354500D01*
X110921569Y-69364148D01*
X110799734Y-69383445D01*
X110623767Y-69440619D01*
X110623764Y-69440620D01*
X110458903Y-69524622D01*
X110421030Y-69552139D01*
X110309213Y-69633379D01*
X110309211Y-69633381D01*
X110309210Y-69633381D01*
X110178381Y-69764210D01*
X110178381Y-69764211D01*
X110178379Y-69764213D01*
X110150496Y-69802591D01*
X110069622Y-69913903D01*
X109985620Y-70078764D01*
X109985619Y-70078767D01*
X109928445Y-70254734D01*
X109899500Y-70437486D01*
X105800817Y-70437486D01*
X105815220Y-70409219D01*
X105822266Y-70387532D01*
X105836739Y-70356496D01*
X105857372Y-70279489D01*
X105858003Y-70277543D01*
X105858360Y-70276444D01*
X105858362Y-70276442D01*
X105858378Y-70276389D01*
X105858382Y-70276378D01*
X105878477Y-70214534D01*
X105882810Y-70187171D01*
X105885507Y-70174488D01*
X105895635Y-70136692D01*
X105901216Y-70072891D01*
X105902270Y-70064306D01*
X105904537Y-70049999D01*
X105910500Y-70012352D01*
X105910500Y-69807648D01*
X105902269Y-69755690D01*
X105901215Y-69747098D01*
X105900971Y-69744304D01*
X105895635Y-69683308D01*
X105885503Y-69645498D01*
X105882809Y-69632822D01*
X105878477Y-69605466D01*
X105858378Y-69543609D01*
X105856535Y-69537386D01*
X105836742Y-69463513D01*
X105836740Y-69463510D01*
X105836739Y-69463504D01*
X105825463Y-69439323D01*
X105819924Y-69425261D01*
X105815220Y-69410781D01*
X105798186Y-69377350D01*
X105780046Y-69341748D01*
X105778149Y-69337858D01*
X105740568Y-69257266D01*
X105732436Y-69245652D01*
X105723524Y-69230818D01*
X105722288Y-69228391D01*
X105722286Y-69228388D01*
X105669462Y-69155682D01*
X105668205Y-69153920D01*
X105610045Y-69070858D01*
X105449142Y-68909955D01*
X105440297Y-68903762D01*
X105378515Y-68860502D01*
X105334891Y-68805927D01*
X105327697Y-68736429D01*
X105359219Y-68674074D01*
X105412747Y-68640543D01*
X105499606Y-68613478D01*
X105645185Y-68525472D01*
X105765472Y-68405185D01*
X105853478Y-68259606D01*
X105904086Y-68097196D01*
X105910500Y-68026616D01*
X105910500Y-67505650D01*
X105910613Y-67500347D01*
X105910759Y-67496922D01*
X105915500Y-67448793D01*
X105915500Y-67393713D01*
X109424500Y-67393713D01*
X109424500Y-67606286D01*
X109445104Y-67736378D01*
X109457754Y-67816243D01*
X109507938Y-67970694D01*
X109523444Y-68018414D01*
X109619951Y-68207820D01*
X109744890Y-68379786D01*
X109895213Y-68530109D01*
X110067179Y-68655048D01*
X110067181Y-68655049D01*
X110067184Y-68655051D01*
X110256588Y-68751557D01*
X110458757Y-68817246D01*
X110668713Y-68850500D01*
X110668714Y-68850500D01*
X110881286Y-68850500D01*
X110881287Y-68850500D01*
X111091243Y-68817246D01*
X111293412Y-68751557D01*
X111482816Y-68655051D01*
X111540038Y-68613477D01*
X111654786Y-68530109D01*
X111654788Y-68530106D01*
X111654792Y-68530104D01*
X111805104Y-68379792D01*
X111930051Y-68207816D01*
X111930053Y-68207811D01*
X111932914Y-68203874D01*
X111934013Y-68204672D01*
X111981241Y-68161928D01*
X112039225Y-68149648D01*
X112050000Y-68150000D01*
X112050004Y-68150000D01*
X112950000Y-68150000D01*
X113015545Y-68147861D01*
X113142167Y-68113933D01*
X113255694Y-68048388D01*
X113348388Y-67955694D01*
X113388283Y-67886594D01*
X113438850Y-67838378D01*
X113507457Y-67825155D01*
X113572322Y-67851124D01*
X113603057Y-67886594D01*
X113651609Y-67970690D01*
X113651611Y-67970693D01*
X113651612Y-67970694D01*
X113744306Y-68063388D01*
X113857833Y-68128932D01*
X113984455Y-68162861D01*
X114050000Y-68165000D01*
X114949997Y-68165000D01*
X114950000Y-68165000D01*
X114971066Y-68164312D01*
X115038711Y-68181798D01*
X115075430Y-68215361D01*
X115194890Y-68379786D01*
X115345213Y-68530109D01*
X115517179Y-68655048D01*
X115517181Y-68655049D01*
X115517184Y-68655051D01*
X115706588Y-68751557D01*
X115908757Y-68817246D01*
X116118713Y-68850500D01*
X116118714Y-68850500D01*
X116331286Y-68850500D01*
X116331287Y-68850500D01*
X116541243Y-68817246D01*
X116743412Y-68751557D01*
X116932816Y-68655051D01*
X116990038Y-68613477D01*
X117104786Y-68530109D01*
X117104788Y-68530106D01*
X117104792Y-68530104D01*
X117255104Y-68379792D01*
X117255106Y-68379788D01*
X117255109Y-68379786D01*
X117380048Y-68207820D01*
X117380047Y-68207820D01*
X117380051Y-68207816D01*
X117476557Y-68018412D01*
X117542246Y-67816243D01*
X117575500Y-67606287D01*
X117575500Y-67393713D01*
X117574625Y-67388186D01*
X117557834Y-67282174D01*
X117550259Y-67234348D01*
X117542246Y-67183757D01*
X117476557Y-66981588D01*
X117380051Y-66792184D01*
X117380049Y-66792181D01*
X117380048Y-66792179D01*
X117255109Y-66620213D01*
X117104786Y-66469890D01*
X116932820Y-66344951D01*
X116743414Y-66248444D01*
X116743413Y-66248443D01*
X116743412Y-66248443D01*
X116541243Y-66182754D01*
X116541241Y-66182753D01*
X116541240Y-66182753D01*
X116377244Y-66156779D01*
X116331287Y-66149500D01*
X116118713Y-66149500D01*
X116072756Y-66156779D01*
X115908760Y-66182753D01*
X115706585Y-66248444D01*
X115517181Y-66344950D01*
X115438861Y-66401852D01*
X115373054Y-66425331D01*
X115305000Y-66409504D01*
X115278296Y-66389214D01*
X115255696Y-66366614D01*
X115255694Y-66366612D01*
X115142167Y-66301067D01*
X115015545Y-66267139D01*
X114950000Y-66265000D01*
X114500000Y-66265000D01*
X114050000Y-66265000D01*
X113984458Y-66267138D01*
X113857832Y-66301068D01*
X113744307Y-66366611D01*
X113744304Y-66366613D01*
X113651613Y-66459304D01*
X113651609Y-66459309D01*
X113611717Y-66528405D01*
X113561150Y-66576621D01*
X113492543Y-66589843D01*
X113427678Y-66563875D01*
X113396943Y-66528405D01*
X113359334Y-66463265D01*
X113348388Y-66444306D01*
X113255694Y-66351612D01*
X113142167Y-66286067D01*
X113015545Y-66252139D01*
X112950000Y-66250000D01*
X112500000Y-66250000D01*
X112050000Y-66250000D01*
X111984458Y-66252138D01*
X111857832Y-66286068D01*
X111744307Y-66351611D01*
X111744304Y-66351613D01*
X111713014Y-66382903D01*
X111651690Y-66416388D01*
X111581999Y-66411402D01*
X111552449Y-66395540D01*
X111482815Y-66344948D01*
X111293414Y-66248444D01*
X111293413Y-66248443D01*
X111293412Y-66248443D01*
X111091243Y-66182754D01*
X111091241Y-66182753D01*
X111091240Y-66182753D01*
X110927244Y-66156779D01*
X110881287Y-66149500D01*
X110668713Y-66149500D01*
X110622756Y-66156779D01*
X110458760Y-66182753D01*
X110256585Y-66248444D01*
X110067179Y-66344951D01*
X109895213Y-66469890D01*
X109744890Y-66620213D01*
X109619951Y-66792179D01*
X109523444Y-66981585D01*
X109457753Y-67183760D01*
X109424500Y-67393713D01*
X105915500Y-67393713D01*
X105915500Y-67291207D01*
X105910697Y-67242442D01*
X105910565Y-67238359D01*
X105910675Y-67237930D01*
X105910500Y-67234348D01*
X105910500Y-66713386D01*
X105908229Y-66688394D01*
X105904086Y-66642804D01*
X105853478Y-66480394D01*
X105765472Y-66334815D01*
X105765470Y-66334813D01*
X105765469Y-66334811D01*
X105645188Y-66214530D01*
X105622694Y-66200932D01*
X105499606Y-66126522D01*
X105337196Y-66075914D01*
X105337194Y-66075913D01*
X105337192Y-66075913D01*
X105287778Y-66071423D01*
X105266616Y-66069500D01*
X105266613Y-66069500D01*
X104745650Y-66069500D01*
X104733497Y-66068903D01*
X104688793Y-66064500D01*
X102370218Y-66064500D01*
X102370216Y-66064500D01*
X102316185Y-66067395D01*
X102316181Y-66067396D01*
X102176778Y-66102976D01*
X102176766Y-66102980D01*
X102103280Y-66133419D01*
X102103252Y-66133431D01*
X102054451Y-66156779D01*
X102054446Y-66156782D01*
X101939268Y-66243005D01*
X101939256Y-66243015D01*
X101883019Y-66299252D01*
X101846843Y-66339524D01*
X101846837Y-66339532D01*
X101773426Y-66463263D01*
X101742978Y-66536774D01*
X101742970Y-66536795D01*
X101724976Y-66587800D01*
X101704500Y-66730219D01*
X87554746Y-66730219D01*
X87554727Y-66726422D01*
X87519789Y-59878711D01*
X91149500Y-59878711D01*
X91149500Y-60121288D01*
X91181161Y-60361785D01*
X91243947Y-60596104D01*
X91336773Y-60820205D01*
X91336776Y-60820212D01*
X91458064Y-61030289D01*
X91458066Y-61030292D01*
X91458067Y-61030293D01*
X91605733Y-61222736D01*
X91605739Y-61222743D01*
X91777256Y-61394260D01*
X91777262Y-61394265D01*
X91969711Y-61541936D01*
X92179788Y-61663224D01*
X92403900Y-61756054D01*
X92638211Y-61818838D01*
X92818586Y-61842584D01*
X92878711Y-61850500D01*
X92878712Y-61850500D01*
X93121289Y-61850500D01*
X93169388Y-61844167D01*
X93361789Y-61818838D01*
X93596100Y-61756054D01*
X93820212Y-61663224D01*
X94030289Y-61541936D01*
X94222738Y-61394265D01*
X94394265Y-61222738D01*
X94541936Y-61030289D01*
X94663224Y-60820212D01*
X94756054Y-60596100D01*
X94818838Y-60361789D01*
X94850500Y-60121288D01*
X94850500Y-59878712D01*
X94850500Y-59878711D01*
X158149500Y-59878711D01*
X158149500Y-60121288D01*
X158181161Y-60361785D01*
X158243947Y-60596104D01*
X158336773Y-60820205D01*
X158336776Y-60820212D01*
X158458064Y-61030289D01*
X158458066Y-61030292D01*
X158458067Y-61030293D01*
X158605733Y-61222736D01*
X158605739Y-61222743D01*
X158777256Y-61394260D01*
X158777262Y-61394265D01*
X158969711Y-61541936D01*
X159179788Y-61663224D01*
X159403900Y-61756054D01*
X159638211Y-61818838D01*
X159818586Y-61842584D01*
X159878711Y-61850500D01*
X159878712Y-61850500D01*
X160121289Y-61850500D01*
X160169388Y-61844167D01*
X160361789Y-61818838D01*
X160596100Y-61756054D01*
X160820212Y-61663224D01*
X161030289Y-61541936D01*
X161222738Y-61394265D01*
X161394265Y-61222738D01*
X161541936Y-61030289D01*
X161663224Y-60820212D01*
X161756054Y-60596100D01*
X161818838Y-60361789D01*
X161850500Y-60121288D01*
X161850500Y-59878712D01*
X161818838Y-59638211D01*
X161756054Y-59403900D01*
X161663224Y-59179788D01*
X161541936Y-58969711D01*
X161394265Y-58777262D01*
X161394260Y-58777256D01*
X161222743Y-58605739D01*
X161222736Y-58605733D01*
X161030293Y-58458067D01*
X161030292Y-58458066D01*
X161030289Y-58458064D01*
X160820212Y-58336776D01*
X160820205Y-58336773D01*
X160596104Y-58243947D01*
X160361785Y-58181161D01*
X160121289Y-58149500D01*
X160121288Y-58149500D01*
X159878712Y-58149500D01*
X159878711Y-58149500D01*
X159638214Y-58181161D01*
X159403895Y-58243947D01*
X159179794Y-58336773D01*
X159179785Y-58336777D01*
X158969706Y-58458067D01*
X158777263Y-58605733D01*
X158777256Y-58605739D01*
X158605739Y-58777256D01*
X158605733Y-58777263D01*
X158458067Y-58969706D01*
X158336777Y-59179785D01*
X158336773Y-59179794D01*
X158243947Y-59403895D01*
X158181161Y-59638214D01*
X158149500Y-59878711D01*
X94850500Y-59878711D01*
X94818838Y-59638211D01*
X94756054Y-59403900D01*
X94663224Y-59179788D01*
X94541936Y-58969711D01*
X94394265Y-58777262D01*
X94394260Y-58777256D01*
X94222743Y-58605739D01*
X94222736Y-58605733D01*
X94030293Y-58458067D01*
X94030292Y-58458066D01*
X94030289Y-58458064D01*
X93820212Y-58336776D01*
X93820205Y-58336773D01*
X93596104Y-58243947D01*
X93361785Y-58181161D01*
X93121289Y-58149500D01*
X93121288Y-58149500D01*
X92878712Y-58149500D01*
X92878711Y-58149500D01*
X92638214Y-58181161D01*
X92403895Y-58243947D01*
X92179794Y-58336773D01*
X92179785Y-58336777D01*
X91969706Y-58458067D01*
X91777263Y-58605733D01*
X91777256Y-58605739D01*
X91605739Y-58777256D01*
X91605733Y-58777263D01*
X91458067Y-58969706D01*
X91336777Y-59179785D01*
X91336773Y-59179794D01*
X91243947Y-59403895D01*
X91181161Y-59638214D01*
X91149500Y-59878711D01*
X87519789Y-59878711D01*
X87519772Y-59875286D01*
X87500636Y-56124633D01*
X87519978Y-56057494D01*
X87572548Y-56011470D01*
X87624634Y-56000000D01*
X164876000Y-56000000D01*
X164943039Y-56019685D01*
G37*
%TD.AperFunction*%
%TD*%
M02*
